<?xml version="1.0" standalone="no"?>
<!DOCTYPE svg PUBLIC "-//W3C//DTD SVG 20010904//EN"
 "http://www.w3.org/TR/2001/REC-SVG-20010904/DTD/svg10.dtd">
<svg version="1.0" xmlns="http://www.w3.org/2000/svg"
 width="390.000000pt" height="390.000000pt" viewBox="0 0 390.000000 390.000000"
 preserveAspectRatio="xMidYMid meet">
<metadata>
Created by potrace 1.11, written by Peter Selinger 2001-2013
</metadata>
<g transform="translate(0.000000,390.000000) scale(0.100000,-0.100000)"
fill="#000000" stroke="none">
<path d="M1270 1972 l0 -1299 68 1 67 1 3 344 2 344 372 -372 371 -372 39 38
c63 63 64 69 21 110 -21 19 -205 202 -410 405 l-372 370 313 312 c172 171 357
353 410 404 63 62 94 98 89 106 -5 7 -27 35 -51 61 l-43 49 -367 -367 c-202
-202 -369 -367 -372 -367 -3 0 -5 344 -5 765 l0 765 -67 0 -68 0 0 -1298z"/>
<path d="M2379 3253 c-5 -118 -2 -2274 4 -2317 21 -168 166 -307 322 -310 l60
-1 0 64 0 64 -57 13 c-99 23 -168 87 -185 172 -7 39 -8 1371 0 1378 3 4 59 7
124 8 l118 1 0 67 c0 37 -4 69 -10 71 -5 2 -61 3 -122 3 -69 -1 -114 3 -116 9
-2 5 -3 187 -3 403 l1 392 -67 0 c-58 0 -68 -3 -69 -17z"/>
<path d="M2880 2820 c-69 -72 -126 -133 -128 -135 -2 -1 112 -3 253 -3 l257 0
-34 37 c-19 20 -77 80 -129 134 l-95 99 -124 -132z"/>
<path d="M400 2474 c-125 -27 -215 -85 -268 -175 l-22 -36 68 -30 68 -30 52
48 c70 65 127 83 246 77 110 -5 166 -27 230 -91 81 -82 114 -180 121 -358 4
-116 1 -120 -40 -73 -27 31 -110 85 -162 104 -72 28 -228 36 -320 16 -252 -54
-375 -256 -371 -611 3 -248 59 -428 165 -525 92 -84 199 -121 348 -121 139 1
228 37 326 131 29 28 53 50 54 50 1 0 3 -34 3 -75 0 -41 3 -78 6 -83 4 -7 77
-9 121 -3 16 2 12 1230 -4 1338 -37 252 -131 377 -331 437 -74 23 -209 27
-290 10z m234 -705 c109 -22 197 -106 231 -222 24 -80 38 -223 30 -307 -19
-202 -115 -352 -257 -401 -38 -13 -76 -17 -138 -15 -174 5 -283 93 -329 268
-64 240 -29 487 86 602 39 39 113 75 170 82 26 3 49 6 50 8 5 5 101 -4 157
-15z"/>
<path d="M3317 2484 c-1 -1 -24 -5 -51 -8 -95 -13 -191 -75 -261 -169 -17 -22
-24 -42 -19 -47 9 -9 109 -50 122 -50 4 0 25 16 47 36 54 48 102 72 167 82
159 25 295 -31 366 -148 51 -85 67 -151 77 -315 6 -82 5 -97 -7 -89 -7 6 -38
31 -68 55 -61 49 -154 94 -215 104 -220 35 -425 -47 -523 -210 -62 -103 -77
-176 -77 -375 0 -164 7 -241 30 -332 58 -225 248 -364 480 -351 147 8 241 46
326 134 l57 57 0 -71 c0 -40 0 -79 1 -88 1 -12 14 -15 64 -14 l62 0 1 625 c2
732 -4 806 -72 945 -52 105 -180 201 -294 221 -38 6 -208 12 -213 8z m195
-715 c105 -24 199 -122 224 -234 31 -138 36 -233 18 -345 -41 -251 -161 -368
-380 -368 -235 0 -365 175 -367 498 -1 278 109 441 313 460 75 6 125 4 192
-11z"/>
</g>
</svg>
