<?xml version="1.0" standalone="no"?>
<!DOCTYPE svg PUBLIC "-//W3C//DTD SVG 20010904//EN"
 "http://www.w3.org/TR/2001/REC-SVG-20010904/DTD/svg10.dtd">
<svg version="1.0" xmlns="http://www.w3.org/2000/svg"
 width="400.000000pt" height="400.000000pt" viewBox="0 0 400.000000 400.000000"
 preserveAspectRatio="xMidYMid meet">
<metadata>
Created by potrace 1.11, written by Peter Selinger 2001-2013
</metadata>
<g transform="translate(0.000000,400.000000) scale(0.100000,-0.100000)"
fill="#000000" stroke="none">
<path d="M1322 2023 l3 -1298 50 0 c90 -1 82 -32 83 318 0 172 1 325 1 341 1
26 38 -8 373 -344 l372 -372 48 51 c52 56 53 72 6 105 -33 23 -768 758 -768
768 0 8 566 575 724 725 61 58 85 87 79 97 -4 7 -27 35 -51 61 l-43 49 -367
-367 c-202 -202 -369 -367 -372 -367 -3 0 -5 343 -5 763 l0 762 -68 3 -67 3 2
-1298z"/>
<path d="M2430 3283 c-1 -21 -1 -551 -2 -1178 l0 -1140 22 -58 c32 -85 87
-146 182 -200 39 -23 63 -29 116 -30 l67 -2 0 55 c2 67 -2 80 -24 80 -38 0
-118 31 -147 57 -66 59 -76 104 -76 317 0 89 1 391 1 673 l1 512 122 3 123 3
1 60 c0 33 -1 65 -3 70 -2 7 -48 11 -123 10 -66 -1 -121 3 -121 7 -1 4 -2 185
-3 401 l-1 392 -67 3 -68 3 0 -38z"/>
<path d="M2975 2918 c-44 -46 -101 -106 -128 -134 l-49 -51 258 -1 258 -1 -40
42 c-64 67 -188 198 -202 213 -7 8 -15 14 -16 14 -1 0 -38 -37 -81 -82z"/>
<path d="M510 2537 c-3 -3 -23 -7 -46 -10 -62 -9 -147 -44 -197 -82 -41 -31
-113 -122 -104 -131 2 -2 32 -17 68 -33 l64 -29 48 45 c70 66 128 86 243 85
115 -1 215 -52 274 -137 60 -87 79 -159 85 -323 l4 -103 -51 45 c-46 40 -168
115 -168 103 0 -3 -21 1 -47 9 -64 19 -191 16 -283 -7 -175 -45 -272 -150
-326 -354 -28 -106 -26 -365 4 -499 30 -134 60 -196 129 -265 64 -63 138 -103
227 -121 54 -11 180 -15 216 -7 8 2 31 7 50 11 58 14 111 45 183 108 l68 60
-2 -53 c-1 -30 -1 -68 0 -85 l1 -30 65 0 c36 1 66 6 68 11 7 20 0 1251 -7
1300 -44 288 -129 407 -336 469 -52 16 -220 32 -230 23z m243 -741 c126 -62
185 -187 193 -411 6 -182 -43 -332 -137 -420 -77 -72 -125 -89 -244 -90 -87 0
-107 3 -156 26 -70 33 -128 92 -162 163 -61 129 -74 383 -26 535 19 60 68 134
112 168 66 49 125 63 252 60 97 -3 117 -6 168 -31z"/>
<path d="M3350 2529 c-113 -13 -182 -47 -259 -128 -18 -20 -40 -46 -49 -59
-13 -21 -13 -24 3 -36 10 -7 40 -21 66 -31 l48 -17 48 39 c66 53 99 70 161 81
144 26 288 -26 360 -131 55 -79 79 -172 87 -336 l4 -92 -62 48 c-86 68 -105
79 -178 103 -65 21 -178 28 -256 15 -202 -34 -329 -155 -383 -366 -16 -61 -19
-102 -16 -249 2 -110 9 -205 19 -255 59 -289 282 -440 574 -389 105 18 173 53
243 123 l60 59 -2 -86 -2 -87 65 0 64 0 1 641 c1 353 -2 661 -6 685 -5 24 -10
58 -13 74 -30 194 -150 338 -317 384 -56 15 -174 19 -260 10z m190 -704 c112
-20 205 -106 240 -224 77 -254 17 -564 -129 -665 -56 -39 -154 -67 -226 -65
-218 5 -335 137 -363 409 -33 317 78 522 298 549 58 8 121 6 180 -4z"/>
</g>
</svg>
