<?xml version="1.0" encoding="utf-8"?>
<!-- Generator: Adobe Illustrator 19.1.0, SVG Export Plug-In . SVG Version: 6.00 Build 0)  -->
<svg version="1.1" id="Layer_1" xmlns="http://www.w3.org/2000/svg" xmlns:xlink="http://www.w3.org/1999/xlink" x="0px" y="0px"
	 viewBox="0 0 140.2 114.1" style="enable-background:new 0 0 140.2 114.1;" xml:space="preserve">
<style type="text/css">
	.st0{fill:#C6CDD1;}
	.st1{fill:#7D8189;}
	.st2{fill:#59595B;}
	.st3{fill:#E9E9E9;}
	.st4{fill:#FFFFFF;}
	.st5{fill:#179F8D;}
	.st6{fill:none;stroke:#B2B2B9;stroke-width:0.5;stroke-miterlimit:10;}
	.st7{fill:#272727;}
</style>
<polygon id="XMLID_4445_" class="st0" points="52.3,111.8 87.9,111.8 94.1,113.2 46.1,113.3 "/>
<polygon id="XMLID_4444_" class="st1" points="93.8,114.1 46.4,114.1 46.1,113.3 94.1,113.2 "/>
<polygon id="XMLID_4449_" class="st1" points="87.9,111.8 52.3,111.8 54.4,96.5 86.1,96.5 "/>
<path id="XMLID_4448_" class="st0" d="M0,83.7v9.4c0,1.9,1.6,3.5,3.5,3.5h133.2c1.9,0,3.5-1.6,3.5-3.5v-9.4H0z"/>
<path id="XMLID_4447_" class="st2" d="M140.2,3.5c0-1.9-1.6-3.5-3.5-3.5H3.5C1.6,0,0,1.6,0,3.5v80.2h140.2V3.5z"/>
<rect id="XMLID_5438_" x="4.9" y="4.6" class="st3" width="130.3" height="74.4"/>
<rect id="XMLID_4443_" x="4.9" y="4.6" class="st4" width="130.3" height="22.2"/>
<rect id="XMLID_4442_" x="27.5" y="6.9" class="st5" width="85.1" height="8.8"/>
<line id="XMLID_4441_" class="st6" x1="27.5" y1="17.3" x2="112.6" y2="17.3"/>
<rect id="XMLID_4440_" x="4.9" y="21.7" class="st7" width="130.3" height="5.2"/>
<rect id="XMLID_4439_" x="4.9" y="26.9" class="st4" width="130.3" height="2.6"/>
<g id="XMLID_5545_">
	<path id="XMLID_5554_" class="st4" d="M111.6,59.4h-24c-0.6,0-1-0.5-1-1V38.3c0-0.6,0.5-1,1-1h24c0.6,0,1,0.5,1,1v20.1
		C112.6,58.9,112.2,59.4,111.6,59.4z"/>
</g>
<g id="XMLID_5534_">
	<path id="XMLID_5553_" class="st4" d="M86.5,79V63.1c0-0.6,0.5-1,1-1h24c0.6,0,1,0.5,1,1V79"/>
</g>
<g id="XMLID_5532_">
	<path id="XMLID_5555_" class="st4" d="M27.6,79V38.7c0-0.8,0.7-1.5,1.5-1.5h52.7c0.8,0,1.5,0.7,1.5,1.5V79"/>
</g>
</svg>
