<?xml version="1.0" encoding="utf-8"?>
<!-- Generator: Adobe Illustrator 19.1.0, SVG Export Plug-In . SVG Version: 6.00 Build 0)  -->
<svg version="1.1" id="Layer_1" xmlns="http://www.w3.org/2000/svg" xmlns:xlink="http://www.w3.org/1999/xlink" x="0px" y="0px"
	 viewBox="0 0 162.2 87.2" style="enable-background:new 0 0 162.2 87.2;" xml:space="preserve">
<style type="text/css">
	.st0{fill:#59595B;}
	.st1{fill:#E9E9E9;}
	.st2{fill:#7D8189;}
	.st3{fill:#A5A7A9;}
	.st4{fill:#C6CDD1;}
	.st5{fill:#FFFFFF;}
	.st6{fill:#179F8D;}
	.st7{fill:none;stroke:#B2B2B9;stroke-width:0.5;stroke-miterlimit:10;}
	.st8{fill:#272727;}
</style>
<g id="XMLID_4459_">
	<path id="XMLID_4465_" class="st0" d="M139,0H23.4c-1.6,0-2.9,1.3-2.9,2.9v77h121.4v-77C141.9,1.3,140.6,0,139,0z"/>
	<rect id="XMLID_4464_" x="25.9" y="5" class="st1" width="110.8" height="71.2"/>
	<polygon id="XMLID_4463_" class="st2" points="155,87.2 7.3,87.2 0,84.5 162.2,84.5 	"/>
	<rect id="XMLID_4462_" x="67.9" y="79.9" class="st3" width="26.3" height="2.7"/>
	<path id="XMLID_4460_" class="st4" d="M92.1,79.9v1c0,0.7-0.5,1.2-1.2,1.2H71.2c-0.7,0-1.2-0.5-1.2-1.2v-1H0v4.5h162.2v-4.5H92.1z"
		/>
</g>
<rect id="XMLID_5560_" x="25.9" y="5" class="st5" width="110.8" height="22.3"/>
<rect id="XMLID_5559_" x="38.7" y="7.2" class="st6" width="85.3" height="8.8"/>
<line id="XMLID_5558_" class="st7" x1="38.7" y1="17.7" x2="124" y2="17.7"/>
<rect id="XMLID_5557_" x="25.9" y="22" class="st8" width="110.8" height="5.2"/>
<rect id="XMLID_5556_" x="25.9" y="27.2" class="st5" width="110.8" height="2.6"/>
<g id="XMLID_5547_">
	<path id="XMLID_5568_" class="st5" d="M123,59.9H98.8c-0.6,0-1.1-0.5-1.1-1.1V38.7c0-0.6,0.5-1.1,1.1-1.1H123
		c0.6,0,1.1,0.5,1.1,1.1v20.1C124,59.4,123.5,59.9,123,59.9z"/>
</g>
<g id="XMLID_5543_">
	<path id="XMLID_5569_" class="st5" d="M97.8,76.2V63.6c0-0.6,0.5-1.1,1.1-1.1H123c0.6,0,1.1,0.5,1.1,1.1v12.6"/>
</g>
<g id="XMLID_4446_">
	<path id="XMLID_5567_" class="st5" d="M38.8,76.2V39.1c0-0.8,0.7-1.5,1.5-1.5h52.9c0.8,0,1.5,0.7,1.5,1.5v37.1"/>
</g>
</svg>
