<?xml version="1.0" encoding="utf-8"?>
<!-- Generator: Adobe Illustrator 19.1.0, SVG Export Plug-In . SVG Version: 6.00 Build 0)  -->
<svg version="1.1" id="Layer_1" xmlns="http://www.w3.org/2000/svg" xmlns:xlink="http://www.w3.org/1999/xlink" x="0px" y="0px"
	 viewBox="0 0 149 149" style="enable-background:new 0 0 149 149;" xml:space="preserve">
<style type="text/css">
	.st0{fill:none;stroke:#179F8D;stroke-width:2;stroke-miterlimit:10;}
	.st1{fill:#179F8D;}
</style>
<g id="XMLID_5801_">
	<circle id="XMLID_5802_" class="st0" cx="74.5" cy="74.5" r="73.5"/>
	<g id="XMLID_5803_">
		<path id="XMLID_5804_" class="st1" d="M83.6,83.2v6.1c0,1.9-1.5,3.4-3.4,3.4H59.7c-1.9,0-3.4-1.5-3.4-3.4V68.8
			c0-1.9,1.5-3.4,3.4-3.4h6.3l5.5-5.5H59.7c-4.9,0-8.9,4-8.9,8.9v20.5c0,4.9,4,8.9,8.9,8.9h20.5c4.9,0,8.9-4,8.9-8.9V77.7L83.6,83.2
			z M83.6,83.2"/>
		<path id="XMLID_5807_" class="st1" d="M92,50.8H73.3c-3.4,0-3.2,0.9-1.4,2.7l5.9,5.9L67.7,69.5c-2.1,2.1-2.1,5.5,0,7.6l4.4,4.4
			c2.1,2.1,5.5,2.1,7.6,0l10.1-10.1l5.8,5.8c2,2,2.8,2.1,2.8-1.4V57C98.2,50.7,98.3,50.8,92,50.8L92,50.8z M92,50.8"/>
	</g>
</g>
</svg>
