<?xml version="1.0" encoding="utf-8"?>
<!-- Generator: Adobe Illustrator 19.1.0, SVG Export Plug-In . SVG Version: 6.00 Build 0)  -->
<svg version="1.1" id="Layer_1" xmlns="http://www.w3.org/2000/svg" xmlns:xlink="http://www.w3.org/1999/xlink" x="0px" y="0px"
	 viewBox="0 0 149 149" style="enable-background:new 0 0 149 149;" xml:space="preserve">
<style type="text/css">
	.st0{fill:none;stroke:#179F8D;stroke-width:2;stroke-miterlimit:10;}
	.st1{fill:#179F8D;}
	.st2{fill:#FFFFFF;}
</style>
<g id="XMLID_5784_">
	<circle id="XMLID_5785_" class="st0" cx="74.5" cy="74.5" r="73.5"/>
	<g id="XMLID_5786_">
		<path id="XMLID_5787_" class="st1" d="M88.3,55.9c0,7.6-6.2,13.8-13.8,13.8c-7.6,0-13.8-6.2-13.8-13.8c0-7.6,6.2-13.8,13.8-13.8
			C82.1,42.1,88.3,48.3,88.3,55.9L88.3,55.9z M88.3,55.9"/>
		<path id="XMLID_5790_" class="st1" d="M80.3,70.6H68.7c-9.7,0-17.6,7.9-17.6,17.6v14.3l0,0.2l1,0.3c9.3,2.9,17.3,3.9,24,3.9
			c13,0,20.5-3.7,20.9-3.9l0.9-0.5H98V88.2C98,78.5,90.1,70.6,80.3,70.6L80.3,70.6z"/>
		<path id="XMLID_5791_" class="st2" d="M77.2,98.3l-2.5,3.7c0,0.1-0.1,0.1-0.1,0.1h0c-0.1,0-0.1,0-0.1-0.1l-2.3-3.7
			c0,0,0-0.1,0-0.1l1.2-17.9c0-0.1,0.1-0.2,0.2-0.2h2.4c0.1,0,0.2,0.1,0.2,0.2l1.3,17.9C77.3,98.2,77.2,98.3,77.2,98.3L77.2,98.3z"
			/>
		<path id="XMLID_5792_" class="st2" d="M76.1,79.6h-2.9l-2.5-5.2c0-0.5,0.4-0.9,0.9-0.9h6c0.5,0,0.9,0.4,0.9,0.9L76.1,79.6z"/>
	</g>
</g>
</svg>
