<?xml version="1.0" encoding="utf-8"?>
<!-- Generator: Adobe Illustrator 19.1.0, SVG Export Plug-In . SVG Version: 6.00 Build 0)  -->
<svg version="1.1" id="Layer_1" xmlns="http://www.w3.org/2000/svg" xmlns:xlink="http://www.w3.org/1999/xlink" x="0px" y="0px"
	 viewBox="0 0 149 149" style="enable-background:new 0 0 149 149;" xml:space="preserve">
<style type="text/css">
	.st0{fill:none;stroke:#179F8D;stroke-width:2;stroke-miterlimit:10;}
	.st1{fill:#179F8D;}
</style>
<g id="XMLID_5794_">
	<circle id="XMLID_5795_" class="st0" cx="74.5" cy="74.5" r="73.5"/>
	<g id="XMLID_5796_">
		<path id="XMLID_5797_" class="st1" d="M89.9,55.9c0,7.6-6.2,13.8-13.8,13.8c-7.6,0-13.8-6.2-13.8-13.8c0-7.6,6.2-13.8,13.8-13.8
			C83.7,42.1,89.9,48.3,89.9,55.9L89.9,55.9z M89.9,55.9"/>
		<path id="XMLID_5800_" class="st1" d="M81.9,70.6H70.2c-9.7,0-17.6,7.9-17.6,17.6v14.3l0,0.2l1,0.3c9.3,2.9,17.3,3.9,24,3.9
			c13,0,20.5-3.7,20.9-3.9l0.9-0.5h0.1V88.2C99.6,78.5,91.6,70.6,81.9,70.6L81.9,70.6z"/>
	</g>
</g>
</svg>
