<?xml version="1.0" encoding="utf-8"?>
<!-- Generator: Adobe Illustrator 19.1.0, SVG Export Plug-In . SVG Version: 6.00 Build 0)  -->
<svg version="1.1" id="Layer_1" xmlns="http://www.w3.org/2000/svg" xmlns:xlink="http://www.w3.org/1999/xlink" x="0px" y="0px"
	 viewBox="0 0 30.5 64.2" style="enable-background:new 0 0 30.5 64.2;" xml:space="preserve">
<style type="text/css">
	.st0{fill:#59595B;}
	.st1{fill:#E9E9E9;}
	.st2{fill:#808082;}
	.st3{fill:#FFFFFF;}
	.st4{fill:#179F8D;}
	.st5{fill:none;stroke:#B2B2B9;stroke-width:0.5;stroke-miterlimit:10;}
	.st6{fill:#272727;}
</style>
<g id="XMLID_4454_">
	<g id="XMLID_4457_">
		<path id="XMLID_4458_" class="st0" d="M30.5,59.4c0,2.6-2.1,4.7-4.7,4.7h-21C2.1,64.2,0,62,0,59.4V4.7C0,2.1,2.1,0,4.7,0h21
			c2.6,0,4.7,2.1,4.7,4.7V59.4z"/>
	</g>
	<rect id="XMLID_4456_" x="2.2" y="8.8" class="st1" width="26" height="46.9"/>
	<circle id="XMLID_4455_" class="st2" cx="15.2" cy="59.5" r="2.1"/>
</g>
<rect id="XMLID_4451_" x="2.2" y="8.8" class="st3" width="26" height="9.9"/>
<rect id="XMLID_4374_" x="4.7" y="9.8" class="st4" width="21.2" height="3.9"/>
<line id="XMLID_4050_" class="st5" x1="4.7" y1="14.4" x2="25.9" y2="14.4"/>
<rect id="XMLID_3991_" x="2.2" y="16.3" class="st6" width="26" height="2.3"/>
<rect id="XMLID_3988_" x="2.2" y="18.6" class="st3" width="26" height="1.2"/>
<g id="XMLID_257_">
	<path id="XMLID_5589_" class="st3" d="M25.3,41.3h-20c-0.3,0-0.6-0.3-0.6-0.6V23.9c0-0.3,0.3-0.6,0.6-0.6h20c0.3,0,0.6,0.3,0.6,0.6
		v16.8C25.9,41.1,25.6,41.3,25.3,41.3z"/>
</g>
<g id="XMLID_3974_">
	<path id="XMLID_5399_" class="st3" d="M4.7,55.7V44.2c0-0.3,0.3-0.6,0.6-0.6h20c0.3,0,0.6,0.3,0.6,0.6v11.5"/>
</g>
</svg>
