<?xml version="1.0" encoding="UTF-8" standalone="no"?>
<!-- Created with Inkscape (http://www.inkscape.org/) -->

<svg
   xmlns:dc="http://purl.org/dc/elements/1.1/"
   xmlns:cc="http://creativecommons.org/ns#"
   xmlns:rdf="http://www.w3.org/1999/02/22-rdf-syntax-ns#"
   xmlns:svg="http://www.w3.org/2000/svg"
   xmlns="http://www.w3.org/2000/svg"
   xmlns:sodipodi="http://sodipodi.sourceforge.net/DTD/sodipodi-0.dtd"
   xmlns:inkscape="http://www.inkscape.org/namespaces/inkscape"
   width="50.530125mm"
   height="30.197779mm"
   viewBox="0 0 179.04375 107"
   id="svg12050"
   version="1.1"
   inkscape:version="0.91 r13725"
   sodipodi:docname="primarni_foot.svg">
  <defs
     id="defs12052" />
  <sodipodi:namedview
     id="base"
     pagecolor="#ffffff"
     bordercolor="#666666"
     borderopacity="1.0"
     inkscape:pageopacity="0.0"
     inkscape:pageshadow="2"
     inkscape:zoom="2.8"
     inkscape:cx="46.836458"
     inkscape:cy="11.639375"
     inkscape:document-units="px"
     inkscape:current-layer="layer1"
     showgrid="false"
     fit-margin-top="0"
     fit-margin-left="0"
     fit-margin-right="0"
     fit-margin-bottom="0"
     inkscape:snap-object-midpoints="true"
     inkscape:snap-center="true"
     inkscape:window-width="1600"
     inkscape:window-height="826"
     inkscape:window-x="0"
     inkscape:window-y="21"
     inkscape:window-maximized="1" />
  <metadata
     id="metadata12055">
    <rdf:RDF>
      <cc:Work
         rdf:about="">
        <dc:format>image/svg+xml</dc:format>
        <dc:type
           rdf:resource="http://purl.org/dc/dcmitype/StillImage" />
        <dc:title></dc:title>
      </cc:Work>
    </rdf:RDF>
  </metadata>
  <g
     inkscape:label="Layer 1"
     inkscape:groupmode="layer"
     id="layer1"
     transform="translate(-130.47813,-256.00506)">
    <g
       id="g7800"
       transform="matrix(1.25,0,0,-1.25,321.40076,378.99562)">
      <path
         d="m -9.503104,15.792445 c 0,-1.649 -1.35,-3 -3,-3 l -137.234996,0 c -1.65,0 -3,1.351 -3,3 l 0,79.6 c 0,1.65 1.35,3 3,3 l 137.234996,0 c 1.65,0 3,-1.35 3,-3 l 0,-79.6 z"
         style="fill:#00b496;fill-opacity:1;fill-rule:nonzero;stroke:none"
         id="path7802"
         inkscape:connector-curvature="0" />
    </g>
    <g
       id="g12451">
      <g
         style="font-variant:normal;font-weight:normal;font-stretch:normal;font-size:20px;font-family:Roboto;-inkscape-font-specification:Roboto-Regular;writing-mode:lr-tb;fill:#ffffff;fill-opacity:1;fill-rule:nonzero;stroke:none"
         id="text8100">
        <path
           d="m 172.37137,289.76874 q 1.41601,0.30273 2.20703,1.25976 0.80078,0.95703 0.80078,2.36328 0,2.15821 -1.48437,3.33985 -1.48438,1.18164 -4.21875,1.18164 -0.91797,0 -1.89454,-0.18555 -0.96679,-0.17578 -2.00195,-0.53711 l 0,-1.90429 q 0.82031,0.47851 1.79688,0.72265 0.97656,0.24414 2.04101,0.24414 1.85547,0 2.82227,-0.73242 0.97656,-0.73242 0.97656,-2.12891 0,-1.28906 -0.9082,-2.01171 -0.89844,-0.73243 -2.50977,-0.73243 l -1.69922,0 0,-1.62109 1.77735,0 q 1.45507,0 2.22656,-0.57617 0.77148,-0.58594 0.77148,-1.67969 0,-1.12305 -0.80078,-1.71875 -0.79101,-0.60547 -2.27539,-0.60547 -0.81055,0 -1.73828,0.17578 -0.92773,0.17578 -2.04102,0.54688 l 0,-1.75781 q 1.12305,-0.3125 2.09961,-0.46875 0.98633,-0.15625 1.85547,-0.15625 2.2461,0 3.55469,1.02539 1.30859,1.01562 1.30859,2.7539 0,1.21094 -0.69336,2.05078 -0.69335,0.83008 -1.97265,1.15235 z"
           style=""
           id="path12494" />
        <path
           d="m 181.87355,284.34882 q -1.52344,0 -2.29492,1.5039 -0.76172,1.49414 -0.76172,4.50196 0,2.99804 0.76172,4.50195 0.77148,1.49414 2.29492,1.49414 1.5332,0 2.29492,-1.49414 0.77149,-1.50391 0.77149,-4.50195 0,-3.00782 -0.77149,-4.50196 -0.76172,-1.5039 -2.29492,-1.5039 z m 0,-1.5625 q 2.45117,0 3.74023,1.94336 1.29883,1.93359 1.29883,5.625 0,3.68164 -1.29883,5.625 -1.28906,1.93359 -3.74023,1.93359 -2.45117,0 -3.75,-1.93359 -1.28906,-1.94336 -1.28906,-5.625 0,-3.69141 1.28906,-5.625 1.29883,-1.94336 3.75,-1.94336 z"
           style=""
           id="path12496" />
        <path
           d="m 193.13356,284.34882 q -1.52344,0 -2.29492,1.5039 -0.76172,1.49414 -0.76172,4.50196 0,2.99804 0.76172,4.50195 0.77148,1.49414 2.29492,1.49414 1.5332,0 2.29492,-1.49414 0.77149,-1.50391 0.77149,-4.50195 0,-3.00782 -0.77149,-4.50196 -0.76172,-1.5039 -2.29492,-1.5039 z m 0,-1.5625 q 2.45117,0 3.74023,1.94336 1.29883,1.93359 1.29883,5.625 0,3.68164 -1.29883,5.625 -1.28906,1.93359 -3.74023,1.93359 -2.45117,0 -3.75,-1.93359 -1.28906,-1.94336 -1.28906,-5.625 0,-3.69141 1.28906,-5.625 1.29883,-1.94336 3.75,-1.94336 z"
           style=""
           id="path12498" />
        <path
           d="m 204.97902,283.04999 1.97266,0 0,6.16211 6.54296,-6.16211 2.53907,0 -7.23633,6.79687 7.7539,7.78321 -2.59765,0 -7.00195,-7.02149 0,7.02149 -1.97266,0 0,-14.58008 z"
           style=""
           id="path12500" />
        <path
           d="m 217.83904,283.04999 2.93945,0 3.7207,9.92187 3.74024,-9.92187 2.93945,0 0,14.58008 -1.92383,0 0,-12.80274 -3.75976,10 -1.98243,0 -3.75976,-10 0,12.80274 -1.91406,0 0,-14.58008 z"
           style=""
           id="path12502" />
      </g>
      <g
         style="font-variant:normal;font-weight:normal;font-stretch:normal;font-size:15px;font-family:Roboto;-inkscape-font-specification:Roboto-Regular;writing-mode:lr-tb;fill:#ffffff;fill-opacity:1;fill-rule:nonzero;stroke:none"
         id="text8104">
        <path
           d="m 245.32124,288.22577 0,4.07959 4.07959,0 0,1.24512 -4.07959,0 0,4.07959 -1.23047,0 0,-4.07959 -4.07959,0 0,-1.24512 4.07959,0 0,-4.07959 1.23047,0 z"
           style=""
           id="path12505" />
        <path
           d="m 253.61349,287.91083 0,4.10888 1.86036,0 q 1.03271,0 1.59668,-0.53466 0.56396,-0.53467 0.56396,-1.52344 0,-0.98145 -0.56396,-1.51611 -0.56397,-0.53467 -1.59668,-0.53467 l -1.86036,0 z m -1.47949,-1.21582 3.33985,0 q 1.83838,0 2.77588,0.83496 0.94482,0.82763 0.94482,2.43164 0,1.61865 -0.94482,2.44629 -0.9375,0.82763 -2.77588,0.82763 l -1.86036,0 0,4.39454 -1.47949,0 0,-10.93506 z"
           style=""
           id="path12507" />
        <path
           d="m 263.22849,287.91083 0,8.50342 1.7871,0 q 2.26319,0 3.31055,-1.0254 1.05469,-1.02539 1.05469,-3.2373 0,-2.19727 -1.05469,-3.21533 -1.04736,-1.02539 -3.31055,-1.02539 l -1.7871,0 z m -1.4795,-1.21582 3.03955,0 q 3.17871,0 4.66553,1.32568 1.48682,1.31836 1.48682,4.13086 0,2.82715 -1.49414,4.15283 -1.49414,1.32569 -4.65821,1.32569 l -3.03955,0 0,-10.93506 z"
           style=""
           id="path12509" />
        <path
           d="m 274.28131,297.63007 -4.1748,-10.93506 1.54541,0 3.46435,9.20654 3.47168,-9.20654 1.53809,0 -4.16748,10.93506 -1.67725,0 z"
           style=""
           id="path12511" />
      </g>
      <g
         style="font-variant:normal;font-weight:bold;font-stretch:normal;font-size:20px;font-family:Roboto;-inkscape-font-specification:Roboto-Bold;writing-mode:lr-tb;fill:#ffffff;fill-opacity:1;fill-rule:nonzero;stroke:none"
         id="text8108">
        <path
           d="m 149.9059,322.13785 9.3457,0 0,2.76367 -6.34765,0 0,2.25586 q 0.42968,-0.11719 0.85937,-0.17578 0.43945,-0.0684 0.9082,-0.0684 2.66602,0 4.15039,1.33789 1.48438,1.32812 1.48438,3.71094 0,2.36328 -1.62109,3.70117 -1.61133,1.33789 -4.48243,1.33789 -1.24023,0 -2.46093,-0.24414 -1.21094,-0.23438 -2.41211,-0.72266 l 0,-2.95898 q 1.1914,0.68359 2.25586,1.02539 1.07422,0.3418 2.02148,0.3418 1.36719,0 2.14844,-0.66407 0.79101,-0.67383 0.79101,-1.8164 0,-1.15235 -0.79101,-1.81641 -0.78125,-0.66406 -2.14844,-0.66406 -0.81055,0 -1.72851,0.21484 -0.91797,0.20508 -1.97266,0.64453 l 0,-8.20312 z"
           style=""
           id="path12466" />
        <path
           d="m 168.46599,329.41324 q 0,-2.73438 -0.51758,-3.84766 -0.50781,-1.12304 -1.71875,-1.12304 -1.21094,0 -1.72852,1.12304 -0.51757,1.11328 -0.51757,3.84766 0,2.76367 0.51757,3.89648 0.51758,1.13282 1.72852,1.13282 1.20117,0 1.71875,-1.13282 0.51758,-1.13281 0.51758,-3.89648 z m 3.75976,0.0293 q 0,3.62304 -1.5625,5.5957 -1.5625,1.96289 -4.43359,1.96289 -2.88086,0 -4.44336,-1.96289 -1.5625,-1.97266 -1.5625,-5.5957 0,-3.63282 1.5625,-5.59571 1.5625,-1.97265 4.44336,-1.97265 2.87109,0 4.43359,1.97265 1.5625,1.96289 1.5625,5.59571 z"
           style=""
           id="path12468" />
        <path
           d="m 177.5627,322.13785 3.75976,0 0,5.32226 5.41993,-5.32226 4.36523,0 -7.02148,6.90429 7.74414,7.67579 -4.70703,0 -5.80079,-5.74219 0,5.74219 -3.75976,0 0,-14.58008 z"
           style=""
           id="path12470" />
        <path
           d="m 190.4827,322.13785 4.78515,0 3.32032,7.80273 3.33984,-7.80273 4.77539,0 0,14.58008 -3.55469,0 0,-10.66407 -3.35937,7.86133 -2.38282,0 -3.35937,-7.86133 0,10.66407 -3.56445,0 0,-14.58008 z"
           style=""
           id="path12472" />
      </g>
      <g
         style="font-variant:normal;font-weight:normal;font-stretch:normal;font-size:17.5px;font-family:Roboto;-inkscape-font-specification:Roboto-Regular;writing-mode:lr-tb;fill:#ffffff;fill-opacity:1;fill-rule:nonzero;stroke:none"
         id="text8112">
        <path
           d="m 214.4594,322.5318 1.45263,0 -4.44336,14.3811 -1.45263,0 4.44336,-14.3811 z"
           style=""
           id="path12475" />
        <path
           d="m 226.37888,327.55621 q 0.5896,-1.05957 1.40991,-1.56372 0.82031,-0.50415 1.93115,-0.50415 1.49536,0 2.30713,1.05103 0.81177,1.04248 0.81177,2.97363 l 0,5.77637 -1.58081,0 0,-5.7251 q 0,-1.37573 -0.48706,-2.04224 -0.48706,-0.6665 -1.48682,-0.6665 -1.22192,0 -1.93115,0.81177 -0.70923,0.81176 -0.70923,2.21313 l 0,5.40894 -1.58081,0 0,-5.7251 q 0,-1.38428 -0.48706,-2.04224 -0.48706,-0.6665 -1.50391,-0.6665 -1.20483,0 -1.91406,0.82031 -0.70923,0.81177 -0.70923,2.20459 l 0,5.40894 -1.58081,0 0,-9.57031 1.58081,0 0,1.48681 q 0.53833,-0.88013 1.29028,-1.29883 0.75196,-0.4187 1.78589,-0.4187 1.04248,0 1.7688,0.52979 0.73486,0.52978 1.08521,1.53808 z"
           style=""
           id="path12477" />
        <path
           d="m 234.2227,325.71906 1.57227,0 0,9.74121 q 0,1.82861 -0.70069,2.64892 -0.69213,0.82031 -2.23877,0.82031 l -0.59814,0 0,-1.333 0.4187,0 q 0.89722,0 1.22192,-0.4187 0.32471,-0.41016 0.32471,-1.71753 l 0,-9.74121 z m 0,-3.72559 1.57227,0 0,1.99097 -1.57227,0 0,-1.99097 z"
           style=""
           id="path12479" />
        <path
           d="m 246.94124,330.11115 0,0.76904 -7.22901,0 q 0.10254,1.62353 0.97413,2.47803 0.88012,0.84594 2.44384,0.84594 0.90576,0 1.75171,-0.22217 0.85449,-0.22216 1.6919,-0.6665 l 0,1.48682 q -0.84595,0.35888 -1.73462,0.54687 -0.88867,0.18799 -1.80298,0.18799 -2.29004,0 -3.63159,-1.33301 -1.33301,-1.33301 -1.33301,-3.60595 0,-2.34986 1.26465,-3.72559 1.27319,-1.38428 3.42651,-1.38428 1.93115,0 3.05054,1.24756 1.12793,1.23901 1.12793,3.37525 z m -1.57227,-0.46143 q -0.0171,-1.29028 -0.72632,-2.05933 -0.70068,-0.76904 -1.86279,-0.76904 -1.31592,0 -2.11059,0.74341 -0.78614,0.74341 -0.90577,2.0935 l 5.60547,-0.009 z"
           style=""
           id="path12481" />
        <path
           d="m 254.11378,326.00104 0,1.48681 q -0.6665,-0.34179 -1.38427,-0.51269 -0.71778,-0.1709 -1.48682,-0.1709 -1.17065,0 -1.76025,0.35889 -0.58106,0.35888 -0.58106,1.07666 0,0.54687 0.4187,0.86303 0.4187,0.30762 1.68335,0.5896 l 0.53833,0.11963 q 1.67481,0.35889 2.37549,1.01685 0.70923,0.64941 0.70923,1.82007 0,1.333 -1.05957,2.11059 -1.05103,0.77759 -2.89673,0.77759 -0.76904,0 -1.60644,-0.15381 -0.82886,-0.14526 -1.75171,-0.44433 l 0,-1.62354 q 0.87158,0.45288 1.71753,0.68359 0.84594,0.22217 1.6748,0.22217 1.11084,0 1.70899,-0.37597 0.59814,-0.38453 0.59814,-1.07666 0,-0.64087 -0.43579,-0.98267 -0.42725,-0.3418 -1.88843,-0.65796 l -0.54687,-0.12817 q -1.46119,-0.30762 -2.1106,-0.93994 -0.64941,-0.64087 -0.64941,-1.75171 0,-1.3501 0.95703,-2.08496 0.95703,-0.73487 2.71728,-0.73487 0.87158,0 1.64063,0.12818 0.76904,0.12817 1.41845,0.38452 z"
           style=""
           id="path12483" />
        <path
           d="m 265.35124,330.11115 0,0.76904 -7.229,0 q 0.10254,1.62353 0.97412,2.47803 0.88013,0.84594 2.44385,0.84594 0.90576,0 1.75171,-0.22217 0.85449,-0.22216 1.69189,-0.6665 l 0,1.48682 q -0.84595,0.35888 -1.73462,0.54687 -0.88867,0.18799 -1.80298,0.18799 -2.29004,0 -3.63159,-1.33301 -1.33301,-1.33301 -1.33301,-3.60595 0,-2.34986 1.26465,-3.72559 1.27319,-1.38428 3.42652,-1.38428 1.93115,0 3.05053,1.24756 1.12793,1.23901 1.12793,3.37525 z m -1.57226,-0.46143 q -0.0171,-1.29028 -0.72632,-2.05933 -0.70069,-0.76904 -1.86279,-0.76904 -1.31592,0 -2.1106,0.74341 -0.78613,0.74341 -0.90576,2.0935 l 5.60547,-0.009 z"
           style=""
           id="path12485" />
        <path
           d="m 273.30991,326.08649 0,1.46972 q -0.66651,-0.36743 -1.34156,-0.54687 -0.6665,-0.18799 -1.35009,-0.18799 -1.52955,0 -2.37549,0.97412 -0.84595,0.96558 -0.84595,2.71729 0,1.75171 0.84595,2.72583 0.84594,0.96557 2.37549,0.96557 0.68359,0 1.35009,-0.17944 0.67505,-0.18799 1.34156,-0.55542 l 0,1.45264 q -0.65796,0.30761 -1.36719,0.46142 -0.70069,0.15381 -1.49536,0.15381 -2.16187,0 -3.43506,-1.35864 -1.27319,-1.35864 -1.27319,-3.66577 0,-2.34131 1.28173,-3.68286 1.29029,-1.34156 3.52906,-1.34156 0.72631,0 1.41845,0.15381 0.69214,0.14526 1.34156,0.44434 z m -3.62305,-1.58081 -2.09351,-3.21289 1.18775,0 1.53808,2.0935 1.53809,-2.0935 1.18774,0 -2.0935,3.21289 -1.26465,0 z"
           style=""
           id="path12487" />
        <path
           d="m 283.67053,329.513 0,5.77637 -1.57226,0 0,-5.7251 q 0,-1.35864 -0.52979,-2.03369 -0.52978,-0.67505 -1.58935,-0.67505 -1.2732,0 -2.00806,0.81177 -0.73486,0.81176 -0.73486,2.21313 l 0,5.40894 -1.58081,0 0,-9.57031 1.58081,0 0,1.48681 q 0.56396,-0.86304 1.32446,-1.29028 0.76904,-0.42725 1.7688,-0.42725 1.64917,0 2.49511,1.02539 0.84595,1.01685 0.84595,2.99927 z"
           style=""
           id="path12489" />
        <path
           d="m 289.36371,326.82135 q -1.26465,0 -1.99951,0.99121 -0.73487,0.98267 -0.73487,2.7002 0,1.71753 0.72632,2.70874 0.73487,0.98266 2.00806,0.98266 1.2561,0 1.99097,-0.99121 0.73486,-0.99121 0.73486,-2.70019 0,-1.70044 -0.73486,-2.69165 -0.73487,-0.99976 -1.99097,-0.99976 z m 0,-1.33301 q 2.05078,0 3.22143,1.33301 1.17066,1.33301 1.17066,3.69141 0,2.34985 -1.17066,3.6914 -1.17065,1.33301 -3.22143,1.33301 -2.05933,0 -3.22998,-1.33301 -1.16211,-1.34155 -1.16211,-3.6914 0,-2.3584 1.16211,-3.69141 1.17065,-1.33301 3.22998,-1.33301 z"
           style=""
           id="path12491" />
      </g>
      <g
         style="font-variant:normal;font-weight:normal;font-stretch:normal;font-size:15px;font-family:Roboto;-inkscape-font-specification:Roboto-Regular;writing-mode:lr-tb;fill:#ffffff;fill-opacity:1;fill-rule:nonzero;stroke:none"
         id="text8116">
        <path
           d="m 209.20305,343.88498 0,4.07959 4.07959,0 0,1.24512 -4.07959,0 0,4.07959 -1.23047,0 0,-4.07959 -4.07959,0 0,-1.24512 4.07959,0 0,-4.07959 1.23047,0 z"
           style=""
           id="path12514" />
        <path
           d="m 217.4953,343.57004 0,4.10888 1.86035,0 q 1.03272,0 1.59668,-0.53466 0.56397,-0.53467 0.56397,-1.52344 0,-0.98145 -0.56397,-1.51611 -0.56396,-0.53467 -1.59668,-0.53467 l -1.86035,0 z m -1.47949,-1.21582 3.33984,0 q 1.83838,0 2.77588,0.83496 0.94482,0.82764 0.94482,2.43164 0,1.61865 -0.94482,2.44629 -0.9375,0.82763 -2.77588,0.82763 l -1.86035,0 0,4.39454 -1.47949,0 0,-10.93506 z"
           style=""
           id="path12516" />
        <path
           d="m 227.11029,343.57004 0,8.50342 1.78711,0 q 2.26318,0 3.31055,-1.02539 1.05468,-1.0254 1.05468,-3.23731 0,-2.19727 -1.05468,-3.21533 -1.04737,-1.02539 -3.31055,-1.02539 l -1.78711,0 z m -1.47949,-1.21582 3.03955,0 q 3.17871,0 4.66553,1.32568 1.48681,1.31836 1.48681,4.13086 0,2.82715 -1.49414,4.15283 -1.49414,1.32569 -4.6582,1.32569 l -3.03955,0 0,-10.93506 z"
           style=""
           id="path12518" />
        <path
           d="m 238.16313,353.28928 -4.1748,-10.93506 1.54541,0 3.46435,9.20654 3.47168,-9.20654 1.53809,0 -4.16748,10.93506 -1.67725,0 z"
           style=""
           id="path12520" />
      </g>
      <g
         transform="matrix(1.25,0,0,-1.25,137.45313,309.50506)"
         id="g8148">
        <path
           inkscape:connector-curvature="0"
           id="path8150"
           style="fill:#000000;fill-opacity:1;fill-rule:nonzero;stroke:#ffffff;stroke-width:1;stroke-linecap:butt;stroke-linejoin:miter;stroke-miterlimit:10;stroke-dasharray:none;stroke-opacity:1"
           d="M 0,0 132.075,0" />
      </g>
    </g>
  </g>
</svg>
