<?xml version="1.0" encoding="UTF-8" standalone="no"?>
<!-- Created with Inkscape (http://www.inkscape.org/) -->

<svg
   xmlns:dc="http://purl.org/dc/elements/1.1/"
   xmlns:cc="http://creativecommons.org/ns#"
   xmlns:rdf="http://www.w3.org/1999/02/22-rdf-syntax-ns#"
   xmlns:svg="http://www.w3.org/2000/svg"
   xmlns="http://www.w3.org/2000/svg"
   xmlns:sodipodi="http://sodipodi.sourceforge.net/DTD/sodipodi-0.dtd"
   xmlns:inkscape="http://www.inkscape.org/namespaces/inkscape"
   width="50.530125mm"
   height="30.197779mm"
   viewBox="0 0 179.04375 107"
   id="svg12050"
   version="1.1"
   inkscape:version="0.91 r13725"
   sodipodi:docname="promo_foot.svg">
  <defs
     id="defs12052" />
  <sodipodi:namedview
     id="base"
     pagecolor="#ffffff"
     bordercolor="#666666"
     borderopacity="1.0"
     inkscape:pageopacity="0.0"
     inkscape:pageshadow="2"
     inkscape:zoom="2.8"
     inkscape:cx="46.836458"
     inkscape:cy="11.639375"
     inkscape:document-units="px"
     inkscape:current-layer="layer1"
     showgrid="false"
     fit-margin-top="0"
     fit-margin-left="0"
     fit-margin-right="0"
     fit-margin-bottom="0"
     inkscape:snap-object-midpoints="true"
     inkscape:snap-center="true"
     inkscape:window-width="1600"
     inkscape:window-height="826"
     inkscape:window-x="0"
     inkscape:window-y="21"
     inkscape:window-maximized="1" />
  <metadata
     id="metadata12055">
    <rdf:RDF>
      <cc:Work
         rdf:about="">
        <dc:format>image/svg+xml</dc:format>
        <dc:type
           rdf:resource="http://purl.org/dc/dcmitype/StillImage" />
        <dc:title></dc:title>
      </cc:Work>
    </rdf:RDF>
  </metadata>
  <g
     inkscape:label="Layer 1"
     inkscape:groupmode="layer"
     id="layer1"
     transform="translate(-130.47813,-256.00506)">
    <g
       id="g7800"
       transform="matrix(1.25,0,0,-1.25,309.52188,359.25506)">
      <path
         d="m 0,0 c 0,-1.649 -1.35,-3 -3,-3 l -137.235,0 c -1.65,0 -3,1.351 -3,3 l 0,79.6 c 0,1.65 1.35,3 3,3 L -3,82.6 c 1.65,0 3,-1.35 3,-3 L 0,0 Z"
         style="fill:#82559b;fill-opacity:1;fill-rule:nonzero;stroke:none"
         id="path7802"
         inkscape:connector-curvature="0" />
    </g>
    <g
       id="g12201"
       transform="translate(94.521878,-61.72407)">
      <g
         style="font-variant:normal;font-weight:normal;font-stretch:normal;font-size:20px;font-family:Roboto;-inkscape-font-specification:Roboto-Regular;writing-mode:lr-tb;fill:#ffffff;fill-opacity:1;fill-rule:nonzero;stroke:none"
         id="text8076">
        <path
           d="m 74.896729,370.63831 q 1.416015,0.30273 2.207031,1.25976 0.800781,0.95703 0.800781,2.36328 0,2.15821 -1.484375,3.33985 -1.484375,1.18164 -4.21875,1.18164 -0.917969,0 -1.894531,-0.18555 -0.966797,-0.17578 -2.001953,-0.53711 l 0,-1.9043 q 0.820312,0.47852 1.796875,0.72266 0.976562,0.24414 2.041015,0.24414 1.855469,0 2.822266,-0.73242 0.976562,-0.73242 0.976562,-2.12891 0,-1.28906 -0.908203,-2.01172 -0.898437,-0.73242 -2.509765,-0.73242 l -1.699219,0 0,-1.62109 1.777344,0 q 1.455078,0 2.226562,-0.57617 0.771485,-0.58594 0.771485,-1.67969 0,-1.12305 -0.800782,-1.71875 -0.791015,-0.60547 -2.27539,-0.60547 -0.810547,0 -1.738282,0.17578 -0.927734,0.17578 -2.041015,0.54688 l 0,-1.75782 q 1.123047,-0.3125 2.099609,-0.46875 0.986328,-0.15625 1.855469,-0.15625 2.246094,0 3.554687,1.02539 1.308594,1.01563 1.308594,2.75391 0,1.21094 -0.693359,2.05078 -0.69336,0.83008 -1.972656,1.15235 z"
           style=""
           id="path12227" />
        <path
           d="m 84.398911,365.21838 q -1.523438,0 -2.294922,1.50391 -0.761719,1.49414 -0.761719,4.50195 0,2.99805 0.761719,4.50196 0.771484,1.49414 2.294922,1.49414 1.533203,0 2.294921,-1.49414 0.771485,-1.50391 0.771485,-4.50196 0,-3.00781 -0.771485,-4.50195 -0.761718,-1.50391 -2.294921,-1.50391 z m 0,-1.5625 q 2.451171,0 3.740234,1.94336 1.298828,1.9336 1.298828,5.625 0,3.68164 -1.298828,5.625 -1.289063,1.9336 -3.740234,1.9336 -2.451172,0 -3.75,-1.9336 -1.289063,-1.94336 -1.289063,-5.625 0,-3.6914 1.289063,-5.625 1.298828,-1.94336 3.75,-1.94336 z"
           style=""
           id="path12229" />
        <path
           d="m 95.658905,365.21838 q -1.523437,0 -2.294922,1.50391 -0.761719,1.49414 -0.761719,4.50195 0,2.99805 0.761719,4.50196 0.771485,1.49414 2.294922,1.49414 1.533203,0 2.294922,-1.49414 0.771484,-1.50391 0.771484,-4.50196 0,-3.00781 -0.771484,-4.50195 -0.761719,-1.50391 -2.294922,-1.50391 z m 0,-1.5625 q 2.451172,0 3.740234,1.94336 1.298831,1.9336 1.298831,5.625 0,3.68164 -1.298831,5.625 -1.289062,1.9336 -3.740234,1.9336 -2.451172,0 -3.75,-1.9336 -1.289062,-1.94336 -1.289062,-5.625 0,-3.6914 1.289062,-5.625 1.298828,-1.94336 3.75,-1.94336 z"
           style=""
           id="path12231" />
        <path
           d="m 107.50438,363.91956 1.97266,0 0,6.16211 6.54296,-6.16211 2.53907,0 -7.23633,6.79687 7.7539,7.7832 -2.59765,0 -7.00195,-7.02148 0,7.02148 -1.97266,0 0,-14.58007 z"
           style=""
           id="path12233" />
        <path
           d="m 120.36438,363.91956 2.93945,0 3.72071,9.92187 3.74023,-9.92187 2.93945,0 0,14.58007 -1.92382,0 0,-12.80273 -3.75977,10 -1.98242,0 -3.75977,-10 0,12.80273 -1.91406,0 0,-14.58007 z"
           style=""
           id="path12235" />
      </g>
      <g
         style="font-variant:normal;font-weight:normal;font-stretch:normal;font-size:15px;font-family:Roboto;-inkscape-font-specification:Roboto-Regular;writing-mode:lr-tb;fill:#ffffff;fill-opacity:1;fill-rule:nonzero;stroke:none"
         id="text8080">
        <path
           d="m 147.84653,369.09534 0,4.07959 4.07959,0 0,1.24511 -4.07959,0 0,4.07959 -1.23047,0 0,-4.07959 -4.07959,0 0,-1.24511 4.07959,0 0,-4.07959 1.23047,0 z"
           style=""
           id="path12238" />
        <path
           d="m 156.13876,368.7804 0,4.10888 1.86035,0 q 1.03272,0 1.59668,-0.53467 0.56397,-0.53466 0.56397,-1.52343 0,-0.98145 -0.56397,-1.51612 -0.56396,-0.53466 -1.59668,-0.53466 l -1.86035,0 z m -1.47949,-1.21582 3.33984,0 q 1.83838,0 2.77588,0.83496 0.94483,0.82763 0.94483,2.43164 0,1.61865 -0.94483,2.44629 -0.9375,0.82763 -2.77588,0.82763 l -1.86035,0 0,4.39453 -1.47949,0 0,-10.93505 z"
           style=""
           id="path12240" />
        <path
           d="m 165.75377,368.7804 0,8.50341 1.78711,0 q 2.26318,0 3.31055,-1.02539 1.05468,-1.02539 1.05468,-3.2373 0,-2.19727 -1.05468,-3.21533 -1.04737,-1.02539 -3.31055,-1.02539 l -1.78711,0 z m -1.47949,-1.21582 3.03955,0 q 3.17871,0 4.66552,1.32568 1.48682,1.31836 1.48682,4.13086 0,2.82715 -1.49414,4.15283 -1.49414,1.32568 -4.6582,1.32568 l -3.03955,0 0,-10.93505 z"
           style=""
           id="path12242" />
        <path
           d="m 176.80659,378.49963 -4.1748,-10.93505 1.54541,0 3.46436,9.20654 3.47168,-9.20654 1.53808,0 -4.16748,10.93505 -1.67725,0 z"
           style=""
           id="path12244" />
      </g>
    </g>
  </g>
</svg>
