<?xml version="1.0" encoding="UTF-8" standalone="no"?>
<svg
   xmlns:dc="http://purl.org/dc/elements/1.1/"
   xmlns:cc="http://creativecommons.org/ns#"
   xmlns:rdf="http://www.w3.org/1999/02/22-rdf-syntax-ns#"
   xmlns:svg="http://www.w3.org/2000/svg"
   xmlns="http://www.w3.org/2000/svg"
   xmlns:sodipodi="http://sodipodi.sourceforge.net/DTD/sodipodi-0.dtd"
   xmlns:inkscape="http://www.inkscape.org/namespaces/inkscape"
   version="1.1"
   id="svg12930"
   viewBox="0 0 179.04375 108.47406"
   height="30.613791mm"
   width="50.530125mm"
   inkscape:version="0.91 r13725"
   sodipodi:docname="promo.svg">
  <sodipodi:namedview
     pagecolor="#ffffff"
     bordercolor="#666666"
     borderopacity="1"
     objecttolerance="10"
     gridtolerance="10"
     guidetolerance="10"
     inkscape:pageopacity="0"
     inkscape:pageshadow="2"
     inkscape:window-width="1600"
     inkscape:window-height="826"
     id="namedview13361"
     showgrid="false"
     inkscape:snap-object-midpoints="true"
     inkscape:snap-center="true"
     inkscape:zoom="1.7314204"
     inkscape:cx="89.521874"
     inkscape:cy="54.23703"
     inkscape:window-x="0"
     inkscape:window-y="21"
     inkscape:window-maximized="1"
     inkscape:current-layer="svg12930" />
  <defs
     id="defs12932" />
  <metadata
     id="metadata12935">
    <rdf:RDF>
      <cc:Work
         rdf:about="">
        <dc:format>image/svg+xml</dc:format>
        <dc:type
           rdf:resource="http://purl.org/dc/dcmitype/StillImage" />
        <dc:title />
      </cc:Work>
    </rdf:RDF>
  </metadata>
  <g
     transform="translate(1303.8076,290.44626)"
     id="layer1">
    <g
       transform="matrix(1.25,0,0,-1.25,-1124.7638,-209.82126)"
       id="g8160"
       style="display:inline">
      <path
         id="path8162"
         style="fill:#82559b;fill-opacity:1;fill-rule:nonzero;stroke:none"
         d="M 0,0 C 0,-1.65 -1.301,-3.359 -2.892,-3.797 L -68.726,-21.95 c -1.59,-0.439 -4.193,-0.439 -5.784,0 l -65.833,18.153 c -1.591,0.439 -2.892,2.147 -2.892,3.797 l 0,61.5 c 0,1.649 1.35,3 3,3 L -3,64.5 c 1.65,0 3,-1.351 3,-3 L 0,0 Z" />
    </g>
  </g>
  <g
     style="font-variant:normal;font-weight:bold;font-stretch:normal;font-size:23.75px;font-family:Raleway;-inkscape-font-specification:Raleway-Bold;writing-mode:lr-tb;display:inline;fill:#ffffff;fill-opacity:1;fill-rule:nonzero;stroke:none"
     id="text8172">
    <path
       d="m 46.059326,45.568512 7.410278,0 q 3.305054,0 5.06775,1.472778 1.774292,1.461182 1.774292,4.174805 0,2.72522 -1.774292,4.197998 -1.762696,1.461182 -5.06775,1.461182 l -2.945556,0 0,6.00708 -4.464722,0 0,-17.313843 z m 4.464722,3.235474 0,4.835815 2.470093,0 q 1.298828,0 2.006225,-0.626221 0.707398,-0.637817 0.707398,-1.797485 0,-1.159668 -0.707398,-1.785889 -0.707397,-0.62622 -2.006225,-0.62622 l -2.470093,0 z"
       style=""
       id="path13382" />
    <path
       d="m 67.507717,53.245514 q 1.403198,0 2.006226,-0.521851 0.614624,-0.52185 0.614624,-1.716308 0,-1.182862 -0.614624,-1.693115 -0.603028,-0.510254 -2.006226,-0.510254 l -1.878662,0 0,4.441528 1.878662,0 z m -1.878662,3.084717 0,6.552124 -4.464722,0 0,-17.313843 6.818848,0 q 3.421021,0 5.009766,1.148071 1.600341,1.148072 1.600341,3.629761 0,1.716309 -0.834961,2.817993 -0.823364,1.101685 -2.493286,1.623535 0.916138,0.208741 1.635132,0.950928 0.730591,0.730591 1.472779,2.226563 l 2.423706,4.916992 -4.754639,0 -2.110596,-4.302368 q -0.637817,-1.298829 -1.298828,-1.774292 -0.649414,-0.475464 -1.739502,-0.475464 l -1.264038,0 z"
       style=""
       id="path13384" />
    <path
       d="m 85.247009,48.490875 q -2.041015,0 -3.165893,1.507569 -1.124878,1.507568 -1.124878,4.244384 0,2.72522 1.124878,4.232788 1.124878,1.507569 3.165893,1.507569 2.052613,0 3.177491,-1.507569 1.124877,-1.507568 1.124877,-4.232788 0,-2.736816 -1.124877,-4.244384 -1.124878,-1.507569 -3.177491,-1.507569 z m 0,-3.235473 q 4.174805,0 6.540528,2.388916 2.365722,2.388916 2.365722,6.59851 0,4.197998 -2.365722,6.586914 -2.365723,2.388916 -6.540528,2.388916 -4.163208,0 -6.540527,-2.388916 -2.365723,-2.388916 -2.365723,-6.586914 0,-4.209594 2.365723,-6.59851 2.377319,-2.388916 6.540527,-2.388916 z"
       style=""
       id="path13386" />
    <path
       d="m 95.269318,45.568512 5.682372,0 3.94287,9.265747 3.96607,-9.265747 5.67077,0 0,17.313843 -4.22119,0 0,-12.663574 -3.98926,9.335327 -2.82959,0 -3.989254,-9.335327 0,12.663574 -4.232788,0 0,-17.313843 z"
       style=""
       id="path13388" />
    <path
       d="m 124.07828,48.490875 q -2.04102,0 -3.1659,1.507569 -1.12487,1.507568 -1.12487,4.244384 0,2.72522 1.12487,4.232788 1.12488,1.507569 3.1659,1.507569 2.05261,0 3.17749,-1.507569 1.12488,-1.507568 1.12488,-4.232788 0,-2.736816 -1.12488,-4.244384 -1.12488,-1.507569 -3.17749,-1.507569 z m 0,-3.235473 q 4.1748,0 6.54052,2.388916 2.36573,2.388916 2.36573,6.59851 0,4.197998 -2.36573,6.586914 -2.36572,2.388916 -6.54052,2.388916 -4.16321,0 -6.54053,-2.388916 -2.36572,-2.388916 -2.36572,-6.586914 0,-4.209594 2.36572,-6.59851 2.37732,-2.388916 6.54053,-2.388916 z"
       style=""
       id="path13390" />
  </g>
</svg>
