<?xml version="1.0" encoding="UTF-8" standalone="no"?>
<!-- Created with Inkscape (http://www.inkscape.org/) -->

<svg
   xmlns:dc="http://purl.org/dc/elements/1.1/"
   xmlns:cc="http://creativecommons.org/ns#"
   xmlns:rdf="http://www.w3.org/1999/02/22-rdf-syntax-ns#"
   xmlns:svg="http://www.w3.org/2000/svg"
   xmlns="http://www.w3.org/2000/svg"
   xmlns:sodipodi="http://sodipodi.sourceforge.net/DTD/sodipodi-0.dtd"
   xmlns:inkscape="http://www.inkscape.org/namespaces/inkscape"
   width="50.530125mm"
   height="30.613791mm"
   viewBox="0 0 179.04375 108.47406"
   id="svg13406"
   version="1.1"
   inkscape:version="0.91 r13725"
   sodipodi:docname="registarplus.svg">
  <defs
     id="defs13408" />
  <sodipodi:namedview
     id="base"
     pagecolor="#ffffff"
     bordercolor="#666666"
     borderopacity="1.0"
     inkscape:pageopacity="0.0"
     inkscape:pageshadow="2"
     inkscape:zoom="1.979899"
     inkscape:cx="199.26105"
     inkscape:cy="15.41087"
     inkscape:document-units="px"
     inkscape:current-layer="layer1"
     showgrid="false"
     fit-margin-top="0"
     fit-margin-left="0"
     fit-margin-right="0"
     fit-margin-bottom="0"
     inkscape:window-width="1600"
     inkscape:window-height="826"
     inkscape:window-x="0"
     inkscape:window-y="21"
     inkscape:window-maximized="1" />
  <metadata
     id="metadata13411">
    <rdf:RDF>
      <cc:Work
         rdf:about="">
        <dc:format>image/svg+xml</dc:format>
        <dc:type
           rdf:resource="http://purl.org/dc/dcmitype/StillImage" />
        <dc:title></dc:title>
      </cc:Work>
    </rdf:RDF>
  </metadata>
  <g
     inkscape:label="Layer 1"
     inkscape:groupmode="layer"
     id="layer1"
     transform="translate(1409.5219,287.58911)">
    <g
       style="display:inline"
       id="g8156"
       transform="matrix(1.25,0,0,-1.25,-1230.4781,-206.96411)">
      <path
         d="M 0,0 C 0,-1.65 -1.301,-3.359 -2.892,-3.797 L -68.726,-21.95 c -1.59,-0.439 -4.193,-0.439 -5.784,0 l -65.833,18.153 c -1.591,0.439 -2.892,2.147 -2.892,3.797 l 0,61.5 c 0,1.649 1.35,3 3,3 L -3,64.5 c 1.65,0 3,-1.351 3,-3 L 0,0 Z"
         style="fill:#00827d;fill-opacity:1;fill-rule:nonzero;stroke:none"
         id="path8158"
         inkscape:connector-curvature="0" />
    </g>
    <g
       style="font-variant:normal;font-weight:500;font-stretch:normal;font-size:21.25px;font-family:Raleway;-inkscape-font-specification:Raleway-Medium;writing-mode:lr-tb;display:inline;fill:#ffffff;fill-opacity:1;fill-rule:nonzero;stroke:none"
       id="text8176">
      <path
         d="m -1337.5105,-207.01898 0,6.16333 -1.9196,0 0,-16.04126 1.9196,0 0,1.76391 q 0.6018,-1.03759 1.5149,-1.53564 0.9235,-0.50842 2.1997,-0.50842 2.1167,0 3.4344,1.68091 1.3282,1.6809 1.3282,4.42016 0,2.73926 -1.3282,4.42017 -1.3177,1.68091 -3.4344,1.68091 -1.2762,0 -2.1997,-0.49805 -0.9131,-0.50842 -1.5149,-1.54602 z m 6.4954,-4.05701 q 0,-2.10632 -0.8716,-3.29956 -0.8612,-1.20361 -2.3761,-1.20361 -1.5149,0 -2.3865,1.20361 -0.8612,1.19324 -0.8612,3.29956 0,2.10632 0.8612,3.30994 0.8716,1.19324 2.3865,1.19324 1.5149,0 2.3761,-1.19324 0.8716,-1.20362 0.8716,-3.30994 z"
         style=""
         id="path13448" />
      <path
         d="m -1325.8638,-221.42084 1.9092,0 0,16.14502 -1.9092,0 0,-16.14502 z"
         style=""
         id="path13450" />
      <path
         d="m -1319.7921,-209.862 0,-7.03491 1.9092,0 0,6.96228 q 0,1.64978 0.6433,2.47986 0.6433,0.8197 1.9299,0.8197 1.546,0 2.4384,-0.98572 0.9027,-0.98572 0.9027,-2.68738 l 0,-6.58874 1.9092,0 0,11.62109 -1.9092,0 0,-1.78467 q -0.6952,1.05835 -1.6187,1.57715 -0.9131,0.50843 -2.1271,0.50843 -2.0025,0 -3.0401,-1.24512 -1.0376,-1.24512 -1.0376,-3.64197 z m 4.8041,-7.31506 0,0 z"
         style=""
         id="path13452" />
      <path
         d="m -1299.0541,-216.5545 0,1.80542 q -0.8093,-0.41504 -1.6809,-0.62256 -0.8716,-0.20752 -1.8054,-0.20752 -1.4215,0 -2.1375,0.43579 -0.7055,0.43579 -0.7055,1.30737 0,0.66406 0.5084,1.04798 0.5084,0.37353 2.0441,0.71594 l 0.6537,0.14526 q 2.0336,0.43579 2.8845,1.23474 0.8612,0.78858 0.8612,2.21009 0,1.61865 -1.2866,2.56286 -1.2763,0.94422 -3.5175,0.94422 -0.9338,0 -1.9507,-0.18677 -1.0064,-0.17639 -2.1271,-0.53955 l 0,-1.97144 q 1.0584,0.54993 2.0856,0.83008 1.0272,0.26978 2.0337,0.26978 1.3489,0 2.0752,-0.45655 0.7263,-0.46692 0.7263,-1.30737 0,-0.7782 -0.5292,-1.19324 -0.5188,-0.41504 -2.293,-0.79895 l -0.6641,-0.15564 q -1.7743,-0.37353 -2.5629,-1.14136 -0.7885,-0.77819 -0.7885,-2.12707 0,-1.63941 1.1621,-2.53174 1.1621,-0.89233 3.2995,-0.89233 1.0584,0 1.9922,0.15564 0.9338,0.15564 1.7224,0.46692 z"
         style=""
         id="path13454" />
    </g>
    <g
       style="font-variant:normal;font-weight:bold;font-stretch:normal;font-size:23.75px;font-family:Raleway;-inkscape-font-specification:Raleway-Bold;writing-mode:lr-tb;display:inline;fill:#ffffff;fill-opacity:1;fill-rule:nonzero;stroke:none"
       id="text8180">
      <path
         d="m -1373.0299,-237.69595 q 1.4032,0 2.0062,-0.52185 0.6146,-0.52185 0.6146,-1.71631 0,-1.18286 -0.6146,-1.69312 -0.603,-0.51025 -2.0062,-0.51025 l -1.8787,0 0,4.44153 1.8787,0 z m -1.8787,3.08471 0,6.55213 -4.4647,0 0,-17.31385 6.8189,0 q 3.421,0 5.0097,1.14808 1.6004,1.14807 1.6004,3.62976 0,1.71631 -0.835,2.81799 -0.8234,1.10168 -2.4933,1.62354 0.9162,0.20874 1.6351,0.95092 0.7306,0.73059 1.4728,2.22657 l 2.4237,4.91699 -4.7546,0 -2.1106,-4.30237 q -0.6378,-1.29883 -1.2988,-1.77429 -0.6494,-0.47547 -1.7395,-0.47547 l -1.2641,0 z"
         style=""
         id="path13431" />
      <path
         d="m -1363.0096,-245.37296 12.0489,0 0,3.37464 -7.5842,0 0,3.22388 7.1319,0 0,3.37463 -7.1319,0 0,3.96606 7.8393,0 0,3.37464 -12.304,0 0,-17.31385 z"
         style=""
         id="path13433" />
      <path
         d="m -1332.7456,-229.34634 q -1.6699,0.81176 -3.4674,1.21765 -1.7975,0.40588 -3.711,0.40588 -4.3255,0 -6.8536,-2.41211 -2.5281,-2.4237 -2.5281,-6.56372 0,-4.1864 2.5745,-6.58691 2.5745,-2.40052 7.0508,-2.40052 1.7279,0 3.305,0.32471 1.5888,0.32471 2.992,0.96253 l 0,3.58337 q -1.4496,-0.82336 -2.8876,-1.22925 -1.4264,-0.40588 -2.8644,-0.40588 -2.6672,0 -4.1168,1.49597 -1.438,1.48437 -1.438,4.25598 0,2.74841 1.3916,4.24439 1.3916,1.49597 3.9545,1.49597 0.6958,0 1.2872,-0.0812 0.603,-0.0928 1.0785,-0.27832 l 0,-3.36304 -2.7252,0 0,-2.99194 6.958,0 0,8.32642 z"
         style=""
         id="path13435" />
      <path
         d="m -1331.1134,-245.37296 4.4647,0 0,17.31385 -4.4647,0 0,-17.31385 z"
         style=""
         id="path13437" />
      <path
         d="m -1311.9156,-244.82791 0,3.66455 q -1.4264,-0.63782 -2.7833,-0.96253 -1.3568,-0.3247 -2.5628,-0.3247 -1.6004,0 -2.3657,0.44067 -0.7654,0.44068 -0.7654,1.36841 0,0.6958 0.5102,1.09009 0.5219,0.38269 1.8787,0.66101 l 1.9018,0.38269 q 2.8876,0.57983 4.1053,1.76269 1.2176,1.18287 1.2176,3.36304 0,2.86438 -1.7047,4.26758 -1.6931,1.3916 -5.1837,1.3916 -1.6467,0 -3.3051,-0.31311 -1.6583,-0.31311 -3.3166,-0.92773 l 0,-3.76892 q 1.6583,0.88134 3.2007,1.33361 1.5539,0.44068 2.9919,0.44068 1.4612,0 2.2382,-0.48706 0.777,-0.48706 0.777,-1.3916 0,-0.81177 -0.5335,-1.25245 -0.5218,-0.44067 -2.099,-0.78857 l -1.7279,-0.38269 q -2.5977,-0.55664 -3.8037,-1.77429 -1.1945,-1.21765 -1.1945,-3.28186 0,-2.58606 1.67,-3.97766 1.6699,-1.39161 4.801,-1.39161 1.4264,0 2.9339,0.22034 1.5076,0.20874 3.1196,0.63782 z"
         style=""
         id="path13439" />
      <path
         d="m -1311.1613,-245.37296 15.9571,0 0,3.37464 -5.7404,0 0,13.93921 -4.4647,0 0,-13.93921 -5.752,0 0,-3.37464 z"
         style=""
         id="path13441" />
      <path
         d="m -1285.0768,-231.21341 -6.9812,0 -1.1017,3.1543 -4.4879,0 6.413,-17.31385 5.3229,0 6.4129,17.31385 -4.4879,0 -1.0901,-3.1543 z m -5.8679,-3.21228 4.743,0 -2.3657,-6.88843 -2.3773,6.88843 z"
         style=""
         id="path13443" />
      <path
         d="m -1272.8524,-237.69595 q 1.4032,0 2.0062,-0.52185 0.6146,-0.52185 0.6146,-1.71631 0,-1.18286 -0.6146,-1.69312 -0.603,-0.51025 -2.0062,-0.51025 l -1.8787,0 0,4.44153 1.8787,0 z m -1.8787,3.08471 0,6.55213 -4.4647,0 0,-17.31385 6.8188,0 q 3.4211,0 5.0098,1.14808 1.6004,1.14807 1.6004,3.62976 0,1.71631 -0.835,2.81799 -0.8234,1.10168 -2.4933,1.62354 0.9161,0.20874 1.6351,0.95092 0.7306,0.73059 1.4728,2.22657 l 2.4237,4.91699 -4.7546,0 -2.1106,-4.30237 q -0.6378,-1.29883 -1.2988,-1.77429 -0.6495,-0.47547 -1.7395,-0.47547 l -1.2641,0 z"
         style=""
         id="path13445" />
    </g>
  </g>
</svg>
