<?xml version="1.0" encoding="UTF-8" standalone="no"?>
<svg
   xmlns:dc="http://purl.org/dc/elements/1.1/"
   xmlns:cc="http://creativecommons.org/ns#"
   xmlns:rdf="http://www.w3.org/1999/02/22-rdf-syntax-ns#"
   xmlns:svg="http://www.w3.org/2000/svg"
   xmlns="http://www.w3.org/2000/svg"
   xmlns:sodipodi="http://sodipodi.sourceforge.net/DTD/sodipodi-0.dtd"
   xmlns:inkscape="http://www.inkscape.org/namespaces/inkscape"
   version="1.1"
   id="svg12887"
   viewBox="0 0 179.0438 108.47406"
   height="30.613791mm"
   width="50.53014mm"
   inkscape:version="0.91 r13725"
   sodipodi:docname="registar.svg">
  <sodipodi:namedview
     pagecolor="#ffffff"
     bordercolor="#666666"
     borderopacity="1"
     objecttolerance="10"
     gridtolerance="10"
     guidetolerance="10"
     inkscape:pageopacity="0"
     inkscape:pageshadow="2"
     inkscape:window-width="1600"
     inkscape:window-height="826"
     id="namedview13272"
     showgrid="false"
     inkscape:snap-center="true"
     inkscape:snap-object-midpoints="true"
     inkscape:snap-text-baseline="true"
     inkscape:zoom="1.7314199"
     inkscape:cx="89.521901"
     inkscape:cy="54.23703"
     inkscape:window-x="0"
     inkscape:window-y="21"
     inkscape:window-maximized="1"
     inkscape:current-layer="svg12887" />
  <defs
     id="defs12889" />
  <metadata
     id="metadata12892">
    <rdf:RDF>
      <cc:Work
         rdf:about="">
        <dc:format>image/svg+xml</dc:format>
        <dc:type
           rdf:resource="http://purl.org/dc/dcmitype/StillImage" />
        <dc:title />
      </cc:Work>
    </rdf:RDF>
  </metadata>
  <g
     transform="translate(1343.8076,279.01768)"
     id="layer1">
    <path
       id="path8166"
       style="display:inline;fill:#00827d;fill-opacity:1;fill-rule:nonzero;stroke:none"
       d="m -1164.7638,-198.39268 c 0,2.0625 -1.6263,4.19875 -3.615,4.74625 l -82.2925,22.69125 c -1.9875,0.54875 -5.2413,0.54875 -7.23,0 l -82.2913,-22.69125 c -1.9887,-0.54875 -3.615,-2.68375 -3.615,-4.74625 l 0,-76.875 c 0,-2.06125 1.6875,-3.75 3.75,-3.75 l 171.5438,0 c 2.0625,0 3.75,1.68875 3.75,3.75 l 0,76.875 z" />
  </g>
  <g
     style="font-variant:normal;font-weight:bold;font-stretch:normal;font-size:23.75px;font-family:Raleway;-inkscape-font-specification:Raleway-Bold;writing-mode:lr-tb;display:inline;fill:#ffffff;fill-opacity:1;fill-rule:nonzero;stroke:none"
     id="text8172">
    <path
       d="m 37.96036,53.245514 q 1.403198,0 2.006225,-0.521851 0.614624,-0.52185 0.614624,-1.716308 0,-1.182862 -0.614624,-1.693115 -0.603027,-0.510254 -2.006225,-0.510254 l -1.878663,0 0,4.441528 1.878663,0 z m -1.878663,3.084717 0,6.552124 -4.464721,0 0,-17.313843 6.818847,0 q 3.421021,0 5.009766,1.148071 1.600342,1.148072 1.600342,3.629761 0,1.716309 -0.834961,2.817993 -0.823364,1.101685 -2.493286,1.623535 0.916137,0.208741 1.635132,0.950928 0.73059,0.730591 1.472778,2.226563 l 2.423706,4.916992 -4.754639,0 -2.110595,-4.302368 q -0.637818,-1.298829 -1.298828,-1.774292 -0.649415,-0.475464 -1.739502,-0.475464 l -1.264039,0 z"
       style=""
       id="path13293" />
    <path
       d="m 47.980747,45.568512 12.04895,0 0,3.374634 -7.584228,0 0,3.223877 7.131958,0 0,3.374633 -7.131958,0 0,3.966065 7.839355,0 0,3.374634 -12.304077,0 0,-17.313843 z"
       style=""
       id="path13295" />
    <path
       d="m 78.244724,61.595123 q -1.669922,0.811768 -3.467407,1.217652 -1.797485,0.405883 -3.710937,0.405883 -4.325562,0 -6.853638,-2.412109 -2.528076,-2.423706 -2.528076,-6.563721 0,-4.186401 2.574463,-6.586914 2.574462,-2.400512 7.050781,-2.400512 1.727905,0 3.305054,0.324707 1.588745,0.324707 2.991943,0.962524 l 0,3.583374 q -1.449585,-0.823364 -2.887573,-1.229248 -1.426392,-0.405884 -2.86438,-0.405884 -2.667237,0 -4.116822,1.495972 -1.437988,1.484375 -1.437988,4.255981 0,2.748413 1.391602,4.244385 1.391601,1.495972 3.954468,1.495972 0.6958,0 1.287231,-0.08118 0.603027,-0.09277 1.078491,-0.27832 l 0,-3.363037 -2.72522,0 0,-2.991944 6.958008,0 0,8.326416 z"
       style=""
       id="path13297" />
    <path
       d="m 79.876991,45.568512 4.464722,0 0,17.313843 -4.464722,0 0,-17.313843 z"
       style=""
       id="path13299" />
    <path
       d="m 99.074684,46.113556 0,3.664551 q -1.426391,-0.637818 -2.783203,-0.962525 -1.356812,-0.324707 -2.562866,-0.324707 -1.600342,0 -2.365723,0.440674 -0.765381,0.440674 -0.765381,1.368408 0,0.695801 0.510254,1.090088 0.521851,0.382691 1.878662,0.661011 l 1.901856,0.38269 q 2.887573,0.579834 4.105224,1.762696 1.217653,1.182861 1.217653,3.363037 0,2.86438 -1.704713,4.267578 -1.693115,1.391601 -5.183716,1.391601 -1.646728,0 -3.305054,-0.31311 -1.658325,-0.31311 -3.31665,-0.927734 l 0,-3.768921 q 1.658325,0.881347 3.200684,1.333618 1.553955,0.440674 2.991943,0.440674 1.461182,0 2.238159,-0.487061 0.776978,-0.48706 0.776978,-1.391601 0,-0.811768 -0.533448,-1.252442 -0.52185,-0.440674 -2.098999,-0.788574 l -1.727905,-0.38269 q -2.597656,-0.556641 -3.803711,-1.774292 -1.194458,-1.217652 -1.194458,-3.281861 0,-2.586059 1.669922,-3.977661 1.669922,-1.391601 4.801025,-1.391601 1.426392,0 2.93396,0.220337 1.507569,0.20874 3.119507,0.637817 z"
       style=""
       id="path13301" />
    <path
       d="m 99.829018,45.568512 15.957032,0 0,3.374634 -5.74036,0 0,13.939209 -4.46472,0 0,-13.939209 -5.751952,0 0,-3.374634 z"
       style=""
       id="path13303" />
    <path
       d="m 125.91359,59.728058 -6.9812,0 -1.10169,3.154297 -4.48791,0 6.41296,-17.313843 5.32288,0 6.41296,17.313843 -4.48791,0 -1.09009,-3.154297 z m -5.86792,-3.21228 4.74304,0 -2.36572,-6.888428 -2.37732,6.888428 z"
       style=""
       id="path13305" />
    <path
       d="m 138.13788,53.245514 q 1.4032,0 2.00622,-0.521851 0.61463,-0.52185 0.61463,-1.716308 0,-1.182862 -0.61463,-1.693115 -0.60302,-0.510254 -2.00622,-0.510254 l -1.87866,0 0,4.441528 1.87866,0 z m -1.87866,3.084717 0,6.552124 -4.46473,0 0,-17.313843 6.81885,0 q 3.42102,0 5.00977,1.148071 1.60034,1.148072 1.60034,3.629761 0,1.716309 -0.83496,2.817993 -0.82337,1.101685 -2.49329,1.623535 0.91614,0.208741 1.63513,0.950928 0.7306,0.730591 1.47278,2.226563 l 2.42371,4.916992 -4.75464,0 -2.1106,-4.302368 q -0.63781,-1.298829 -1.29882,-1.774292 -0.64942,-0.475464 -1.73951,-0.475464 l -1.26403,0 z"
       style=""
       id="path13307" />
  </g>
</svg>
