<?xml version="1.0" encoding="utf-8"?>
<!-- Generator: Adobe Illustrator 19.1.0, SVG Export Plug-In . SVG Version: 6.00 Build 0)  -->
<svg version="1.1" id="Layer_1" xmlns="http://www.w3.org/2000/svg" xmlns:xlink="http://www.w3.org/1999/xlink" x="0px" y="0px"
	 viewBox="0 0 58.1 75.5" style="enable-background:new 0 0 58.1 75.5;" xml:space="preserve">
<style type="text/css">
	.st0{fill:#59595B;}
	.st1{fill:#E9E9E9;}
	.st2{fill:#808082;}
	.st3{fill:#FFFFFF;}
	.st4{fill:#179F8D;}
	.st5{fill:none;stroke:#B2B2B9;stroke-width:0.5;stroke-miterlimit:10;}
	.st6{fill:#272727;}
</style>
<g id="XMLID_5607_">
	<path id="XMLID_5610_" class="st0" d="M58.1,72.2c0,1.8-1.5,3.4-3.4,3.4H3.4C1.5,75.5,0,74,0,72.2V3.4C0,1.5,1.5,0,3.4,0h51.4
		c1.8,0,3.4,1.5,3.4,3.4V72.2z"/>
	<rect id="XMLID_5609_" x="5.6" y="6.4" class="st1" width="46.8" height="62.7"/>
	<circle id="XMLID_5608_" class="st2" cx="29" cy="72.1" r="1.3"/>
</g>
<rect id="XMLID_5606_" x="5.6" y="6.4" class="st3" width="46.8" height="17.7"/>
<rect id="XMLID_5605_" x="10" y="8.2" class="st4" width="38.2" height="7"/>
<line id="XMLID_5604_" class="st5" x1="10" y1="16.5" x2="48.2" y2="16.5"/>
<rect id="XMLID_5603_" x="5.6" y="20" class="st6" width="46.8" height="4.2"/>
<rect id="XMLID_5602_" x="5.6" y="24.2" class="st3" width="46.8" height="2.1"/>
<g id="XMLID_5596_">
	<path id="XMLID_4453_" class="st3" d="M47.1,65H11.2c-0.6,0-1.1-0.5-1.1-1.1V33.7c0-0.6,0.5-1.1,1.1-1.1h35.9
		c0.6,0,1.1,0.5,1.1,1.1v30.2C48.2,64.5,47.7,65,47.1,65z"/>
</g>
<g id="XMLID_228_">
	<path id="XMLID_4452_" class="st3" d="M10,69.1v-0.6c0-0.7,0.3-1.1,0.7-1.1h16.5c0.4,0,0.7,0.4,0.7,0.9v0.8"/>
</g>
<g id="XMLID_251_">
	<path id="XMLID_4606_" class="st3" d="M30.3,69.1v-0.8c0-0.5,0.3-0.9,0.7-0.9h16.5c0.4,0,0.7,0.4,0.7,0.9v0.8"/>
</g>
</svg>
