<?xml version="1.0" encoding="utf-8"?>
<!-- Generator: Adobe Illustrator 19.1.0, SVG Export Plug-In . SVG Version: 6.00 Build 0)  -->
<svg version="1.1" id="Layer_1" xmlns="http://www.w3.org/2000/svg" xmlns:xlink="http://www.w3.org/1999/xlink" x="0px" y="0px"
	 viewBox="0 0 73 94.8" style="enable-background:new 0 0 73 94.8;" xml:space="preserve">
<style type="text/css">
	.st0{fill:#59595B;}
	.st1{fill:#E9E9E9;}
	.st2{fill:#808082;}
	.st3{fill:#FFFFFF;}
	.st4{fill:#179F8D;}
	.st5{fill:none;stroke:#B2B2B9;stroke-width:0.5;stroke-miterlimit:10;}
	.st6{fill:#272727;}
</style>
<g id="XMLID_24_">
	<path id="XMLID_49_" class="st0" d="M73,90.6c0,2.3-1.9,4.2-4.2,4.2H4.2c-2.3,0-4.2-1.9-4.2-4.2V4.2C0,1.9,1.9,0,4.2,0h64.5
		C71.1,0,73,1.9,73,4.2V90.6z"/>
	<rect id="XMLID_48_" x="7.1" y="8.1" class="st1" width="58.8" height="78.7"/>
	<circle id="XMLID_25_" class="st2" cx="36.5" cy="90.5" r="1.6"/>
</g>
<rect id="XMLID_5576_" x="7.1" y="8.1" class="st3" width="58.8" height="22.3"/>
<rect id="XMLID_5575_" x="12.6" y="10.4" class="st4" width="47.9" height="8.8"/>
<line id="XMLID_5574_" class="st5" x1="12.6" y1="20.8" x2="60.5" y2="20.8"/>
<rect id="XMLID_5573_" x="7.1" y="25.1" class="st6" width="58.8" height="5.2"/>
<rect id="XMLID_5572_" x="7.1" y="30.3" class="st3" width="58.8" height="2.6"/>
<g id="XMLID_5561_">
	<path id="XMLID_5587_" class="st3" d="M60,57.5H46.4c-0.3,0-0.6-0.3-0.6-0.8V41.8c0-0.4,0.3-0.8,0.6-0.8H60c0.3,0,0.6,0.3,0.6,0.8
		v14.9C60.5,57.1,60.3,57.5,60,57.5z"/>
</g>
<g id="XMLID_5542_">
	<path id="XMLID_5591_" class="st3" d="M43.1,67.6H13.5c-0.5,0-0.9-0.4-0.9-0.9V41.9c0-0.5,0.4-0.9,0.9-0.9h29.5
		c0.5,0,0.9,0.4,0.9,0.9v24.8C44,67.2,43.6,67.6,43.1,67.6z"/>
</g>
<g id="XMLID_5541_">
	<path id="XMLID_5586_" class="st3" d="M60,75.9H46.4c-0.3,0-0.6-0.3-0.6-0.8V60.2c0-0.4,0.3-0.8,0.6-0.8H60c0.3,0,0.6,0.3,0.6,0.8
		v14.9C60.5,75.6,60.3,75.9,60,75.9z"/>
</g>
<g id="XMLID_5570_">
	<path id="XMLID_5590_" class="st3" d="M45.8,86.8v-8.2c0-0.4,0.3-0.8,0.6-0.8H60c0.3,0,0.6,0.3,0.6,0.8v8.2"/>
</g>
<g id="XMLID_5544_">
	<path id="XMLID_5548_" class="st3" d="M26.8,86H13.2c-0.3,0-0.6-0.3-0.6-0.8V70.3c0-0.4,0.3-0.8,0.6-0.8h13.6
		c0.3,0,0.6,0.3,0.6,0.8v14.9C27.4,85.6,27.1,86,26.8,86z"/>
</g>
<g id="XMLID_5551_">
	<path id="XMLID_5566_" class="st3" d="M43.4,86H29.8c-0.3,0-0.6-0.3-0.6-0.8V70.3c0-0.4,0.3-0.8,0.6-0.8h13.6
		c0.3,0,0.6,0.3,0.6,0.8v14.9C44,85.6,43.7,86,43.4,86z"/>
</g>
</svg>
