<?xml version="1.0" encoding="UTF-8" standalone="no"?>
<svg
   xmlns:dc="http://purl.org/dc/elements/1.1/"
   xmlns:cc="http://creativecommons.org/ns#"
   xmlns:rdf="http://www.w3.org/1999/02/22-rdf-syntax-ns#"
   xmlns:svg="http://www.w3.org/2000/svg"
   xmlns="http://www.w3.org/2000/svg"
   version="1.1"
   id="svg12050"
   viewBox="0 0 179.04375 107"
   height="30.197779mm"
   width="50.530125mm">
  <defs
     id="defs12052" />
  <metadata
     id="metadata12055">
    <rdf:RDF>
      <cc:Work
         rdf:about="">
        <dc:format>image/svg+xml</dc:format>
        <dc:type
           rdf:resource="http://purl.org/dc/dcmitype/StillImage" />
        <dc:title></dc:title>
      </cc:Work>
    </rdf:RDF>
  </metadata>
  <g
     transform="translate(-130.47813,-256.00506)"
     id="layer1">
    <g
       transform="matrix(1.25,0,0,-1.25,309.52188,359.25506)"
       id="g7796">
      <path
         id="path7798"
         style="fill:#c88c00;fill-opacity:1;fill-rule:nonzero;stroke:none"
         d="m 0,0 c 0,-1.649 -1.35,-3 -3,-3 l -137.235,0 c -1.65,0 -3,1.351 -3,3 l 0,79.6 c 0,1.65 1.35,3 3,3 L -3,82.6 c 1.65,0 3,-1.35 3,-3 L 0,0 Z" />
    </g>
    <g
       transform="translate(88.093305,-4.2143036)"
       id="g12100">
      <g
         id="text8068"
         style="font-variant:normal;font-weight:normal;font-stretch:normal;font-size:20px;font-family:Roboto;-inkscape-font-specification:Roboto-Regular;writing-mode:lr-tb;fill:#ffffff;fill-opacity:1;fill-rule:nonzero;stroke:none">
        <path
           id="path12107"
           style=""
           d="m 81.325302,313.13831 q 1.416016,0.30273 2.207031,1.25976 0.800782,0.95703 0.800782,2.36328 0,2.15821 -1.484375,3.33985 -1.484375,1.18164 -4.21875,1.18164 -0.917969,0 -1.894532,-0.18555 -0.966797,-0.17578 -2.001953,-0.53711 l 0,-1.9043 q 0.820313,0.47852 1.796875,0.72266 0.976563,0.24414 2.041016,0.24414 1.855469,0 2.822265,-0.73242 0.976563,-0.73242 0.976563,-2.12891 0,-1.28906 -0.908203,-2.01172 -0.898438,-0.73242 -2.509766,-0.73242 l -1.699219,0 0,-1.62109 1.777344,0 q 1.455078,0 2.226563,-0.57617 0.771484,-0.58594 0.771484,-1.67969 0,-1.12305 -0.800781,-1.71875 -0.791016,-0.60547 -2.275391,-0.60547 -0.810547,0 -1.738281,0.17578 -0.927734,0.17578 -2.041016,0.54688 l 0,-1.75782 q 1.123047,-0.3125 2.09961,-0.46875 0.986328,-0.15625 1.855468,-0.15625 2.246094,0 3.554688,1.02539 1.308594,1.01563 1.308594,2.75391 0,1.21094 -0.69336,2.05078 -0.693359,0.83008 -1.972656,1.15235 z" />
        <path
           id="path12109"
           style=""
           d="m 90.827484,307.71838 q -1.523437,0 -2.294922,1.50391 -0.761718,1.49414 -0.761718,4.50195 0,2.99805 0.761718,4.50196 0.771485,1.49414 2.294922,1.49414 1.533203,0 2.294922,-1.49414 0.771484,-1.50391 0.771484,-4.50196 0,-3.00781 -0.771484,-4.50195 -0.761719,-1.50391 -2.294922,-1.50391 z m 0,-1.5625 q 2.451172,0 3.740235,1.94336 1.298828,1.9336 1.298828,5.625 0,3.68164 -1.298828,5.625 -1.289063,1.9336 -3.740235,1.9336 -2.451172,0 -3.75,-1.9336 -1.289062,-1.94336 -1.289062,-5.625 0,-3.6914 1.289062,-5.625 1.298828,-1.94336 3.75,-1.94336 z" />
        <path
           id="path12111"
           style=""
           d="m 102.08748,307.71838 q -1.52344,0 -2.294923,1.50391 -0.761719,1.49414 -0.761719,4.50195 0,2.99805 0.761719,4.50196 0.771483,1.49414 2.294923,1.49414 1.5332,0 2.29492,-1.49414 0.77148,-1.50391 0.77148,-4.50196 0,-3.00781 -0.77148,-4.50195 -0.76172,-1.50391 -2.29492,-1.50391 z m 0,-1.5625 q 2.45117,0 3.74023,1.94336 1.29883,1.9336 1.29883,5.625 0,3.68164 -1.29883,5.625 -1.28906,1.9336 -3.74023,1.9336 -2.451173,0 -3.750001,-1.9336 -1.289063,-1.94336 -1.289063,-5.625 0,-3.6914 1.289063,-5.625 1.298828,-1.94336 3.750001,-1.94336 z" />
        <path
           id="path12113"
           style=""
           d="m 113.93295,306.41956 1.97266,0 0,6.16211 6.54297,-6.16211 2.53906,0 -7.23633,6.79687 7.75391,7.7832 -2.59766,0 -7.00195,-7.02148 0,7.02148 -1.97266,0 0,-14.58007 z" />
        <path
           id="path12115"
           style=""
           d="m 126.79295,306.41956 2.93946,0 3.7207,9.92187 3.74023,-9.92187 2.93946,0 0,14.58007 -1.92383,0 0,-12.80273 -3.75977,10 -1.98242,0 -3.75976,-10 0,12.80273 -1.91407,0 0,-14.58007 z" />
      </g>
      <g
         id="text8072"
         style="font-variant:normal;font-weight:normal;font-stretch:normal;font-size:15px;font-family:Roboto;-inkscape-font-specification:Roboto-Regular;writing-mode:lr-tb;fill:#ffffff;fill-opacity:1;fill-rule:nonzero;stroke:none">
        <path
           id="path12118"
           style=""
           d="m 154.2751,311.59534 0,4.07959 4.07959,0 0,1.24511 -4.07959,0 0,4.07959 -1.23047,0 0,-4.07959 -4.07959,0 0,-1.24511 4.07959,0 0,-4.07959 1.23047,0 z" />
        <path
           id="path12120"
           style=""
           d="m 162.56734,311.2804 0,4.10888 1.86035,0 q 1.03271,0 1.59668,-0.53467 0.56396,-0.53466 0.56396,-1.52343 0,-0.98145 -0.56396,-1.51612 -0.56397,-0.53466 -1.59668,-0.53466 l -1.86035,0 z m -1.4795,-1.21582 3.33985,0 q 1.83838,0 2.77588,0.83496 0.94482,0.82763 0.94482,2.43164 0,1.61865 -0.94482,2.44629 -0.9375,0.82763 -2.77588,0.82763 l -1.86035,0 0,4.39453 -1.4795,0 0,-10.93505 z" />
        <path
           id="path12122"
           style=""
           d="m 172.18234,311.2804 0,8.50341 1.78711,0 q 2.26319,0 3.31055,-1.02539 1.05469,-1.02539 1.05469,-3.2373 0,-2.19727 -1.05469,-3.21533 -1.04736,-1.02539 -3.31055,-1.02539 l -1.78711,0 z m -1.47949,-1.21582 3.03955,0 q 3.17871,0 4.66553,1.32568 1.48681,1.31836 1.48681,4.13086 0,2.82715 -1.49414,4.15283 -1.49414,1.32568 -4.6582,1.32568 l -3.03955,0 0,-10.93505 z" />
        <path
           id="path12124"
           style=""
           d="m 183.23517,320.99963 -4.17481,-10.93505 1.54541,0 3.46436,9.20654 3.47168,-9.20654 1.53809,0 -4.16749,10.93505 -1.67724,0 z" />
      </g>
    </g>
  </g>
</svg>
