<?xml version="1.0" encoding="utf-8"?>
<!-- Generator: Adobe Illustrator 19.1.0, SVG Export Plug-In . SVG Version: 6.00 Build 0)  -->
<svg version="1.1" id="Layer_1" xmlns="http://www.w3.org/2000/svg" xmlns:xlink="http://www.w3.org/1999/xlink" x="0px" y="0px"
	 viewBox="0 0 53.5 45.4" style="enable-background:new 0 0 53.5 45.4;" xml:space="preserve">
<style type="text/css">
	.st0{fill:#E3E3E3;}
</style>
<g>
	<path class="st0" d="M31.3,37.6v1.2c0,0.9-0.7,1.7-1.6,1.9l-0.3,1.1c-0.2,0.6-0.7,1-1.3,1h-2.9c-0.6,0-1.1-0.4-1.3-1l-0.3-1.1
		c-0.9-0.1-1.6-0.9-1.6-1.9v-1.2c0-0.6,0.5-1.1,1.1-1.1h6.9C30.8,36.5,31.3,37,31.3,37.6L31.3,37.6z M36.7,21.8
		c0,2.7-1.1,5.1-2.8,6.9c-1.3,1.4-2.2,3.1-2.4,4.9c-0.1,0.8-0.8,1.4-1.6,1.4h-6.2c-0.8,0-1.5-0.6-1.6-1.4c-0.3-1.9-1.1-3.6-2.5-5
		c-1.7-1.8-2.7-4.2-2.8-6.8c-0.1-5.5,4.3-10,9.9-10C32.2,11.8,36.7,16.2,36.7,21.8L36.7,21.8z M27.9,15.7c0-0.6-0.5-1.1-1.1-1.1
		c-4,0-7.2,3.2-7.2,7.2c0,0.6,0.5,1.1,1.1,1.1c0.6,0,1.1-0.5,1.1-1.1c0-2.7,2.2-4.9,4.9-4.9C27.4,16.9,27.9,16.4,27.9,15.7
		L27.9,15.7z M26.7,8.5c0.6,0,1.1-0.5,1.1-1.1V3.5c0-0.6-0.5-1.1-1.1-1.1c-0.6,0-1.1,0.5-1.1,1.1v3.9C25.6,8,26.1,8.5,26.7,8.5
		L26.7,8.5z M13.5,21.7c0-0.6-0.5-1.1-1.1-1.1H8.5c-0.6,0-1.1,0.5-1.1,1.1c0,0.6,0.5,1.1,1.1,1.1h3.9C13.1,22.9,13.5,22.4,13.5,21.7
		L13.5,21.7z M45,20.6h-3.9c-0.6,0-1.1,0.5-1.1,1.1c0,0.6,0.5,1.1,1.1,1.1H45c0.6,0,1.1-0.5,1.1-1.1C46.1,21.1,45.6,20.6,45,20.6
		L45,20.6z M15.8,31.1l-2.8,2.8c-0.4,0.4-0.4,1.1,0,1.6c0.2,0.2,0.5,0.3,0.8,0.3c0.3,0,0.6-0.1,0.8-0.3l2.8-2.8
		c0.4-0.4,0.4-1.1,0-1.6C17,30.6,16.3,30.6,15.8,31.1L15.8,31.1z M36.9,12.7c0.3,0,0.6-0.1,0.8-0.3l2.8-2.8c0.4-0.4,0.4-1.1,0-1.6
		c-0.4-0.4-1.1-0.4-1.6,0l-2.8,2.8c-0.4,0.4-0.4,1.1,0,1.6C36.3,12.6,36.6,12.7,36.9,12.7L36.9,12.7z M15.8,12.4
		c0.2,0.2,0.5,0.3,0.8,0.3c0.3,0,0.6-0.1,0.8-0.3c0.4-0.4,0.4-1.1,0-1.6L14.6,8c-0.4-0.4-1.1-0.4-1.6,0c-0.4,0.4-0.4,1.1,0,1.6
		L15.8,12.4z M37.7,31.1c-0.4-0.4-1.1-0.4-1.6,0c-0.4,0.4-0.4,1.1,0,1.6l2.8,2.8c0.2,0.2,0.5,0.3,0.8,0.3c0.3,0,0.6-0.1,0.8-0.3
		c0.4-0.4,0.4-1.1,0-1.6L37.7,31.1z M37.7,31.1"/>
</g>
</svg>
