<?xml version="1.0" encoding="utf-8"?>
<!-- Generator: Adobe Illustrator 19.1.0, SVG Export Plug-In . SVG Version: 6.00 Build 0)  -->
<svg version="1.1" id="Layer_1" xmlns="http://www.w3.org/2000/svg" xmlns:xlink="http://www.w3.org/1999/xlink" x="0px" y="0px"
	 viewBox="0 0 65.2 41.3" style="enable-background:new 0 0 65.2 41.3;" xml:space="preserve">
<style type="text/css">
	.st0{fill:#FFFFFF;}
	.st1{fill-rule:evenodd;clip-rule:evenodd;fill:#c88c00;}
	.st2{fill-rule:evenodd;clip-rule:evenodd;fill:#FFFFFF;}
</style>
<g>
	<g>
		<path class="st0" d="M11.3,30.7c3,1.5,7,2.8,11,3.2c3.5,0.4,10.1-1.2,10-2.8c0-0.6-5.7,1.7-9.3,0.9c-2.7-0.6-2.5-3.1-1-3.5
			c1.4-0.4,9.8-3.9,13.5-4.2c1.7-0.1,6,0.3,8.1,0.6c0.7,0.1,1.1,0.1,1.2,0.7c0.3,3.1,1,9.5,1.4,12.8c0,0.1,0,1-0.9,0.4
			c-0.9-0.7-2.1-1.5-3.2-1.1c-1.7,0.5-16.7,3.9-18.8,3.5c-3-0.6-11.7-5.2-13.4-6.7C7.4,32.3,9.2,29.7,11.3,30.7L11.3,30.7z
			 M11.3,30.7"/>
		<path class="st0" d="M49,24.6l16.7-1.1c0.6-0.1,1.3,0.4,1.4,1l2,13c0.2,0.6-0.2,1.1-0.8,1.2l-17.6,0.8c-0.6,0-1.2-0.4-1.2-1
			L48,25.8C47.9,25.2,48.4,24.6,49,24.6L49,24.6z M54.2,37.5c1.2-0.1,2.1-1.1,2.1-2.3C56.2,34,55.2,33,54,33.1
			c-1.2,0.1-2.1,1.1-2.1,2.3C52,36.6,53,37.5,54.2,37.5L54.2,37.5z M54.2,37.5"/>
	</g>
	<g>
		<path class="st1" d="M16.9,27.7L16.9,27.7c-2.4-3.7-4.9-7.4-7.3-11.1c4.4-7.9,15.6-5.2,20-13.2c2.4,3.7,4.9,7.4,7.3,11.1
			C32.6,22.5,21.3,19.8,16.9,27.7"/>
		<g>
			<g>
				<path class="st2" d="M38.5,13.5L31.2,2.4c-0.4-0.6-1-0.9-1.6-0.8c-0.3,0-0.7,0.1-1,0.3C28.3,2,28.1,2.3,28,2.5
					c-0.7,1.3-1.7,2.3-3,3.1c-1.7,1.1-3.8,1.8-6,2.6c-2.3,0.8-4.7,1.6-6.9,3c-1.8,1.2-3.2,2.7-4.2,4.5c-0.3,0.6-0.3,1.4,0.1,1.9
					l7.3,11.1c0.4,0.5,1,0.9,1.6,0.8c0.4,0,0.7-0.1,1-0.3c0.3-0.2,0.5-0.4,0.6-0.7c0.7-1.3,1.7-2.3,3-3.1c1.7-1.1,3.8-1.8,6-2.6
					c2.3-0.8,4.7-1.6,6.9-3c1.8-1.2,3.2-2.7,4.2-4.5C38.9,14.9,38.9,14.1,38.5,13.5L38.5,13.5z M16.9,27.7
					c-2.4-3.7-4.9-7.4-7.3-11.1c4.4-7.9,15.6-5.2,20-13.2c2.4,3.7,4.9,7.4,7.3,11.1C32.6,22.5,21.3,19.8,16.9,27.7L16.9,27.7z
					 M16.9,27.7"/>
			</g>
			<path class="st2" d="M20.9,21L20.9,21c-0.7,0.3-1.3,0.7-2,1.1c-0.6,0.4-1.2,0.8-1.7,1.3l-0.8,0.7c-0.1,0.2-0.2,0.4-0.1,0.6
				c0.1,0.2,0.4,0.3,0.7,0.1c0,0,0.1,0,0.1-0.1l0.8-0.7c0.5-0.4,1-0.8,1.6-1.2c0.6-0.4,1.2-0.7,1.9-1h0c0,0,0,0,0.1,0
				c0.2-0.1,0.3-0.4,0.1-0.7C21.4,21,21.1,20.9,20.9,21L20.9,21z M20.9,21"/>
			<path class="st2" d="M27,8.4c-0.6,0.4-1.2,0.7-1.8,1c0,0-0.1,0-0.1,0.1c-0.2,0.1-0.3,0.4-0.1,0.7c0.1,0.2,0.4,0.3,0.6,0.1l0,0
				c0.7-0.3,1.3-0.7,2-1.1c0.6-0.4,1.2-0.8,1.7-1.3L30,7.2c0.2-0.2,0.2-0.4,0.1-0.6c-0.1-0.2-0.4-0.3-0.7-0.1c0,0-0.1,0.1-0.1,0.1
				l-0.8,0.7C28.1,7.6,27.6,8,27,8.4L27,8.4z M27,8.4"/>
		</g>
		<g>
			<path class="st0" d="M22.4,19.8l-2.2-4.3c-0.5,1-0.9,1.6-1.1,1.7c-0.1,0.1-0.3,0.1-0.4,0c-0.2-0.1-0.3-0.1-0.3-0.3
				c-0.1-0.2-0.1-0.3,0-0.4c0.1-0.1,0.2-0.3,0.4-0.6c0.3-0.4,0.5-0.7,0.6-1c0.1-0.3,0.2-0.6,0.3-1c0-0.3,0.1-0.5,0.1-0.6
				c0-0.1,0.1-0.2,0.3-0.2c0.2-0.1,0.3-0.1,0.5,0c0.2,0.1,0.3,0.2,0.4,0.5l2.8,5.4c0.3,0.6,0.3,1.1-0.2,1.3c-0.2,0.1-0.4,0.1-0.6,0
				C22.7,20.2,22.5,20.1,22.4,19.8z"/>
			<path class="st0" d="M28.2,13.4c0.3,0.5,0.5,1,0.6,1.4c0.1,0.4,0.2,0.8,0.2,1.2c0,0.5-0.1,0.9-0.4,1.3c-0.2,0.4-0.6,0.7-1,0.9
				c-0.5,0.2-1,0.3-1.5,0.3c-0.5-0.1-1-0.3-1.4-0.7c-0.2-0.2-0.5-0.5-0.7-0.8c-0.2-0.3-0.4-0.6-0.6-1c-0.2-0.5-0.4-0.9-0.6-1.3
				c-0.1-0.4-0.2-0.8-0.3-1.1c0-0.5,0-1,0.3-1.5c0.2-0.4,0.6-0.8,1.1-1c0.3-0.2,0.6-0.3,1-0.3c0.3,0,0.6,0,0.9,0.1
				c0.3,0.1,0.6,0.3,0.9,0.5C27.2,11.8,27.7,12.4,28.2,13.4z M26.8,14c-0.3-0.6-0.6-1-0.8-1.4c-0.3-0.3-0.5-0.5-0.8-0.6
				c-0.3-0.1-0.5-0.1-0.8,0.1c-0.4,0.2-0.6,0.6-0.5,1.1c0.1,0.5,0.3,1.2,0.8,2.1c0.3,0.6,0.6,1.1,0.9,1.4c0.3,0.3,0.5,0.6,0.8,0.7
				c0.3,0.1,0.5,0.1,0.8-0.1c0.3-0.2,0.5-0.4,0.5-0.7c0.1-0.3,0-0.6-0.1-1C27.4,15.1,27.1,14.6,26.8,14z"/>
		</g>
	</g>
</g>
</svg>
