<?xml version="1.0" encoding="utf-8"?>
<!-- Generator: Adobe Illustrator 19.1.0, SVG Export Plug-In . SVG Version: 6.00 Build 0)  -->
<svg version="1.1" id="Layer_1" xmlns="http://www.w3.org/2000/svg" xmlns:xlink="http://www.w3.org/1999/xlink" x="0px" y="0px"
	 viewBox="-272 376.7 65.2 41.3" style="enable-background:new -272 376.7 65.2 41.3;" xml:space="preserve">
<style type="text/css">
	.st0{fill:#FFFFFF;}
</style>
<g>
	<path class="st0" d="M-260.7,407.4c3,1.5,7,2.8,11,3.2c3.5,0.4,10.1-1.2,10-2.8c0-0.6-5.7,1.7-9.3,0.9c-2.7-0.6-2.5-3.1-1-3.5
		c1.4-0.4,9.8-3.9,13.5-4.2c1.7-0.1,6,0.3,8.1,0.6c0.7,0.1,1.1,0.1,1.2,0.7c0.3,3.1,1,9.5,1.4,12.8c0,0.1,0,1-0.9,0.4
		c-0.9-0.7-2.1-1.5-3.2-1.1c-1.7,0.5-16.7,3.9-18.8,3.5c-3-0.6-11.7-5.2-13.4-6.7C-264.6,409-262.8,406.4-260.7,407.4L-260.7,407.4z
		"/>
	<path class="st0" d="M-223,401.3l16.7-1.1c0.6-0.1,1.3,0.4,1.4,1l2,13c0.2,0.6-0.2,1.1-0.8,1.2l-17.6,0.8c-0.6,0-1.2-0.4-1.2-1
		l-1.5-12.7C-224.1,401.9-223.6,401.3-223,401.3L-223,401.3z M-217.8,414.2c1.2-0.1,2.1-1.1,2.1-2.3c-0.1-1.2-1.1-2.2-2.3-2.1
		s-2.1,1.1-2.1,2.3C-220,413.3-219,414.2-217.8,414.2L-217.8,414.2z"/>
</g>
<g>
	<path class="st0" d="M-249.6,396.5l-2.2-4.3c-0.5,1-0.9,1.6-1.1,1.7c-0.1,0.1-0.3,0.1-0.4,0c-0.2-0.1-0.3-0.1-0.3-0.3
		c-0.1-0.2-0.1-0.3,0-0.4c0.1-0.1,0.2-0.3,0.4-0.6c0.3-0.4,0.5-0.7,0.6-1c0.1-0.3,0.2-0.6,0.3-1c0-0.3,0.1-0.5,0.1-0.6
		c0-0.1,0.1-0.2,0.3-0.2c0.2-0.1,0.3-0.1,0.5,0c0.2,0.1,0.3,0.2,0.4,0.5l2.8,5.4c0.3,0.6,0.3,1.1-0.2,1.3c-0.2,0.1-0.4,0.1-0.6,0
		C-249.3,396.9-249.5,396.8-249.6,396.5z"/>
	<path class="st0" d="M-243.8,390.1c0.3,0.5,0.5,1,0.6,1.4c0.1,0.4,0.2,0.8,0.2,1.2c0,0.5-0.1,0.9-0.4,1.3c-0.2,0.4-0.6,0.7-1,0.9
		c-0.5,0.2-1,0.3-1.5,0.3c-0.5-0.1-1-0.3-1.4-0.7c-0.2-0.2-0.5-0.5-0.7-0.8s-0.4-0.6-0.6-1c-0.2-0.5-0.4-0.9-0.6-1.3
		c-0.1-0.4-0.2-0.8-0.3-1.1c0-0.5,0-1,0.3-1.5c0.2-0.4,0.6-0.8,1.1-1c0.3-0.2,0.6-0.3,1-0.3c0.3,0,0.6,0,0.9,0.1s0.6,0.3,0.9,0.5
		C-244.8,388.5-244.3,389.1-243.8,390.1z M-245.2,390.7c-0.3-0.6-0.6-1-0.8-1.4c-0.3-0.3-0.5-0.5-0.8-0.6s-0.5-0.1-0.8,0.1
		c-0.4,0.2-0.6,0.6-0.5,1.1c0.1,0.5,0.3,1.2,0.8,2.1c0.3,0.6,0.6,1.1,0.9,1.4c0.3,0.3,0.5,0.6,0.8,0.7c0.3,0.1,0.5,0.1,0.8-0.1
		c0.3-0.2,0.5-0.4,0.5-0.7c0.1-0.3,0-0.6-0.1-1C-244.6,391.8-244.9,391.3-245.2,390.7z"/>
</g>
<path class="st0" d="M-233.5,390.2l-7.3-11.1c-0.4-0.6-1-0.9-1.6-0.8c-0.3,0-0.7,0.1-1,0.3c-0.3,0.1-0.5,0.4-0.6,0.6
	c-0.7,1.3-1.7,2.3-3,3.1c-1.7,1.1-3.8,1.8-6,2.6c-2.3,0.8-4.7,1.6-6.9,3c-1.8,1.2-3.2,2.7-4.2,4.5c-0.3,0.6-0.3,1.4,0.1,1.9
	l7.3,11.1c0.4,0.5,1,0.9,1.6,0.8c0.4,0,0.7-0.1,1-0.3c0.3-0.2,0.5-0.4,0.6-0.7c0.7-1.3,1.7-2.3,3-3.1c1.7-1.1,3.8-1.8,6-2.6
	c2.3-0.8,4.7-1.6,6.9-3c1.8-1.2,3.2-2.7,4.2-4.5C-233.1,391.6-233.1,390.8-233.5,390.2z M-255.1,404.4c-2.4-3.7-4.9-7.4-7.3-11.1
	c4.4-7.9,15.6-5.2,20-13.2c2.4,3.7,4.9,7.4,7.3,11.1C-239.4,399.2-250.7,396.5-255.1,404.4z"/>
<path class="st0" d="M-251.1,397.7L-251.1,397.7c-0.7,0.3-1.3,0.7-2,1.1c-0.6,0.4-1.2,0.8-1.7,1.3l-0.8,0.7
	c-0.1,0.2-0.2,0.4-0.1,0.6c0.1,0.2,0.4,0.3,0.7,0.1c0,0,0.1,0,0.1-0.1l0.8-0.7c0.5-0.4,1-0.8,1.6-1.2c0.6-0.4,1.2-0.7,1.9-1l0,0
	c0,0,0,0,0.1,0c0.2-0.1,0.3-0.4,0.1-0.7C-250.6,397.7-250.9,397.6-251.1,397.7L-251.1,397.7z"/>
<path class="st0" d="M-245,385.1c-0.6,0.4-1.2,0.7-1.8,1c0,0-0.1,0-0.1,0.1c-0.2,0.1-0.3,0.4-0.1,0.7c0.1,0.2,0.4,0.3,0.6,0.1l0,0
	c0.7-0.3,1.3-0.7,2-1.1c0.6-0.4,1.2-0.8,1.7-1.3l0.7-0.7c0.2-0.2,0.2-0.4,0.1-0.6c-0.1-0.2-0.4-0.3-0.7-0.1l-0.1,0.1l-0.8,0.7
	C-243.9,384.3-244.4,384.7-245,385.1L-245,385.1z"/>
</svg>
