<?xml version="1.0" encoding="utf-8"?>
<!-- Generator: Adobe Illustrator 19.1.0, SVG Export Plug-In . SVG Version: 6.00 Build 0)  -->
<svg version="1.1" id="Layer_1" xmlns="http://www.w3.org/2000/svg" xmlns:xlink="http://www.w3.org/1999/xlink" x="0px" y="0px"
	 viewBox="0 0 41.3 36.3" style="enable-background:new 0 0 41.3 36.3;" xml:space="preserve">
<style type="text/css">
	.st0{fill:#FFFFFF;}
</style>
<g>
	<g>
		<path class="st0" d="M40.9,17.3c-0.3-0.3-0.8-0.5-1.2-0.5h-0.1c0.6-1.1,0.9-2.3,0.9-3.5c0-2.8-1.7-5.3-4.2-6.4
			c-0.1-3.8-3.2-6.9-7-6.9c-3.8,0-6.9,3.1-7,6.9c-0.1,0-0.3-0.1-0.4-0.1c-0.6,0-1.2,0.3-1.6,0.8l-0.2,0.2C20,8.1,19.8,8.2,19.5,8
			l-0.3-0.1C18.7,7.7,18,7.7,17.5,8c-0.5,0.3-0.9,0.9-0.9,1.5l0,0.3c0,0.1-0.1,0.3-0.1,0.4c-0.2-0.1-0.3-0.2-0.3-0.4l0-0.3
			c-0.1-0.6-0.4-1.1-0.8-1.4L17.5,5c0.4-0.6,0.6-1.4,0.5-2.1c-0.1-0.7-0.5-1.4-1.1-1.8c-1.3-0.9-3-0.6-3.9,0.7l-4,5.7
			C8.8,7.7,8.7,7.9,8.6,8.1c-0.1,0-0.1,0-0.2,0L8.1,7.9C7.5,7.7,6.9,7.7,6.3,8C5.8,8.3,5.4,8.9,5.4,9.5l0,0.3c0,0.2-0.2,0.4-0.5,0.5
			l-0.3,0c-0.6,0.1-1.2,0.4-1.5,0.9C2.8,11.8,2.8,12.4,3,13l0.1,0.3c0.1,0.2,0,0.5-0.2,0.6l-0.2,0.2c-0.5,0.4-0.8,0.9-0.8,1.6
			c0,0.4,0.1,0.8,0.4,1.1H1.7c-0.5,0-0.9,0.2-1.2,0.5C0.1,17.6,0,18.1,0,18.5c0.4,6.1,4.3,9.2,10,11.9c0.6,0.3,1.2,0.8,1.5,1.4
			c0.3,0.6,0.3,1.4-0.1,2c-0.3,0.5-0.3,1.1,0,1.6c0.3,0.5,0.8,0.8,1.4,0.8h15.9c0.6,0,1.1-0.3,1.4-0.8c0.3-0.5,0.3-1.1,0-1.6
			c-0.4-0.6-0.4-1.4-0.1-2c0.3-0.6,0.8-1.1,1.5-1.4c5.7-2.7,9.6-5.8,10-11.9C41.4,18.1,41.2,17.6,40.9,17.3L40.9,17.3z M39.1,13.3
			c0,1.3-0.4,2.5-1.2,3.5h-3.7V14c0-0.4-0.3-0.7-0.7-0.7c-0.4,0-0.7,0.3-0.7,0.7v2.8h-2.5c0.1-0.1,0.1-0.2,0.1-0.2c0,0,0,0,0,0
			c0.1-0.1,0.1-0.2,0.1-0.4c0,0,0-0.1,0-0.1c0-0.1,0-0.3,0-0.4c0-0.6-0.3-1.2-0.8-1.6L29.8,14c0.1,0,0.1,0,0.2,0c0.1,0,0.2,0,0.2,0
			c0.1,0,0.3,0,0.4-0.1c0.1,0,0.2,0,0.2,0c0.1,0,0.3-0.1,0.4-0.1c0.1,0,0.1,0,0.2-0.1c0.2-0.1,0.4-0.1,0.6-0.2c0.1,0,0.1,0,0.2-0.1
			c0.1-0.1,0.3-0.1,0.4-0.2c0.1,0,0.1-0.1,0.2-0.1c0.1-0.1,0.2-0.1,0.3-0.2c0.1-0.1,0.2-0.1,0.2-0.2c0.1-0.1,0.2-0.1,0.3-0.2
			c0.1-0.1,0.1-0.1,0.2-0.2c0.1-0.1,0.2-0.2,0.2-0.2c0.1-0.1,0.1-0.1,0.2-0.2c0.1-0.1,0.1-0.2,0.2-0.2c0.1-0.2,0.3-0.3,0.4-0.5
			c0-0.1,0.1-0.1,0.1-0.2c0.1-0.1,0.1-0.2,0.2-0.3c0-0.1,0.1-0.1,0.1-0.2c0.1-0.1,0.1-0.2,0.2-0.4c0-0.1,0.1-0.1,0.1-0.2
			c0.1-0.1,0.1-0.3,0.2-0.4c0,0,0-0.1,0-0.1c0.1-0.3,0.2-0.7,0.3-1.1C38,9.3,39.1,11.2,39.1,13.3L39.1,13.3z M29.3,1.4
			c3.1,0,5.6,2.5,5.6,5.6c0,0.1,0,0.2,0,0.3c0,0,0,0,0,0c0,0.7-0.2,1.4-0.5,2.1l0,0c-0.1,0.1-0.1,0.3-0.2,0.4c0,0,0,0,0,0.1
			C34,10,34,10.1,33.9,10.2c0,0,0,0.1-0.1,0.1c-0.1,0.1-0.2,0.2-0.3,0.3c0,0-0.1,0.1-0.1,0.1c-0.1,0.1-0.2,0.2-0.3,0.3
			c0,0-0.1,0.1-0.1,0.1c-0.1,0.1-0.2,0.1-0.3,0.2c0,0-0.1,0.1-0.1,0.1c-0.1,0.1-0.2,0.1-0.3,0.2c-0.1,0-0.1,0.1-0.2,0.1
			c-0.1,0.1-0.2,0.1-0.3,0.2c-0.1,0-0.1,0.1-0.2,0.1c-0.1,0-0.2,0.1-0.3,0.1c-0.1,0-0.1,0.1-0.2,0.1c-0.1,0-0.2,0.1-0.3,0.1
			c-0.1,0-0.2,0.1-0.2,0.1c-0.1,0-0.2,0-0.3,0.1c-0.1,0-0.2,0-0.2,0.1c-0.1,0-0.2,0-0.3,0c-0.1,0-0.2,0-0.3,0c0,0,0,0-0.1,0
			c0,0,0,0,0,0c0-0.1,0-0.3,0-0.4c0,0,0-0.1,0-0.1c0-0.1,0-0.2,0-0.3c0,0,0-0.1,0-0.1c0-0.1-0.1-0.3-0.2-0.4
			c-0.3-0.5-0.9-0.9-1.5-0.9l-0.3,0c-0.2,0-0.3-0.1-0.4-0.3l1.5-1.5c0.3-0.3,0.3-0.7,0-1c-0.3-0.3-0.7-0.3-1,0l-1,1
			c-0.1-0.2-0.3-0.4-0.5-0.5c-0.1-0.1-0.3-0.1-0.4-0.2c-0.1,0-0.1,0-0.2,0c-0.1,0-0.2,0-0.3,0c0,0,0,0,0,0c-0.1,0-0.2,0-0.2,0
			c-0.1,0-0.1,0-0.1,0c-0.1,0-0.3,0.1-0.4,0.1L24.3,8c-0.1,0-0.1,0-0.2,0c0,0,0,0,0,0c-0.1,0-0.1,0-0.2-0.1c-0.1-0.4-0.1-0.7-0.1-1
			C23.7,3.9,26.2,1.4,29.3,1.4L29.3,1.4z M17.9,9.9l0-0.3c0-0.2,0.1-0.3,0.3-0.4c0.1-0.1,0.3-0.1,0.5,0L19,9.3
			c0.8,0.4,1.8,0.1,2.4-0.6l0.2-0.2c0.2-0.3,0.6-0.3,0.8,0l0.2,0.2c0.4,0.5,0.9,0.8,1.5,0.8h0c0.1,0,0.2,0,0.3,0c0,0,0.1,0,0.1,0
			c0.1,0,0.1,0,0.2,0c0.1,0,0.2-0.1,0.3-0.1l0.3-0.1c0.2-0.1,0.3-0.1,0.5,0c0.1,0.1,0.2,0.2,0.3,0.4l0,0.3c0.1,0.9,0.8,1.6,1.7,1.7
			l0.3,0c0.2,0,0.3,0.1,0.4,0.3c0.1,0.1,0.1,0.3,0,0.5l-0.1,0.3c0,0,0,0,0,0c-0.2,0.6-0.2,1.2,0.1,1.7c0,0,0,0,0,0
			c0,0.1,0.1,0.1,0.1,0.2c0,0,0.1,0.1,0.1,0.1c0,0,0.1,0.1,0.1,0.1c0.1,0.1,0.1,0.1,0.2,0.2l0.2,0.2c0.1,0.1,0.2,0.3,0.2,0.4
			c0,0.2-0.1,0.3-0.2,0.4l-0.2,0.2c0,0,0,0,0,0c-0.1,0.1-0.2,0.1-0.3,0.2c0,0-0.1,0.1-0.1,0.1c0,0.1-0.1,0.1-0.1,0.2c0,0,0,0,0,0.1
			h-9.2c0.1-0.1,0.1-0.2,0.1-0.2c0,0,0,0,0,0c0.1-0.1,0.1-0.2,0.1-0.4c0,0,0-0.1,0-0.1c0-0.1,0-0.3,0.1-0.4c0-0.1,0-0.2,0-0.3
			c0-0.1,0-0.1,0-0.2c-0.1-0.2-0.1-0.4-0.3-0.6c-0.1-0.2-0.3-0.4-0.5-0.5l-0.2-0.2c-0.2-0.1-0.3-0.4-0.2-0.6l0.1-0.3
			c0.1-0.1,0.1-0.3,0.1-0.4c0,0,0-0.1,0-0.1c0-0.1,0-0.2,0-0.3c0-0.1,0-0.1,0-0.2c0-0.1,0-0.2,0-0.3c0-0.1,0-0.1-0.1-0.2
			c0,0,0-0.1,0-0.1c0,0,0,0,0-0.1c0,0,0-0.1,0-0.1c0-0.1-0.1-0.1-0.1-0.2c0,0-0.1-0.1-0.1-0.1c-0.1-0.1-0.2-0.2-0.3-0.2
			c0,0-0.1-0.1-0.1-0.1C17.8,10.4,17.9,10.1,17.9,9.9L17.9,9.9z M14.1,2.6c0.4-0.6,1.3-0.8,1.9-0.3c0.3,0.2,0.5,0.5,0.6,0.9
			c0.1,0.4,0,0.7-0.2,1L13.6,8l-1.3,1.8c-0.2,0.3-0.5,0.5-0.9,0.6c-0.4,0.1-0.7,0-1-0.2c0,0,0,0,0,0c-0.1-0.1-0.2-0.2-0.3-0.2
			c0,0,0,0-0.1-0.1C10,9.8,9.9,9.7,9.9,9.6c0,0,0,0,0,0c0-0.1-0.1-0.2-0.1-0.3c0,0,0-0.1,0-0.1c0-0.1,0-0.2,0-0.4
			c0-0.2,0.1-0.4,0.2-0.5L14.1,2.6z M3.8,16.2l-0.2-0.2c-0.1-0.1-0.2-0.3-0.2-0.4c0-0.2,0.1-0.3,0.2-0.4L3.8,15
			c0.8-0.5,1-1.5,0.6-2.4l-0.1-0.3c-0.1-0.2-0.1-0.3,0-0.5c0.1-0.1,0.2-0.2,0.4-0.3l0.3,0c0.9-0.1,1.6-0.8,1.7-1.7l0-0.3
			c0-0.2,0.1-0.3,0.3-0.4c0.1-0.1,0.3-0.1,0.5,0l0.3,0.1C8,9.4,8.2,9.5,8.4,9.5c0,0,0,0,0,0c0,0,0,0,0,0c0,0.1,0,0.2,0.1,0.2
			c0,0.1,0,0.2,0.1,0.3c0,0.1,0.1,0.2,0.1,0.3c0,0.1,0.1,0.1,0.1,0.2C8.9,10.7,9,10.8,9,10.9c0,0,0.1,0.1,0.1,0.1
			c0.1,0.1,0.3,0.3,0.4,0.4c0.1,0.1,0.3,0.2,0.4,0.3c0,0,0.1,0,0.1,0.1c0.1,0,0.2,0.1,0.3,0.1c0.1,0,0.1,0,0.2,0c0.1,0,0.2,0,0.4,0
			c0,0,0.1,0,0.1,0c0,0,0,0,0,0c0.2,0,0.3,0,0.5,0c0.7-0.1,1.4-0.5,1.8-1.1l1-1.5c0.1,0.1,0.2,0.2,0.2,0.4l0,0.3
			c0.1,0.9,0.8,1.6,1.7,1.7l0.3,0c0.1,0,0.1,0,0.2,0.1c0,0,0.1,0,0.1,0c0,0,0.1,0.1,0.1,0.1c0,0,0,0,0.1,0.1c0,0.1,0.1,0.1,0.1,0.2
			c0,0,0,0,0,0c0,0.1,0,0.2,0,0.2l-0.1,0.3c-0.1,0.3-0.2,0.7-0.2,1c0,0,0,0,0,0c0,0.1,0,0.2,0.1,0.3c0.1,0.4,0.4,0.8,0.7,1.1
			l0.2,0.1l0.1,0.1c0.1,0.1,0.2,0.3,0.2,0.4c0,0.1,0,0.2-0.1,0.2c0,0,0,0,0,0.1c0,0-0.1,0.1-0.1,0.1l0,0l-0.2,0.2
			c-0.1,0.1-0.2,0.1-0.3,0.2c0,0,0,0.1-0.1,0.1c-0.1,0.1-0.1,0.1-0.2,0.2c0,0,0,0,0,0H4.3C4.2,16.6,4,16.4,3.8,16.2L3.8,16.2z
			 M30.7,29.2"/>
	</g>
	<path class="st0" d="M25.8,30h-6.1c-0.4,0-0.7,0.3-0.7,0.7c0,0.4,0.3,0.7,0.7,0.7h6.1c0.4,0,0.7-0.3,0.7-0.7
		C26.5,30.3,26.2,30,25.8,30L25.8,30z M25.8,30"/>
	<path class="st0" d="M15.4,31.4h2.4c0.4,0,0.7-0.3,0.7-0.7c0-0.4-0.3-0.7-0.7-0.7h-2.4c-0.4,0-0.7,0.3-0.7,0.7
		C14.7,31.1,15,31.4,15.4,31.4L15.4,31.4z M15.4,31.4"/>
	<path class="st0" d="M25.8,32.1H15.4c-0.4,0-0.7,0.3-0.7,0.7c0,0.4,0.3,0.7,0.7,0.7h10.5c0.4,0,0.7-0.3,0.7-0.7
		C26.5,32.4,26.2,32.1,25.8,32.1L25.8,32.1z M25.8,32.1"/>
	<path class="st0" d="M27.8,6.5c0.1,0.1,0.3,0.2,0.5,0.2c0.2,0,0.4-0.1,0.5-0.2c0.3-0.3,0.3-0.7,0-1l-2-2c-0.3-0.3-0.7-0.3-1,0
		c-0.3,0.3-0.3,0.7,0,1L27.8,6.5z M27.8,6.5"/>
	<path class="st0" d="M31.8,10.4c0.1,0.1,0.3,0.2,0.5,0.2c0.2,0,0.4-0.1,0.5-0.2c0.3-0.3,0.3-0.7,0-1l-2-2c-0.3-0.3-0.7-0.3-1,0
		c-0.3,0.3-0.3,0.7,0,1L31.8,10.4z M31.8,10.4"/>
	<path class="st0" d="M30.3,6.7c0.2,0,0.4-0.1,0.5-0.2l2-2c0.3-0.3,0.3-0.7,0-1c-0.3-0.3-0.7-0.3-1,0l-2,2c-0.3,0.3-0.3,0.7,0,1
		C30,6.6,30.1,6.7,30.3,6.7L30.3,6.7z M30.3,6.7"/>
	<path class="st0" d="M34.2,12.6c0,0.4,0.3,0.7,0.7,0.7h2.8c0.4,0,0.7-0.3,0.7-0.7c0-0.4-0.3-0.7-0.7-0.7h-2.8
		C34.5,11.9,34.2,12.2,34.2,12.6L34.2,12.6z M34.2,12.6"/>
	<path class="st0" d="M21.3,12.9c0.2,0,0.4-0.1,0.5-0.2l1-1c0.3-0.3,0.3-0.7,0-1c-0.3-0.3-0.7-0.3-1,0l-1,1c-0.3,0.3-0.3,0.7,0,1
		C20.9,12.9,21.1,12.9,21.3,12.9L21.3,12.9z M21.3,12.9"/>
	<path class="st0" d="M24.6,14.5c0.1,0.1,0.3,0.2,0.5,0.2c0.2,0,0.4-0.1,0.5-0.2c0.3-0.3,0.3-0.7,0-1l-0.7-0.7c-0.3-0.3-0.7-0.3-1,0
		c-0.3,0.3-0.3,0.7,0,1L24.6,14.5z M24.6,14.5"/>
	<path class="st0" d="M21.9,14.2l-0.7,0.7c-0.3,0.3-0.3,0.7,0,1c0.1,0.1,0.3,0.2,0.5,0.2c0.2,0,0.4-0.1,0.5-0.2l0.7-0.7
		c0.3-0.3,0.3-0.7,0-1C22.6,13.9,22.1,13.9,21.9,14.2L21.9,14.2z M21.9,14.2"/>
</g>
</svg>
