<?xml version="1.0" encoding="utf-8"?>
<!-- Generator: Adobe Illustrator 19.1.0, SVG Export Plug-In . SVG Version: 6.00 Build 0)  -->
<svg version="1.1" id="Layer_1" xmlns="http://www.w3.org/2000/svg" xmlns:xlink="http://www.w3.org/1999/xlink" x="0px" y="0px"
	 viewBox="0 0 53.5 45.4" style="enable-background:new 0 0 53.5 45.4;" xml:space="preserve">
<style type="text/css">
	.st0{fill:#E3E3E3;}
</style>
<g>
	<path class="st0" d="M33.9,45.7H3.2c-0.5,0-0.9-0.4-0.9-0.9V17c0-0.4,0.2-0.6,0.5-0.8L18.1,7c0.3-0.2,0.6-0.2,0.9,0l15.3,9.2
		c0.3,0.2,0.5,0.5,0.5,0.8v27.8C34.8,45.4,34.5,45.7,33.9,45.7 M4.1,43.9H33V17.6L18.6,8.9L4.1,17.6V43.9z"/>
	<path class="st0" d="M15.9,34.9h-9c-0.5,0-0.9-0.4-0.9-0.9v-9c0-0.5,0.4-0.9,0.9-0.9h9c0.5,0,0.9,0.4,0.9,0.9v9
		C16.8,34.5,16.4,34.9,15.9,34.9 M7.7,33.1H15v-7.2H7.7V33.1z"/>
	<path class="st0" d="M51.1,45.7H33.9c-0.5,0-0.9-0.4-0.9-0.9V22.3c0-0.5,0.4-0.9,0.9-0.9h17.1c0.5,0,0.9,0.4,0.9,0.9v22.6
		C52,45.4,51.6,45.7,51.1,45.7 M34.8,43.9h15.3V23.2H34.8V43.9z"/>
	<path class="st0" d="M47.4,45.7H33.9c-0.5,0-0.9-0.4-0.9-0.9v-18c0-0.5,0.4-0.9,0.9-0.9h13.5c0.5,0,0.9,0.4,0.9,0.9v18
		C48.4,45.4,48,45.7,47.4,45.7 M34.8,43.9h11.7V27.7H34.8V43.9z"/>
	<path class="st0" d="M47.4,34.9H33.9c-0.5,0-0.9-0.4-0.9-0.9c0-0.5,0.4-0.9,0.9-0.9h13.5c0.5,0,0.9,0.4,0.9,0.9
		C48.4,34.5,48,34.9,47.4,34.9"/>
	<path class="st0" d="M47.4,31.3H33.9c-0.5,0-0.9-0.4-0.9-0.9c0-0.5,0.4-0.9,0.9-0.9h13.5c0.5,0,0.9,0.4,0.9,0.9
		C48.4,30.9,48,31.3,47.4,31.3"/>
	<path class="st0" d="M47.4,38.5H33.9c-0.5,0-0.9-0.4-0.9-0.9c0-0.5,0.4-0.9,0.9-0.9h13.5c0.5,0,0.9,0.4,0.9,0.9
		C48.4,38.2,48,38.5,47.4,38.5"/>
	<path class="st0" d="M47.4,42.1H33.9c-0.5,0-0.9-0.4-0.9-0.9c0-0.5,0.4-0.9,0.9-0.9h13.5c0.5,0,0.9,0.4,0.9,0.9
		C48.4,41.8,48,42.1,47.4,42.1"/>
	<path class="st0" d="M52.9,23.2H33.9c-0.5,0-0.9-0.4-0.9-0.9V17c0-0.4,0.2-0.6,0.5-0.8c0.3-0.2,0.6-0.2,0.9,0l1.4,0.8v-0.2
		c0-0.5,0.4-0.9,0.9-0.9h16.2c0.5,0,0.9,0.4,0.9,0.9v5.4C53.8,22.8,53.4,23.2,52.9,23.2 M34.8,21.4H52v-3.6H37.5v0.9
		c0,0.4-0.2,0.6-0.5,0.8c-0.3,0.2-0.6,0.2-0.9,0l-1.4-0.8V21.4z"/>
	<path class="st0" d="M19.5,42.1H3.2c-0.5,0-0.9-0.4-0.9-0.9c0-0.5,0.4-0.9,0.9-0.9h16.2c0.5,0,0.9,0.4,0.9,0.9
		C20.4,41.8,20,42.1,19.5,42.1"/>
	<path class="st0" d="M33.9,42.1h-3.6c-0.5,0-0.9-0.4-0.9-0.9c0-0.5,0.4-0.9,0.9-0.9h3.6c0.5,0,0.9,0.4,0.9,0.9
		C34.8,41.8,34.5,42.1,33.9,42.1"/>
	<path class="st0" d="M16.8,34.9H5.9C5.4,34.9,5,34.5,5,34c0-0.5,0.4-0.9,0.9-0.9h10.8c0.5,0,0.9,0.4,0.9,0.9
		C17.7,34.5,17.3,34.9,16.8,34.9"/>
	<g>
		<path class="st0" d="M15.9,30.4h-9c-0.5,0-0.9-0.4-0.9-0.9c0-0.5,0.4-0.9,0.9-0.9h9c0.5,0,0.9,0.4,0.9,0.9
			C16.8,30,16.4,30.4,15.9,30.4"/>
		<path class="st0" d="M36.6,19.6c-0.2,0-0.4,0-0.5-0.1L18.6,8.9L1,19.5c-0.3,0.2-0.6,0.2-0.9,0c-0.3-0.2-0.5-0.5-0.5-0.8v-4.5
			c0-0.4,0.2-0.6,0.5-0.8l18-10.8c0.3-0.2,0.6-0.2,0.9,0l18,10.8c0.3,0.2,0.5,0.5,0.5,0.8v4.5c0,0.4-0.2,0.6-0.5,0.8
			C36.9,19.6,36.8,19.6,36.6,19.6 M18.6,6.9c0.2,0,0.4,0,0.5,0.1l16.7,10v-2.4L18.6,4.4L1.4,14.7v2.4L18.1,7
			C18.2,6.9,18.4,6.9,18.6,6.9z"/>
	</g>
	<path class="st0" d="M30.3,45.7H19.5c-0.5,0-0.9-0.4-0.9-0.9V25c0-0.5,0.4-0.9,0.9-0.9h10.8c0.5,0,0.9,0.4,0.9,0.9v19.8
		C31.2,45.4,30.8,45.7,30.3,45.7 M20.4,43.9h9v-18h-9V43.9z"/>
	<path class="st0" d="M27.6,35.8h-0.9c-0.5,0-0.9-0.4-0.9-0.9s0.4-0.9,0.9-0.9h0.9c0.5,0,0.9,0.4,0.9,0.9S28.1,35.8,27.6,35.8"/>
	<path class="st0" d="M11.4,34.9c-0.5,0-0.9-0.4-0.9-0.9v-9c0-0.5,0.4-0.9,0.9-0.9c0.5,0,0.9,0.4,0.9,0.9v9
		C12.3,34.5,11.9,34.9,11.4,34.9"/>
</g>
</svg>
