<?xml version="1.0" encoding="utf-8"?>
<!-- Generator: Adobe Illustrator 19.1.0, SVG Export Plug-In . SVG Version: 6.00 Build 0)  -->
<svg version="1.1" id="Layer_1" xmlns="http://www.w3.org/2000/svg" xmlns:xlink="http://www.w3.org/1999/xlink" x="0px" y="0px"
	 viewBox="0 0 53.5 45.4" style="enable-background:new 0 0 53.5 45.4;" xml:space="preserve">
<style type="text/css">
	.st0{fill:#FFFFFF;}
</style>
<path class="st0" d="M44,37.2L31.8,17.9V8.2h1.6c0.4,0,0.8-0.2,1.1-0.5c0.3-0.3,0.5-0.7,0.5-1.1s-0.2-0.8-0.5-1.1
	c-0.3-0.3-0.7-0.5-1.1-0.5H20.9c-0.4,0-0.8,0.2-1.1,0.5c-0.3,0.3-0.5,0.7-0.5,1.1s0.2,0.8,0.5,1.1c0.3,0.3,0.7,0.5,1.1,0.5h1.6v9.7
	L10.2,37.2c-0.9,1.4-1.1,2.7-0.5,3.7c0.6,1,1.7,1.5,3.4,1.5h28c1.7,0,2.9-0.5,3.4-1.5C45.1,39.9,44.9,38.6,44,37.2L44,37.2z
	 M18.5,30l6.6-10.4l0.5-0.8V8.2h3.1v10.6l0.5,0.8L35.8,30H18.5z M18.5,30"/>
</svg>
