<?xml version="1.0" encoding="utf-8"?>
<!-- Generator: Adobe Illustrator 19.1.0, SVG Export Plug-In . SVG Version: 6.00 Build 0)  -->
<svg version="1.1" id="Layer_1" xmlns="http://www.w3.org/2000/svg" xmlns:xlink="http://www.w3.org/1999/xlink" x="0px" y="0px"
	 viewBox="0 0 65.2 41.3" style="enable-background:new 0 0 65.2 41.3;" xml:space="preserve">
<style type="text/css">
	.st0{fill:#E3E3E3;}
</style>
<g>
	<path class="st0" d="M62,23.2l-10-4.7c-0.5-0.2-1.1-0.2-1.5,0.1c-0.5,0.3-0.7,0.8-0.7,1.3v2.2l-7.8-3.6c-0.5-0.2-1.1-0.2-1.5,0.1
		c-0.5,0.3-0.7,0.8-0.7,1.3v2.2L38,21.3v-7.6c0-0.9-0.7-1.6-1.6-1.6h-1.8c-0.9,0-1.6,0.7-1.6,1.6V19l-1.2-0.5
		c-0.5-0.2-1.1-0.2-1.5,0.1c-0.2,0.1-0.4,0.3-0.5,0.5L29.2,2.2c0-0.9-0.7-1.5-1.6-1.5h-3c-0.9,0-1.6,0.7-1.6,1.5l-0.8,16.5l-0.3-0.1
		c-0.5-0.2-1.1-0.2-1.5,0.1c-0.5,0.3-0.7,0.8-0.7,1.3v19.1c0,0.9,0.7,1.6,1.6,1.6h40.1c0.9,0,1.6-0.7,1.6-1.6V24.6
		C62.9,24,62.5,23.4,62,23.2L62,23.2z M28.8,32.9c0,0.9-0.7,1.6-1.6,1.6h-2.7c-0.9,0-1.6-0.7-1.6-1.6v-3.8c0-0.9,0.7-1.6,1.6-1.6
		h2.7c0.9,0,1.6,0.7,1.6,1.6V32.9z M50.4,32.9c0,0.9-0.7,1.6-1.6,1.6h-2.7c-0.9,0-1.6-0.7-1.6-1.6v-3.8c0-0.9,0.7-1.6,1.6-1.6h2.7
		c0.9,0,1.6,0.7,1.6,1.6V32.9z M59.5,32.9c0,0.9-0.7,1.6-1.6,1.6h-2.7c-0.9,0-1.6-0.7-1.6-1.6v-3.8c0-0.9,0.7-1.6,1.6-1.6h2.7
		c0.9,0,1.6,0.7,1.6,1.6V32.9z M59.5,32.9"/>
</g>
</svg>
