<?xml version="1.0" encoding="utf-8"?>
<!-- Generator: Adobe Illustrator 19.1.0, SVG Export Plug-In . SVG Version: 6.00 Build 0)  -->
<svg version="1.1" id="Layer_1" xmlns="http://www.w3.org/2000/svg" xmlns:xlink="http://www.w3.org/1999/xlink" x="0px" y="0px"
	 viewBox="0 0 53.5 45.4" style="enable-background:new 0 0 53.5 45.4;" xml:space="preserve">
<style type="text/css">
	.st0{fill:#FFFFFF;}
	.st1{fill:#c88c00;}
</style>
<g>
	<path class="st0" d="M47.1,33c0,0.3-0.2,0.6-0.6,0.6H7c-0.3,0-0.6-0.2-0.6-0.6V5.6c0-0.3,0.2-0.6,0.6-0.6h39.5
		c0.3,0,0.6,0.2,0.6,0.6V33z"/>
	<path class="st0" d="M27.5,5.2v-2c0-0.4-0.3-0.7-0.7-0.7c-0.4,0-0.7,0.3-0.7,0.7v2H6.7v28.2h18.5L17,41.7c-0.3,0.3-0.3,0.7,0,1
		c0.1,0.1,0.3,0.2,0.5,0.2c0.2,0,0.3-0.1,0.5-0.2l8.3-8.3v6.4c0,0.4,0.3,0.7,0.7,0.7c0.4,0,0.7-0.3,0.7-0.7v-6.4l8.3,8.3
		c0.1,0.1,0.3,0.2,0.5,0.2c0.2,0,0.3-0.1,0.5-0.2c0.3-0.3,0.3-0.7,0-1l-8.3-8.3H47V5.2H27.5z"/>
	<polygon class="st1" points="45.7,32.1 45,32.1 45,13.3 38.3,13.3 38.3,32.1 37.6,32.1 37.6,22 30.9,22 30.9,32.1 30.2,32.1 
		30.2,17.3 23.5,17.3 23.5,32.1 22.8,32.1 22.8,21.4 16.1,21.4 16.1,32.1 15.4,32.1 15.4,25.4 8.7,25.4 8.7,32.1 8.1,32.1 8.1,6.6 
		45.7,6.6 	"/>
	<path class="st0" d="M17,12C17,12,16.9,12,16.8,12h-3.4c-0.4,0-0.7,0.3-0.7,0.7s0.3,0.7,0.7,0.7h1.7l-3.6,3.6
		c-0.3,0.3-0.3,0.7,0,0.9c0.1,0.1,0.3,0.2,0.5,0.2c0.2,0,0.3-0.1,0.5-0.2l3.6-3.6V16c0,0.4,0.3,0.7,0.7,0.7c0.4,0,0.7-0.3,0.7-0.7
		v-3.4c0-0.1,0-0.2-0.1-0.3C17.3,12.2,17.2,12.1,17,12L17,12z M17,12"/>
</g>
</svg>
