<?xml version="1.0" encoding="utf-8"?>
<!-- Generator: Adobe Illustrator 19.1.0, SVG Export Plug-In . SVG Version: 6.00 Build 0)  -->
<svg version="1.1" id="Layer_1" xmlns="http://www.w3.org/2000/svg" xmlns:xlink="http://www.w3.org/1999/xlink" x="0px" y="0px"
	 viewBox="-278 374.6 53.5 45.4" style="enable-background:new -278 374.6 53.5 45.4;" xml:space="preserve">
<style type="text/css">
	.st0{fill:#FFFFFF;}
</style>
<g>
	<path class="st0" d="M-231,379.8h-19.5v-2c0-0.4-0.3-0.7-0.7-0.7c-0.4,0-0.7,0.3-0.7,0.7v2h-19.4V408h18.5l-8.2,8.3
		c-0.3,0.3-0.3,0.7,0,1c0.1,0.1,0.3,0.2,0.5,0.2s0.3-0.1,0.5-0.2l8.3-8.3v6.4c0,0.4,0.3,0.7,0.7,0.7s0.7-0.3,0.7-0.7V409l8.3,8.3
		c0.1,0.1,0.3,0.2,0.5,0.2s0.3-0.1,0.5-0.2c0.3-0.3,0.3-0.7,0-1l-8.3-8.3h18.3V379.8z M-232.3,406.7h-0.7v-18.8h-6.7v18.8h-0.7
		v-10.1h-6.7v10.1h-0.7v-14.8h-6.7v14.8h-0.7V396h-6.7v10.7h-0.7V400h-6.7v6.7h-0.6v-25.5h37.6V406.7z"/>
	<path class="st0" d="M-261,386.6c0,0-0.1,0-0.2,0h-3.4c-0.4,0-0.7,0.3-0.7,0.7c0,0.4,0.3,0.7,0.7,0.7h1.7l-3.6,3.6
		c-0.3,0.3-0.3,0.7,0,0.9c0.1,0.1,0.3,0.2,0.5,0.2s0.3-0.1,0.5-0.2l3.6-3.6v1.7c0,0.4,0.3,0.7,0.7,0.7c0.4,0,0.7-0.3,0.7-0.7v-3.4
		c0-0.1,0-0.2-0.1-0.3C-260.7,386.8-260.8,386.7-261,386.6L-261,386.6z"/>
</g>
</svg>
