<?xml version="1.0" encoding="utf-8"?>
<!-- Generator: Adobe Illustrator 19.1.0, SVG Export Plug-In . SVG Version: 6.00 Build 0)  -->
<svg version="1.1" id="Layer_1" xmlns="http://www.w3.org/2000/svg" xmlns:xlink="http://www.w3.org/1999/xlink" x="0px" y="0px"
	 viewBox="0 0 56.3 39.3" style="enable-background:new 0 0 56.3 39.3;" xml:space="preserve">
<style type="text/css">
	.st0{fill:#E3E3E3;}
	.st1{fill:none;}
	.st2{fill:#FFFFFF;}
</style>
<g>
	<path class="st0" d="M40.6,1c-0.7-0.7-1.5-1-2.4-1H3.5C2.5,0,1.7,0.3,1,1C0.3,1.7,0,2.5,0,3.5V27c0,1,0.3,1.8,1,2.4
		c0.7,0.7,1.5,1,2.4,1h11.8c0,0.5-0.1,1.1-0.3,1.7c-0.2,0.6-0.5,1.1-0.7,1.5c-0.2,0.4-0.3,0.8-0.3,1c0,0.4,0.1,0.7,0.4,1
		c0.3,0.3,0.6,0.4,1,0.4h11.1c0.4,0,0.7-0.1,1-0.4c0.3-0.3,0.4-0.6,0.4-1c0-0.2-0.1-0.5-0.3-0.9c-0.2-0.4-0.5-1-0.7-1.5
		c-0.2-0.6-0.3-1.1-0.3-1.7h11.8c1,0,1.8-0.3,2.4-1c0.7-0.7,1-1.5,1-2.4V3.5C41.6,2.5,41.3,1.7,40.6,1L40.6,1z M38.8,21.5
		c0,0.2-0.1,0.3-0.2,0.5c-0.1,0.1-0.3,0.2-0.5,0.2H3.5c-0.2,0-0.4-0.1-0.5-0.2c-0.1-0.1-0.2-0.3-0.2-0.5v-18C2.8,3.3,2.8,3.1,3,3
		c0.1-0.1,0.3-0.2,0.5-0.2h34.7c0.2,0,0.4,0.1,0.5,0.2c0.1,0.1,0.2,0.3,0.2,0.5V21.5z M38.8,21.5"/>
</g>
<g>
	<path class="st0" d="M32.5,39.3c-0.5,0-1-0.2-1.3-0.6c-0.3-0.4-0.4-0.9-0.3-1.4l1.5-6c0,0,0-0.1,0-0.1c-0.1-0.2-0.1-0.5-0.1-0.7
		v-9.9c0-1.6,1.3-2.9,2.9-2.9h16.6c1.6,0,2.9,1.3,2.9,2.9v9.9c0,0.2,0,0.5-0.1,0.7c0,0,0,0.1,0,0.1l1.5,6c0,0.1,0.1,0.3,0.1,0.5
		c0,0.9-0.7,1.7-1.7,1.7H32.5z"/>
	<path class="st1" d="M55.6,37.3l-1.5-6c0-0.1-0.1-0.2-0.1-0.3c0.1-0.2,0.1-0.5,0.1-0.8v-9.9c0-1.2-1-2.2-2.2-2.2H35.3
		c-1.2,0-2.2,1-2.2,2.2v9.9c0,0.3,0,0.5,0.1,0.8c0,0.1-0.1,0.2-0.1,0.3l-1.5,6c-0.1,0.3,0,0.6,0.2,0.9c0.2,0.2,0.5,0.4,0.8,0.4h22.1
		c0.6,0,1-0.5,1-1C55.6,37.5,55.6,37.4,55.6,37.3L55.6,37.3z M52.2,30.3"/>
	<path class="st2" d="M55.6,37.3l-1.5-6c0-0.1-0.1-0.2-0.1-0.3c0.1-0.2,0.1-0.5,0.1-0.8v-9.9c0-1.2-1-2.2-2.2-2.2H35.3
		c-1.2,0-2.2,1-2.2,2.2v9.9c0,0.3,0,0.5,0.1,0.8c0,0.1-0.1,0.2-0.1,0.3l-1.5,6c-0.1,0.3,0,0.6,0.2,0.9c0.2,0.2,0.5,0.4,0.8,0.4h22.1
		c0.6,0,1-0.5,1-1C55.6,37.5,55.6,37.4,55.6,37.3L55.6,37.3z M46.1,37.1C46.1,37.1,46.1,37.1,46.1,37.1H41c-0.1,0-0.1,0-0.2-0.1
		c0,0-0.1-0.1,0-0.2l0.4-2.2c0-0.1,0.1-0.2,0.2-0.2h4.3c0.1,0,0.2,0.1,0.2,0.2l0.4,2.2c0,0,0,0,0,0.1C46.3,37,46.3,37.1,46.1,37.1
		L46.1,37.1z M52.2,30.3c0,0.1-0.1,0.2-0.2,0.3H35.2c-0.1,0-0.2-0.1-0.2-0.3v-9.9c0-0.2,0.1-0.3,0.3-0.3h16.6c0.2,0,0.3,0.1,0.3,0.3
		V30.3z M52.2,30.3"/>
	<path class="st2" d="M44.3,24.9l0.9-0.2c0.2,0,0.3-0.2,0.3-0.4c0-0.2-0.1-0.3-0.3-0.4l-4-1.5c-0.2-0.1-0.3,0-0.4,0.1
		c-0.1,0.1-0.2,0.3-0.1,0.4l1.5,4c0.1,0.2,0.2,0.3,0.4,0.3c0.2,0,0.3-0.1,0.4-0.3l0.2-0.9l2,2c0.2,0.2,0.4,0.2,0.6,0l0.5-0.5
		c0.2-0.2,0.2-0.4,0-0.6L44.3,24.9z M44.3,24.9"/>
</g>
</svg>
