<?xml version="1.0" encoding="utf-8"?>
<!-- Generator: Adobe Illustrator 19.1.0, SVG Export Plug-In . SVG Version: 6.00 Build 0)  -->
<svg version="1.1" id="Layer_1" xmlns="http://www.w3.org/2000/svg" xmlns:xlink="http://www.w3.org/1999/xlink" x="0px" y="0px"
	 viewBox="-277 377.7 56.3 39.3" style="enable-background:new -277 377.7 56.3 39.3;" xml:space="preserve">
<style type="text/css">
	.st0{fill:#FFFFFF;}
</style>
<path class="st0" d="M-250.2,409.9c-0.2-0.6-0.3-1.1-0.3-1.7h6.6c0-0.1,0-0.2,0-0.3v-8h-29.6c-0.2,0-0.4-0.1-0.5-0.2
	c-0.1-0.1-0.2-0.3-0.2-0.5v-18c0-0.2,0-0.4,0.2-0.5c0.1-0.1,0.3-0.2,0.5-0.2h34.7c0.2,0,0.4,0.1,0.5,0.2c0.1,0.1,0.2,0.3,0.2,0.5
	v14.6h2.8v-14.6c-0.1-1-0.4-1.8-1.1-2.5c-0.7-0.7-1.5-1-2.4-1h-34.7c-1,0-1.8,0.3-2.5,1s-1,1.5-1,2.5v23.5c0,1,0.3,1.8,1,2.4
	c0.7,0.7,1.5,1,2.4,1h11.8c0,0.5-0.1,1.1-0.3,1.7c-0.2,0.6-0.5,1.1-0.7,1.5c-0.2,0.4-0.3,0.8-0.3,1c0,0.4,0.1,0.7,0.4,1
	s0.6,0.4,1,0.4h11.1c0.4,0,0.7-0.1,1-0.4c0.3-0.3,0.4-0.6,0.4-1c0-0.2-0.1-0.5-0.3-0.9C-249.7,411-250,410.4-250.2,409.9z"/>
<path class="st0" d="M-222.9,409c0-0.1-0.1-0.2-0.1-0.3c0.1-0.2,0.1-0.5,0.1-0.8V398c0-1.2-1-2.2-2.2-2.2h-16.6
	c-1.2,0-2.2,1-2.2,2.2v9.9c0,0.3,0,0.5,0.1,0.8c0,0.1-0.1,0.2-0.1,0.3l-1.5,6c-0.1,0.3,0,0.6,0.2,0.9c0.2,0.2,0.5,0.4,0.8,0.4h22.1
	c0.6,0,1-0.5,1-1c-0.1-0.1-0.1-0.2-0.1-0.3L-222.9,409z M-230.7,414.6c0,0.1,0,0.2-0.2,0.2h-5.1c-0.1,0-0.1,0-0.2-0.1
	c0,0-0.1-0.1,0-0.2l0.4-2.2c0-0.1,0.1-0.2,0.2-0.2h4.3c0.1,0,0.2,0.1,0.2,0.2L-230.7,414.6C-230.7,414.5-230.7,414.5-230.7,414.6z
	 M-224.8,408c0,0.1-0.1,0.2-0.2,0.3h-16.8c-0.1,0-0.2-0.1-0.2-0.3v-9.9c0-0.2,0.1-0.3,0.3-0.3h16.6c0.2,0,0.3,0.1,0.3,0.3V408z"/>
<path class="st0" d="M-232.7,402.6l0.9-0.2c0.2,0,0.3-0.2,0.3-0.4c0-0.2-0.1-0.3-0.3-0.4l-4-1.5c-0.2-0.1-0.3,0-0.4,0.1
	c-0.1,0.1-0.2,0.3-0.1,0.4l1.5,4c0.1,0.2,0.2,0.3,0.4,0.3c0.2,0,0.3-0.1,0.4-0.3l0.2-0.9l2,2c0.2,0.2,0.4,0.2,0.6,0l0.5-0.5
	c0.2-0.2,0.2-0.4,0-0.6L-232.7,402.6z"/>
</svg>
