<?xml version="1.0" encoding="utf-8"?>
<!-- Generator: Adobe Illustrator 19.1.0, SVG Export Plug-In . SVG Version: 6.00 Build 0)  -->
<svg version="1.1" id="Layer_1" xmlns="http://www.w3.org/2000/svg" xmlns:xlink="http://www.w3.org/1999/xlink" x="0px" y="0px"
	 viewBox="0 0 53.5 45.4" style="enable-background:new 0 0 53.5 45.4;" xml:space="preserve">
<style type="text/css">
	.st0{fill:#FFFFFF;}
</style>
<g>
	<path class="st0" d="M51.5,7.9h-8.9c-0.4,0-0.8-0.4-0.8-0.8V5.7c0-0.4-0.4-0.8-0.8-0.8h-7.4c-0.4,0-0.8,0.4-0.8,0.8v1.4
		c0,0.4-0.4,0.8-0.8,0.8H23c-0.4,0-0.8,0.4-0.8,0.8v2.9c0,0.4,0.4,0.8,0.8,0.8h2.4c0.4,0,0.8,0.4,0.8,0.8l1.2,28.2
		c0,0.4,0.4,0.8,0.8,0.8h17.9c0.4,0,0.8-0.4,0.8-0.8l1.2-28.2c0-0.4,0.4-0.8,0.8-0.8h2.4c0.4,0,0.8-0.4,0.8-0.8V8.7
		C52.2,8.2,51.9,7.9,51.5,7.9z M33.9,35.4c0,0.4-0.3,0.8-0.8,0.8c-0.4,0-0.8-0.4-0.8-0.8V17.6c0-0.4,0.3-0.8,0.8-0.8
		c0.4,0,0.8,0.4,0.8,0.8V35.4z M38.4,35.4c0,0.4-0.3,0.8-0.7,0.8c-0.4,0-0.8-0.4-0.8-0.8V17.6c0-0.4,0.3-0.8,0.8-0.8
		c0.4,0,0.7,0.4,0.7,0.8V35.4z M42.9,35.4c0,0.4-0.3,0.8-0.8,0.8c-0.4,0-0.8-0.4-0.8-0.8V17.6c0-0.4,0.3-0.8,0.8-0.8
		c0.4,0,0.8,0.4,0.8,0.8V35.4z"/>
	<path class="st0" d="M12.5,30.7c4.9,0.2,6,3.1,6.2,4.6c1.1,0.5,2,1,2.8,1.5c-1.8-2.8-2.7-5-3.1-6.6c-1-0.4-2.6-1.7-2-4.8
		c0.8-4.3,5.6-5.9,5.6-5.9c-1.7,4.1,1.9,5.1,1.3,8.1c-0.3,1.7-2.5,2.3-3.6,2.6c-0.6-1.3-0.6-5.1-0.4-6.7c0,0-0.5,3.6-0.3,5.8
		c0.4,1.9,1.7,5.1,4.9,9.5c0.6,0.8,0.9,1.2,0.9,1.3c0.1,0.2,0,0.4-0.1,0.5c0,0,0,0,0,0c-0.2,0.1-0.4,0.1-0.6-0.1
		c-0.3-0.4-0.6-0.8-0.9-1.1c-0.8-0.8-2.1-1.9-4.5-3.1c0,0,0,0,0,0c-3.4-1.7-11-2.3-11-2.3c2.3,0.3,9,1.6,10.7,2.9
		c-0.7,1.4-2.5,4.2-5,4.1c-4.4-0.2-4.5-5.5-10.9-4.4C2.4,36.6,6.2,30.4,12.5,30.7L12.5,30.7z M12.5,30.7"/>
	<path class="st0" d="M11.8,29.7c-1.4-0.1-5,0-5.7-4c-1-5.5,3.8-9.6,3.8-9.6c-0.1,5.7,4.6,5.1,5.3,8.9c0.4,2.2-1.8,5.2-2.7,4.2
		c-2.5-2.5-3.6-4.1-3.6-8C7.8,25.5,11.8,29.7,11.8,29.7z"/>
</g>
</svg>
