<?xml version="1.0" encoding="utf-8"?>
<!-- Generator: Adobe Illustrator 19.1.0, SVG Export Plug-In . SVG Version: 6.00 Build 0)  -->
<svg version="1.1" id="Layer_1" xmlns="http://www.w3.org/2000/svg" xmlns:xlink="http://www.w3.org/1999/xlink" x="0px" y="0px"
	 viewBox="0 0 43.5 34.8" style="enable-background:new 0 0 43.5 34.8;" xml:space="preserve">
<style type="text/css">
	.st0{fill:#FFFFFF;}
</style>
<g>
	<g>
		<path class="st0" d="M19.7,31.2c1.6-1.8,2.5-4.3,2.5-7.2c0-4.2-2.9-8.3-4.5-10.4c-0.9-1.1-1.8-2.1-2.7-2.9V7.3
			c0-0.9-0.8-1.7-1.7-1.7h-0.9V3.3c1.4,0,3.7-0.1,4.5,0c0.6,0.1,2.1,0.5,2.8,0.7c0.1,0,0.3,0.1,0.4,0.1c0.5,0,1-0.3,1.2-0.9
			c0.2-0.7-0.1-1.4-0.8-1.6c-0.2-0.1-2.2-0.7-3.3-0.9c-0.7-0.1-1.9-0.1-3-0.1C13.9,0.3,13.5,0,13,0H6C5.4,0,4.8,0.6,4.8,1.3V2
			c0,0.7,0.6,1.3,1.3,1.3h3.8v2.4H9C8,5.6,7.3,6.4,7.3,7.3v3.4c-0.9,0.8-1.9,1.8-2.8,2.9C2.8,15.7,0,19.8,0,24
			c0,2.9,0.8,5.4,2.5,7.2c0,0.1-0.1,0.3-0.1,0.4l0,2c0,0.3,0.1,0.7,0.4,0.9c0.2,0.2,0.6,0.4,0.9,0.4h14.9c0.3,0,0.7-0.1,0.9-0.4
			c0.2-0.2,0.4-0.6,0.4-0.9l0-2C19.8,31.5,19.8,31.3,19.7,31.2L19.7,31.2z M11.1,29.7c-3.3,0-5.9-3-5.9-6.7c0-3.7,2.6-6.7,5.9-6.7
			c3.3,0,5.9,3,5.9,6.7C17,26.6,14.3,29.7,11.1,29.7L11.1,29.7z M11.1,29.7"/>
	</g>
	<g>
		<path class="st0" d="M36.6,14.1h-3.7c-0.8,0-1.5,0.7-1.5,1.5V19h6.7v-3.4C38.1,14.8,37.4,14.1,36.6,14.1"/>
		<path class="st0" d="M40.1,20c-0.2,0-0.4,0-0.5,0H30c-0.2,0-0.4,0-0.5,0c-1.9,0.3-3.3,1.9-3.3,3.8V31c0,2.1,1.7,3.9,3.9,3.9h9.6
			c2.1,0,3.9-1.7,3.9-3.9v-7.1C43.5,21.9,42,20.3,40.1,20 M34.8,30.5c-1.7,0-3.1-1.4-3.1-3.1c0-1.7,1.4-3.1,3.1-3.1
			c1.7,0,3.1,1.4,3.1,3.1C37.8,29.1,36.5,30.5,34.8,30.5z"/>
	</g>
</g>
</svg>
