<?xml version="1.0" encoding="utf-8"?>
<!-- Generator: Adobe Illustrator 19.1.0, SVG Export Plug-In . SVG Version: 6.00 Build 0)  -->
<svg version="1.1" id="Layer_1" xmlns="http://www.w3.org/2000/svg" xmlns:xlink="http://www.w3.org/1999/xlink" x="0px" y="0px"
	 viewBox="-278 374.6 53.5 45.4" style="enable-background:new -278 374.6 53.5 45.4;" xml:space="preserve">
<style type="text/css">
	.st0{fill:#FFFFFF;}
</style>
<g>
	<g>
		<path class="st0" d="M-227.4,393.7h-22.2V416v2.9h1.4v-1.5h19.3v1.5h1.4L-227.4,393.7z M-247.6,395.2h18.8v20.4h-18.8V395.2z"/>
		<path class="st0" d="M-249.7,393.2h22.3l1-1h-24.3L-249.7,393.2z"/>
		<path class="st0" d="M-246.4,396.1v8.3h16.4v-8.3H-246.4z M-232.8,401.4c-0.6,0-1.1-0.5-1.1-1.1c0-0.6,0.5-1.1,1.1-1.1
			c0.6,0,1.1,0.5,1.1,1.1C-231.7,400.9-232.2,401.4-232.8,401.4z"/>
		<path class="st0" d="M-246.4,405.9v8.3h16.4v-8.3H-246.4z M-232.8,411.5c-0.6,0-1.1-0.5-1.1-1.1c0-0.6,0.5-1.1,1.1-1.1
			c0.6,0,1.1,0.5,1.1,1.1C-231.7,411-232.2,411.5-232.8,411.5z"/>
	</g>
	<g>
		<g>
			<rect x="-274.2" y="417.8" class="st0" width="17.8" height="1.1"/>
		</g>
	</g>
	<g>
		<path class="st0" d="M-254.4,389.2v-8.9c0-1.5-1.2-2.6-2.6-2.6h-16.4c-1.4-0.1-2.6,1.1-2.6,2.6v8.9H-254.4 M-272.1,384.8h13.9v1.5
			h-13.9V384.8z"/>
		<path class="st0" d="M-276,391.5v0.5v22.2c0,1.5,1.2,2.6,2.6,2.6h16.3c1.5,0,2.6-1.2,2.6-2.6v-22.7H-276 M-272.1,394h13.9v1.7
			h-13.9V394z"/>
	</g>
</g>
</svg>
