<?xml version="1.0" encoding="utf-8"?>
<!-- Generator: Adobe Illustrator 19.1.0, SVG Export Plug-In . SVG Version: 6.00 Build 0)  -->
<svg version="1.1" id="Layer_1" xmlns="http://www.w3.org/2000/svg" xmlns:xlink="http://www.w3.org/1999/xlink" x="0px" y="0px"
	 viewBox="0 0 53.5 45.4" style="enable-background:new 0 0 53.5 45.4;" xml:space="preserve">
<style type="text/css">
	.st0{fill:#FFFFFF;}
	.st1{fill:#c88c00;}
</style>
<g>
	<g>
		<path class="st0" d="M31.6,29.8H48v-8.3H31.6V29.8z M47.2,25.7"/>
		<path class="st0" d="M50.6,19.1H28.4v22.3v2.9h1.4v-1.5h19.3v1.5h1.4L50.6,19.1z M30.4,20.6h18.8v20.4H30.4V20.6z M30.4,37"/>
		<path class="st0" d="M28.3,18.6h22.3l1-1H27.3L28.3,18.6z M28.9,18.6"/>
		<circle class="st1" cx="45.2" cy="25.7" r="1.1"/>
		<path class="st0" d="M31.6,39.6H48v-8.3H31.6V39.6z M47.2,36.7"/>
		<circle class="st1" cx="45.2" cy="35.8" r="1.1"/>
	</g>
	<g>
		<g>
			<rect x="3.8" y="43.2" class="st0" width="17.8" height="1.1"/>
		</g>
	</g>
	<g>
		<path class="st0" d="M23.6,14.6V5.7c0-1.5-1.2-2.6-2.6-2.6H4.6C3.2,3,2,4.2,2,5.7v8.9H23.6 M5.9,10.2h13.9v1.5H5.9V10.2z"/>
		<path class="st0" d="M2,16.9v0.5v22.2c0,1.5,1.2,2.6,2.6,2.6h16.3c1.5,0,2.6-1.2,2.6-2.6V16.9H2 M5.9,19.4h13.9v1.7H5.9V19.4z"/>
	</g>
</g>
</svg>
