<?xml version="1.0" encoding="utf-8"?>
<!-- Generator: Adobe Illustrator 19.1.0, SVG Export Plug-In . SVG Version: 6.00 Build 0)  -->
<svg version="1.1" id="Layer_1" xmlns="http://www.w3.org/2000/svg" xmlns:xlink="http://www.w3.org/1999/xlink" x="0px" y="0px"
	 viewBox="0 0 53.5 45.4" style="enable-background:new 0 0 53.5 45.4;" xml:space="preserve">
<style type="text/css">
	.st0{fill:#E3E3E3;}
</style>
<path class="st0" d="M12.2,25.5v7.6c0,0,6.4,7.1,15.4,7.1c11.3,0,15.4-7.1,15.4-7.1v-8.2l-13.3,7.8c-1,0.6-2.1,0.6-3.1,0.1
	L12.2,25.5z M12.2,25.5"/>
<path class="st0" d="M27.9,16.5c-1.7,0-3.3-0.3-4.2-1.1L7.7,21l19,9.5c1,0.5,2.1,0.5,3.1-0.1l22.1-12.9c1-0.6,1.6-1.7,1.6-2.9
	c0-1.2-0.7-2.3-1.8-2.8L28.8,0.3c-1-0.5-2.1-0.5-3.1,0.1L3.6,13.3c-1,0.6-1.6,1.7-1.6,2.9c0,1.2,0.7,2.3,1.8,2.8l0,11.7
	c-1.1,0.4-2,1.5-2,2.8c0,1,0.4,1.8,1.1,2.3c-0.2,1.6-1,2.8-1.9,3.6c-0.7,0.7-1.1,1.6-1,2.6c0.1,1,0.6,1.9,1.4,2.4l0.4,0.3
	c0.8,0.5,1.7,0.7,2.6,0.5c0.9-0.2,1.7-0.8,2.1-1.6c1.6-2.8,0.8-6.4,0.3-8.1c0.5-0.5,0.9-1.3,0.9-2.1c0-1.3-0.8-2.4-1.9-2.8l0-11.2
	l17.4-6c0.1-0.7,0.9-1.4,0.9-1.4c-0.1,0.2,0.1,2.6,3.7,2.6c2.1,0,3.8-0.7,3.8-2c0-0.3-0.1-0.5-0.2-0.8c0.6,0.7,1,1.6,1,2.2
	C32.3,15.8,30.3,16.5,27.9,16.5L27.9,16.5z M27.9,16.5"/>
</svg>
