<?xml version="1.0" encoding="utf-8"?>
<!-- Generator: Adobe Illustrator 19.1.0, SVG Export Plug-In . SVG Version: 6.00 Build 0)  -->
<svg version="1.1" id="Layer_1" xmlns="http://www.w3.org/2000/svg" xmlns:xlink="http://www.w3.org/1999/xlink" x="0px" y="0px"
	 viewBox="0 0 65.2 41.3" style="enable-background:new 0 0 65.2 41.3;" xml:space="preserve">
<style type="text/css">
	.st0{fill:#E3E3E3;}
</style>
<path class="st0" d="M48,9.3C39.2,4.1,32.7,3,32.7,3s0,0,0,0c0,0,0,0,0,0s-6.5,1.1-15.4,6.3c0,0-1.2,26.2,15.4,29.8c0,0,0,0,0,0
	c0,0,0,0,0,0C49.2,35.5,48,9.3,48,9.3L48,9.3z M32.7,5.2c1.5,0.3,6.5,1.6,13.2,5.3c0,4.8-0.9,23.2-13.2,26.2V5.2z M32.7,5.2"/>
</svg>
