<?xml version="1.0" encoding="utf-8"?>
<!-- Generator: Adobe Illustrator 19.1.0, SVG Export Plug-In . SVG Version: 6.00 Build 0)  -->
<svg version="1.1" id="Layer_1" xmlns="http://www.w3.org/2000/svg" xmlns:xlink="http://www.w3.org/1999/xlink" x="0px" y="0px"
	 viewBox="0 0 65.2 41.3" style="enable-background:new 0 0 65.2 41.3;" xml:space="preserve">
<style type="text/css">
	.st0{fill:#E3E3E3;}
</style>
<path class="st0" d="M49,14.3v-1.2c0-2.5-2-4.5-4.5-4.5H29.6l-4.3-3.9h-8.6c-2.5,0-4.5,2-4.5,4.5V34c0,2.5,2,4.5,4.5,4.5l25.6,0
	l2.1,0c0,0,0,0,0.1,0c2.4-0.1,4.3-1.9,4.4-4.3l4.1-19.9L49,14.3z M45.5,14.3H21.5l-4,20.7h-0.8c-0.6,0-1-0.5-1-1V9.3
	c0-0.6,0.5-1,1-1H24l4.3,3.9h16.2c0.6,0,1,0.5,1,1V14.3z"/>
</svg>
