<?xml version="1.0" encoding="utf-8"?>
<!-- Generator: Adobe Illustrator 19.1.0, SVG Export Plug-In . SVG Version: 6.00 Build 0)  -->
<svg version="1.1" id="Layer_1" xmlns="http://www.w3.org/2000/svg" xmlns:xlink="http://www.w3.org/1999/xlink" x="0px" y="0px"
	 viewBox="0 0 53.5 45.4" style="enable-background:new 0 0 53.5 45.4;" xml:space="preserve">
<style type="text/css">
	.st0{fill:#FFFFFF;}
</style>
<path class="st0" d="M35.4,31.1C35.4,31.1,35.4,31.1,35.4,31.1L35.4,31.1c1.5,1,3.6,0.9,4.9-0.5c1.3-1.3,3.2-5.1,2.6-7l0,0l0,0l0,0
	l0,0c-1.9-0.6-5.7,1.2-7,2.5c-0.2,0.2-0.4,0.4-0.5,0.7l0-4.6c0,0,0,0.1,0,0.1l0,0l0,0c0,0,0,0,0,0l0,0c1.5,1,3.6,0.9,4.9-0.5
	c1.3-1.3,3.2-5.1,2.6-7l0,0l0,0c0,0,0,0,0,0l0,0c-1.9-0.6-5.7,1.2-7,2.5c-0.2,0.2-0.4,0.4-0.5,0.7l0-4.6c1.6-0.5,2.7-1.9,2.7-3.7
	c0-1.9-1.3-5.8-3.1-6.8v0c0,0,0,0,0,0c0,0,0,0,0,0v0c-1.8,0.9-3.2,4.8-3.2,6.7c0,1.7,1.1,3.2,2.7,3.7l0,4.6
	c-0.1-0.2-0.3-0.5-0.5-0.7c-1.3-1.3-5.1-3.2-7-2.6l0,0c0,0,0,0,0,0l0,0l0,0c-0.6,1.9,1.2,5.7,2.5,7c1.3,1.3,3.4,1.5,4.9,0.5l0,0
	c0,0,0,0,0,0l0,0l0,0c0,0,0-0.1,0-0.1l0,4.6c-0.1-0.2-0.3-0.5-0.5-0.7c-1.3-1.3-5.1-3.2-7-2.6l0,0c0,0,0,0,0,0l0,0l0,0
	c-0.6,1.9,1.2,5.7,2.5,7c1.3,1.3,3.4,1.5,4.9,0.5l0,0c0,0,0,0,0,0l0,0l0,0c0,0,0-0.1,0-0.1l0,4.6c-0.1-0.2-0.3-0.5-0.5-0.7
	c-1.3-1.3-5.1-3.2-7-2.6l0,0c0,0,0,0,0,0l0,0l0,0c-0.6,1.9,1.2,5.7,2.5,7c1.3,1.3,3.4,1.5,4.9,0.5l0,0c0,0,0,0,0,0l0,0l0,0
	c0,0,0-0.1,0-0.1l0,5.4c-0.1-0.2-0.3-0.4-0.4-0.6c-1.1-1.1-4.2-2.6-5.7-2.1l0,0l0,0l0,0l0,0c-0.5,1.6,1,4.6,2.1,5.8
	c1.1,1.1,2.8,1.2,4,0.4l0,0c0,0,0,0,0,0s0,0,0,0l0,0c0,0,0-0.1,0.1-0.1l0,1c-0.7,0.2-1.3,0.8-1.3,1.6c0,0.9,0.8,1.7,1.7,1.7
	c0.9,0,1.7-0.8,1.7-1.7c0-0.8-0.5-1.5-1.3-1.7l0-1c0,0,0,0.1,0.1,0.1l0,0c0,0,0,0,0,0s0,0,0,0l0,0c1.2,0.8,2.9,0.7,4-0.4
	c1.1-1.1,2.6-4.2,2.1-5.7l0,0l0,0l0,0l0,0c-1.6-0.5-4.7,1-5.7,2.1c-0.2,0.2-0.3,0.4-0.4,0.6l0-5.4c0,0,0,0.1,0.1,0.1l0,0l0,0
	c0,0,0,0,0,0l0,0c1.5,1,3.6,0.9,4.9-0.5c1.3-1.3,3.2-5.1,2.6-7l0,0l0,0l0,0l0,0c-1.9-0.6-5.7,1.2-7,2.5c-0.2,0.2-0.4,0.4-0.5,0.7
	l0-4.6C35.3,31,35.3,31,35.4,31.1L35.4,31.1L35.4,31.1z M35.4,31.1"/>
<path class="st0" d="M30.1,58.4c0.9-0.3,1.6-1,1.9-1.9c0.5-1.5,0.6-4.9-0.5-6.1l0,0l0,0l0,0l0,0c-1.6,0.2-3.8,2.9-4.3,4.3
	C27,54.9,27,55.2,27,55.4l-2.3-4.9c0,0,0.1,0,0.1,0.1l0,0l0,0c0,0,0,0,0,0l0,0c1.8,0.3,3.6-0.7,4.3-2.5c0.7-1.8,0.8-5.9-0.6-7.4l0,0
	l0,0l0,0l0,0c-2,0.2-4.6,3.5-5.3,5.2c-0.1,0.3-0.2,0.5-0.2,0.8L21,42.5c0,0,0.1,0,0.1,0.1l0,0l0,0c0,0,0,0,0,0l0,0
	c1.8,0.3,3.6-0.7,4.3-2.5c0.7-1.8,0.8-5.9-0.6-7.4l0,0l0,0l0,0l0,0c-2,0.2-4.6,3.5-5.3,5.2c-0.1,0.3-0.2,0.5-0.2,0.8l-1.9-4.2
	c0,0,0.1,0,0.1,0.1l0,0l0,0c0,0,0,0,0,0l0,0c1.8,0.3,3.6-0.7,4.3-2.5c0.7-1.8,0.8-5.9-0.6-7.4l0,0l0,0c0,0,0,0,0,0l0,0
	c-2,0.2-4.6,3.5-5.3,5.2c-0.1,0.3-0.2,0.5-0.2,0.8l-1.9-4.2c1.2-1.1,1.7-2.9,0.9-4.5c-0.8-1.7-3.7-4.7-5.7-4.8l0,0c0,0,0,0,0,0
	c0,0,0,0,0,0l0,0c-1.2,1.6-0.8,5.7,0,7.4c0.7,1.6,2.4,2.4,4,2.2l1.9,4.2c-0.2-0.2-0.5-0.3-0.8-0.4c-1.8-0.7-5.9-0.8-7.4,0.6l0,0
	c0,0,0,0,0,0l0,0l0,0c0.2,2,3.5,4.6,5.2,5.3c1.8,0.7,3.7-0.1,4.7-1.6l0,0c0,0,0,0,0,0l0,0l0,0c0,0,0-0.1,0-0.1l1.9,4.2
	c-0.2-0.2-0.5-0.3-0.8-0.4c-1.8-0.7-5.9-0.8-7.4,0.6l0,0c0,0,0,0,0,0l0,0l0,0c0.2,2,3.5,4.6,5.2,5.3c1.8,0.7,3.7-0.1,4.7-1.6l0,0
	c0,0,0,0,0,0l0,0l0,0c0,0,0-0.1,0-0.1l1.9,4.2c-0.2-0.2-0.5-0.3-0.8-0.4c-1.8-0.7-5.9-0.8-7.4,0.6l0,0c0,0,0,0,0,0l0,0l0,0
	c0.2,2,3.5,4.6,5.2,5.3c1.8,0.7,3.7-0.1,4.7-1.6l0,0c0,0,0,0,0,0l0,0l0,0c0,0,0-0.1,0-0.1l2.3,4.9c-0.2-0.1-0.4-0.2-0.6-0.3
	c-1.5-0.5-4.9-0.6-6.1,0.5l0,0l0,0l0,0l0,0c0.2,1.6,2.9,3.8,4.3,4.3c1.5,0.5,3-0.1,3.8-1.3l0,0c0,0,0,0,0,0s0,0,0,0l0,0
	c0,0,0-0.1,0-0.1l0.4,0.9c-0.6,0.5-0.8,1.3-0.5,2c0.4,0.9,1.4,1.2,2.3,0.8c0.9-0.4,1.2-1.4,0.8-2.3c-0.3-0.7-1.1-1.1-1.8-1l-0.4-0.9
	c0,0,0.1,0,0.1,0.1l0,0c0,0,0,0,0,0s0,0,0,0l0,0C29,58.6,29.6,58.6,30.1,58.4 M21.1,42.6"/>
</svg>
