<?xml version="1.0" encoding="utf-8"?>
<!-- Generator: Adobe Illustrator 19.1.0, SVG Export Plug-In . SVG Version: 6.00 Build 0)  -->
<svg version="1.1" id="Layer_1" xmlns="http://www.w3.org/2000/svg" xmlns:xlink="http://www.w3.org/1999/xlink" x="0px" y="0px"
	 viewBox="0 0 53.5 45.4" style="enable-background:new 0 0 53.5 45.4;" xml:space="preserve">
<style type="text/css">
	.st0{fill:#FFFFFF;}
</style>
<g>
	<path class="st0" d="M25.7,18.8c0.8,1.9,1.4,3.9,1.9,5.9c0,0.1,0.1,0.2,0.2,0.2c0.1,0,0.1,0,0.2,0c0,0,0.1,0,0.1,0l6.8-2.5
		c0.1,0-1.2,0.7-1.1,0.6c0-0.1,0-0.2,0-0.3l1-1.6c-1.6-3.8-4-7.6-7.3-11.6c-1.6-1.9-3.3-3.8-5.3-5.6C20.5,2.5,17.6,2,16,0.8
		c-0.1-0.1-0.4-0.1-0.5,0.1c-0.3,0.3-0.8,1-0.8,1c-0.1,0.1-0.1,0.3,0,0.5c0,0,0.2,0.2,0.2,0.2c0.2,0.2,0.3,0.3,0.5,0.5
		C15.7,3.3,16,3.7,16.3,4c0.7,0.9,1.5,1.8,2.3,2.8c1.5,2,2.9,4.1,4.1,6.1c0.1,0.2,0.2,0.3,0.3,0.4L3.9,25.9c-1,0.6-1.3,2-0.6,3
		c0.4,0.6,1.1,1,1.8,1c0.4,0,0.8-0.1,1.2-0.3L25,17.2C25.2,17.7,25.5,18.3,25.7,18.8L25.7,18.8z M25.7,18.8"/>
	<path class="st0" d="M32.1,32.3l-8.3,4.9L11.6,47.8l41.9-0.3V13.9l-13.8,4.3L32.1,32.3z M32.1,32.3"/>
	<path class="st0" d="M14.3,35l-4.7-1.6l-0.4,2.3l1.1,3.5l3.5-1.1L14.3,35z M14.3,35"/>
	<path class="st0" d="M8.1,45l3.3,1.7l1.9-1.3l-0.7-4.3l-4.1,0.7L8.1,45z M8.1,45"/>
	<path class="st0" d="M21.6,31.2l-2.4,0.4l-0.2,1.9l1.9,1l1.1-0.8L21.6,31.2z M21.6,31.2"/>
	<path class="st0" d="M24.6,30.1L24,32.7l1.2,1.1l2.9-1.2l-1.2-2.8L24.6,30.1z M24.6,30.1"/>
	<path class="st0" d="M19.4,36.6l-0.1,1.1l1.1,0.6l0.6-0.4l-0.2-1.4L19.4,36.6z M19.4,36.6"/>
	<path class="st0" d="M15.5,38.6l0.9,1.1l1-0.4l-0.1-1.2l-0.7-0.3L15.5,38.6z M15.5,38.6"/>
</g>
</svg>
