<?xml version="1.0" encoding="utf-8"?>
<!-- Generator: Adobe Illustrator 19.1.0, SVG Export Plug-In . SVG Version: 6.00 Build 0)  -->
<svg version="1.1" id="Layer_1" xmlns="http://www.w3.org/2000/svg" xmlns:xlink="http://www.w3.org/1999/xlink" x="0px" y="0px"
	 viewBox="0 0 65.2 41.3" style="enable-background:new 0 0 65.2 41.3;" xml:space="preserve">
<style type="text/css">
	.st0{fill:#E3E3E3;}
	.st1{fill:#FFFFFF;}
</style>
<g>
	<path class="st0" d="M50.1,15l-27.2-13c-0.3-0.2-0.7,0-0.8,0.3l-5.6,10.5h3.2l4.1-7.2l23.6,11.3l-7.4,15.4l-4.2-2v8.1l2.6,1.2
		c0.3,0.2,0.7,0,0.8-0.3l11.2-23.5C50.6,15.6,50.4,15.2,50.1,15L50.1,15z M50.1,15"/>
	<path class="st0" d="M33.3,14H3.2c-0.3,0-0.6,0.3-0.6,0.6v26.1c0,0.4,0.3,0.6,0.6,0.6h30.1c0.3,0,0.6-0.3,0.6-0.6V14.6
		C33.9,14.3,33.6,14,33.3,14L33.3,14z M31.5,34h-1.9c-1.1-2.8-2.5-6.8-4.6-6.3c-2.4,0.6-3.6,6.3-3.6,6.3s-1.2-6.4-4.7-9.8
		C13.3,20.7,10,34,10,34H5.4V16.9h26.1V34z M31.5,34"/>
	<path class="st0" d="M11.8,20.6c0,1.2-1,2.1-2.1,2.1c-1.2,0-2.1-1-2.1-2.1c0-1.2,1-2.1,2.1-2.1C10.8,18.4,11.8,19.4,11.8,20.6
		L11.8,20.6z M11.8,20.6"/>
	<path class="st0" d="M23.9,22.1c0.5,0,0.9-0.1,1.3-0.1c0.5,0.2,1,0.3,1.6,0.3c1.6,0,2.8-0.8,2.8-1.7c0-0.9-1.3-1.7-2.8-1.7
		c-0.6,0-1.1,0.1-1.6,0.3c-0.2-0.2-0.4-0.3-0.7-0.3h-0.4c-0.5,0-0.9,0.4-1,0.9c-1.3,0.1-2.2,0.6-2.2,1.1
		C21,21.5,22.3,22.1,23.9,22.1L23.9,22.1z M23.9,22.1"/>
</g>
<g>
	<circle class="st1" cx="46.3" cy="43.6" r="21.2"/>
	<g>
		<path class="st0" d="M49.1,41.3l7.7-6.6l-5.2-8.1l-10.4,1l-2,9.1L49.1,41.3z M49.1,41.3"/>
		<path class="st0" d="M41.2,55.9l3.8,6.7l10-1.5l3.5-7.6l-8.6-3.4L41.2,55.9z M41.2,55.9"/>
		<path class="st0" d="M24.7,46.5l0.1,0.2C25.8,55.3,32,62.7,40.9,65c11.6,3,23.4-4,26.4-15.6c3-11.6-4-23.4-15.6-26.4
			c-11.6-3-23.4,4-26.4,15.6c-0.7,2.6-0.8,5.2-0.6,7.7L24.7,46.5z M26.5,38.5c0.7-2.6,1.7-4.6,3.3-6.7l7.5-4.5l0.9-2.1
			c4-1.7,8.7-2.2,13.2-1c0.1,0,0.2,0.1,0.3,0.1l2,1.4l4.7,1.9c2.8,2.1,5,4.8,6.5,8l-1.7,3.3l0.9,9.9l1.9,1.1
			c-3.1,10.6-14.1,17-24.8,14.2c-5.4-1.4-9.7-4.8-12.4-9.2l4.7-2.3L32.3,42c0,0-3.9-2.1-5.9-3.1L26.5,38.5z M26.4,38.9"/>
	</g>
</g>
</svg>
