<?xml version="1.0" encoding="utf-8"?>
<!-- Generator: Adobe Illustrator 19.1.0, SVG Export Plug-In . SVG Version: 6.00 Build 0)  -->
<svg version="1.1" id="Layer_1" xmlns="http://www.w3.org/2000/svg" xmlns:xlink="http://www.w3.org/1999/xlink" x="0px" y="0px"
	 viewBox="-272 376.7 65.2 41.3" style="enable-background:new -272 376.7 65.2 41.3;" xml:space="preserve">
<style type="text/css">
	.st0{fill:#FFFFFF;}
</style>
<path class="st0" d="M-260.2,397.3c0,1.2-1,2.1-2.1,2.1c-1.2,0-2.1-1-2.1-2.1c0-1.2,1-2.1,2.1-2.1
	C-261.2,395.1-260.2,396.1-260.2,397.3L-260.2,397.3z"/>
<path class="st0" d="M-248.1,398.8c0.5,0,0.9-0.1,1.3-0.1c0.5,0.2,1,0.3,1.6,0.3c1.6,0,2.8-0.8,2.8-1.7s-1.3-1.7-2.8-1.7
	c-0.6,0-1.1,0.1-1.6,0.3c-0.2-0.2-0.4-0.3-0.7-0.3h-0.4c-0.5,0-0.9,0.4-1,0.9c-1.3,0.1-2.2,0.6-2.2,1.1
	C-251,398.2-249.7,398.8-248.1,398.8L-248.1,398.8z"/>
<path class="st0" d="M-222.9,418l7.7-6.6l-5.2-8.1l-10.4,1l-2,9.1L-222.9,418z"/>
<path class="st0" d="M-227.3,399.2c0.5,0,1-0.1,1.6-0.1c0.3,0,0.6,0,0.9,0l3.2-6.6c0.2-0.2,0-0.6-0.3-0.8l-27.2-13
	c-0.3-0.2-0.7,0-0.8,0.3l-5.6,10.5h3.2l4.1-7.2l23.6,11.3L-227.3,399.2z"/>
<path class="st0" d="M-243.3,408.4c-1-2.3-2.1-4.4-3.7-4c-2.4,0.6-3.6,6.3-3.6,6.3s-1.2-6.4-4.7-9.8c-3.4-3.5-6.7,9.8-6.7,9.8h-4.6
	v-17.1h26.1V405c0.7-0.7,1.6-1.4,2.4-2v-11.7c0-0.3-0.3-0.6-0.6-0.6h-30.1c-0.3,0-0.6,0.3-0.6,0.6v26.1c0,0.4,0.3,0.6,0.6,0.6h22
	C-246.4,414.5-245.2,411.2-243.3,408.4z"/>
<path class="st0" d="M-247.3,423.2l0.1,0.2c1,8.6,7.2,16,16.1,18.3c11.6,3,23.4-4,26.4-15.6s-4-23.4-15.6-26.4
	c-11.6-3-23.4,4-26.4,15.6c-0.7,2.6-0.8,5.2-0.6,7.7L-247.3,423.2z M-245.5,415.2c0.7-2.6,1.7-4.6,3.3-6.7l7.5-4.5l0.9-2.1
	c4-1.7,8.7-2.2,13.2-1c0.1,0,0.2,0.1,0.3,0.1l2,1.4l4.7,1.9c2.8,2.1,5,4.8,6.5,8l-1.7,3.3l0.9,9.9l1.9,1.1
	c-3.1,10.6-14.1,17-24.8,14.2c-5.4-1.4-9.7-4.8-12.4-9.2l4.7-2.3l-1.2-10.6c0,0-3.9-2.1-5.9-3.1L-245.5,415.2z"/>
</svg>
