<?xml version="1.0" encoding="utf-8"?>
<!-- Generator: Adobe Illustrator 19.1.0, SVG Export Plug-In . SVG Version: 6.00 Build 0)  -->
<svg version="1.1" id="Layer_1" xmlns="http://www.w3.org/2000/svg" xmlns:xlink="http://www.w3.org/1999/xlink" x="0px" y="0px"
	 viewBox="0 0 65.2 41.3" style="enable-background:new 0 0 65.2 41.3;" xml:space="preserve">
<style type="text/css">
	.st0{fill:#E3E3E3;}
</style>
<g>
	<path class="st0" d="M50.3,8.1V2.5h-39v30.6c0,0,0,5.6,5.6,5.6h34.8c0,0,4.2-0.1,4.2-5.6V8.1H50.3z M16.9,35.9
		c-2.8,0-2.8-2.8-2.8-2.8V5.3h33.4v27.8c0,1.3,0.4,2.2,0.9,2.8H16.9z M16.9,35.9"/>
	<rect x="16.9" y="10.9" class="st0" width="27.8" height="2.8"/>
	<rect x="32.2" y="27.6" class="st0" width="9.7" height="2.8"/>
	<rect x="32.2" y="22" class="st0" width="12.5" height="2.8"/>
	<rect x="32.2" y="16.4" class="st0" width="12.5" height="2.8"/>
	<rect x="16.9" y="16.4" class="st0" width="12.5" height="13.9"/>
</g>
</svg>
