<?xml version="1.0" encoding="utf-8"?>
<!-- Generator: Adobe Illustrator 19.1.0, SVG Export Plug-In . SVG Version: 6.00 Build 0)  -->
<svg version="1.1" id="Layer_1" xmlns="http://www.w3.org/2000/svg" xmlns:xlink="http://www.w3.org/1999/xlink" x="0px" y="0px"
	 viewBox="0 0 53.5 45.4" style="enable-background:new 0 0 53.5 45.4;" xml:space="preserve">
<style type="text/css">
	.st0{fill:#E3E3E3;}
</style>
<g>
	<path class="st0" d="M26.7,24c2.3,0,4.3-1.5,5-3.6c-1.4,0.4-3.1,0.6-5,0.6c-1.9,0-3.6-0.2-5-0.6C22.5,22.5,24.4,24,26.7,24L26.7,24
		z M26.7,24"/>
	<path class="st0" d="M53.3,26.6c-0.1-0.3-0.3-0.6-0.6-0.7l-10.1-4.7c-2.2-0.7-4.4-1.3-6.6-1.7c-0.1,0-0.2,0-0.2,0
		c-0.5,0-1,0.4-1.2,0.9c-0.8,3.6-4,6.2-7.8,6.2s-7-2.7-7.8-6.2c-0.1-0.6-0.6-0.9-1.2-0.9c-0.1,0-0.2,0-0.2,0c-2.2,0.4-4.4,1-6.6,1.7
		L0.9,25.9c-0.3,0.1-0.5,0.4-0.6,0.7c-0.1,0.3-0.1,0.6,0.1,0.9l4.4,8.7c0.2,0.4,0.6,0.7,1.1,0.7c0.1,0,0.2,0,0.3-0.1l4.9-1.4v29.1
		c0,0.7,0.5,1.2,1.2,1.2h29.1c0.7,0,1.2-0.5,1.2-1.2V35.4l4.9,1.4c0.1,0,0.2,0.1,0.3,0.1c0.4,0,0.9-0.2,1.1-0.7l4.4-8.7
		C53.3,27.3,53.4,26.9,53.3,26.6L53.3,26.6z M53.3,26.6"/>
</g>
<path class="st0" d="M33.5,11c-0.1,0-0.3-0.1-0.3-0.3c0-1.1,0.9-2.1,2.1-2.1h0c0.1,0,0.2,0,0.3-0.1c0.1-0.1,0.1-0.2,0.1-0.3
	c-1-3.5-4-6.2-7.7-6.8c-0.2-0.6-0.8-1.1-1.5-1.1c-0.7,0-1.3,0.4-1.5,1.1c-4.5,0.7-8,4.7-8,9.4v0.4h-5.8c-0.6,0-1.1,0.5-1.1,1.1
	c0,0.6,0.5,1.1,1.1,1.1h11.7c0,0,0,0,0,0h12.8c0.2,0,0.3-0.1,0.3-0.3v-1.8c0-0.2-0.1-0.3-0.3-0.3H33.5z M33.5,11"/>
</svg>
