<?xml version="1.0" encoding="utf-8"?>
<!-- Generator: Adobe Illustrator 19.1.0, SVG Export Plug-In . SVG Version: 6.00 Build 0)  -->
<svg version="1.1" id="Layer_1" xmlns="http://www.w3.org/2000/svg" xmlns:xlink="http://www.w3.org/1999/xlink" x="0px" y="0px"
	 viewBox="0 0 53.5 45.4" style="enable-background:new 0 0 53.5 45.4;" xml:space="preserve">
<style type="text/css">
	.st0{fill:#FFFFFF;}
</style>
<g>
	<path class="st0" d="M33.2,24c-0.5,0.5-0.5,1.4,0,2c0.3,0.3,0.6,0.4,1,0.4c0.4,0,0.7-0.1,1-0.4c4.8-4.8,4.8-12.5,0-17.3
		c-0.5-0.5-1.4-0.5-2,0c-0.5,0.5-0.5,1.4,0,2C36.9,14.3,36.9,20.3,33.2,24"/>
	<path class="st0" d="M17.9,26c0.3,0.3,0.6,0.4,1,0.4c0.4,0,0.7-0.1,1-0.4c0.5-0.5,0.5-1.4,0-2c-3.7-3.7-3.7-9.7,0-13.4
		c0.5-0.5,0.5-1.4,0-2c-0.5-0.5-1.4-0.5-2,0C13.1,13.4,13.1,21.2,17.9,26"/>
	<path class="st0" d="M36.6,27.3c-0.5,0.5-0.5,1.4,0,2c0.3,0.3,0.6,0.4,1,0.4c0.4,0,0.7-0.1,1-0.4c6.6-6.6,6.6-17.4,0-24
		c-0.5-0.5-1.4-0.5-2,0c-0.5,0.5-0.5,1.4,0,2C42.1,12.8,42.1,21.8,36.6,27.3"/>
	<path class="st0" d="M15.5,29.7c0.4,0,0.7-0.1,1-0.4c0.5-0.5,0.5-1.4,0-2c-5.5-5.5-5.5-14.5,0-20.1c0.5-0.5,0.5-1.4,0-2
		c-0.5-0.5-1.4-0.5-2,0c-6.6,6.6-6.6,17.4,0,24C14.8,29.6,15.2,29.7,15.5,29.7"/>
	<path class="st0" d="M46.6,57h-6.3l-9.8-33.5c2.1-1.3,3.4-3.6,3.4-6.3c0-4.1-3.3-7.4-7.4-7.4c-4.1,0-7.4,3.3-7.4,7.4
		c0,2.6,1.4,4.9,3.4,6.3L12.7,57H6.5c-0.8,0-1.4,0.6-1.4,1.4V63c0,0.8,0.6,1.4,1.4,1.4h9.9c0.8,0,1.4-0.6,1.4-1.4v-4.5
		c0-0.8-0.6-1.4-1.4-1.4h-0.7l0.2-2.8c0,0,0,0,0,0l10.7-6.6l10.7,6.6c0,0,0,0,0,0l0.2,2.8h-0.7c-0.8,0-1.4,0.6-1.4,1.4V63
		c0,0.8,0.6,1.4,1.4,1.4h9.9c0.8,0,1.4-0.6,1.4-1.4v-4.5C48,57.7,47.4,57,46.6,57 M7.8,59.8H15v1.8H7.8V59.8z M26.5,12.6
		c2.6,0,4.7,2.1,4.7,4.7S29.1,22,26.5,22c-2.6,0-4.7-2.1-4.7-4.7S24,12.6,26.5,12.6z M26.5,24.8c0.5,0,1-0.1,1.5-0.1L33,40.4l-5,3.1
		V25.7c0-0.8-0.6-1.4-1.4-1.4c-0.8,0-1.4,0.6-1.4,1.4v17.8l-5-3.1l5-15.8C25.6,24.7,26,24.8,26.5,24.8z M17.1,50.2l2.2-7.1l4.6,2.9
		L17.1,50.2z M29.2,46l4.6-2.9l2.2,7.1L29.2,46z M38.1,59.8h7.2v1.8h-7.2V59.8z"/>
</g>
</svg>
