<?xml version="1.0" encoding="utf-8"?>
<!-- Generator: Adobe Illustrator 19.1.0, SVG Export Plug-In . SVG Version: 6.00 Build 0)  -->
<svg version="1.1" id="Layer_1" xmlns="http://www.w3.org/2000/svg" xmlns:xlink="http://www.w3.org/1999/xlink" x="0px" y="0px"
	 viewBox="0 0 65.2 41.3" style="enable-background:new 0 0 65.2 41.3;" xml:space="preserve">
<style type="text/css">
	.st0{fill:#FFFFFF;}
</style>
<g>
	<path class="st0" d="M21.7,4.4c-2.4-1-5.3-1.5-8.5-1.5c-3.3,0-6.1,0.5-8.5,1.5c-1.9,0.8-3,1.8-3.2,3.1L0,16.9v12.9h1.9
		c0,1.8,0.3,3,0.9,3.7c0.6,0.7,1.2,0.7,1.9,0c0.6-0.7,1-1.9,1-3.7h14.7c0,1.8,0.3,3,1,3.7c0.6,0.7,1.3,0.7,1.9,0
		c0.6-0.7,0.9-1.9,0.9-3.7h2.3V16.9l-1.5-9.4C24.7,6.2,23.6,5.2,21.7,4.4L21.7,4.4z M5.9,5.3c0.1-0.5,0.4-0.8,0.6-0.8h12.1v3.3H6.6
		C6.3,7.9,6.1,7.6,5.9,7C5.8,6.4,5.8,5.9,5.9,5.3L5.9,5.3z M2.5,16.6L3.5,10c0.1-0.1,0.1-0.2,0.2-0.2c0,0,0.1,0,0.3,0.1
		C4.2,10,4.4,10,4.5,10h17.2c0.1,0,0.3,0,0.5-0.1c0.3-0.1,0.5-0.1,0.5,0.1l1,7.1l0.1-0.1c0,0.5-0.4,0.8-1.1,0.8H3.4
		c-0.6,0-1-0.3-1-1V16.6z M5.6,25.5C5.2,25.8,4.8,26,4.2,26s-1-0.2-1.4-0.5c-0.4-0.4-0.6-0.8-0.6-1.3s0.2-1,0.6-1.3
		c0.4-0.4,0.9-0.5,1.4-0.5s1,0.2,1.4,0.5c0.4,0.4,0.6,0.8,0.6,1.3S6,25.1,5.6,25.5L5.6,25.5z M23.4,25.5C23,25.8,22.5,26,22,26
		c-0.5,0-1-0.2-1.3-0.5c-0.4-0.4-0.5-0.8-0.5-1.3s0.2-1,0.5-1.3c0.4-0.4,0.8-0.5,1.3-0.5c0.5,0,1,0.2,1.4,0.5
		c0.4,0.4,0.6,0.8,0.6,1.3S23.8,25.1,23.4,25.5L23.4,25.5z M23.4,25.5"/>
	<path class="st0" d="M58.9,31.7v-0.2c0.9-0.4,1.8-0.9,2.5-1.4c0.6-0.5,1.1-1.3,1.4-2.4c0.1-0.3,0.1-0.6,0.1-0.9v-22
		c0-0.6-0.2-1.2-0.5-1.7c-0.3-0.6-0.7-1.1-1.1-1.5c-0.4-0.3-1-0.7-1.8-1.1c-0.2-0.1-0.4-0.2-0.6-0.2c-0.2-0.1-0.5-0.1-0.7-0.2L58,0
		v0.1H42.2V0c-0.4,0.1-0.8,0.2-1.3,0.5c-0.7,0.3-1.3,0.7-1.7,1.1c-0.6,0.6-1.1,1-1.3,1.4c-0.4,0.7-0.6,1.3-0.6,1.7V27
		c0,0.3,0.1,0.7,0.4,1.2c0.2,0.3,0.4,0.7,0.7,1.2l0.9,0.9c0.3,0.3,0.7,0.6,1.1,0.7c0.1,0.1,0.4,0.2,0.8,0.4c0.3,0.1,0.5,0.2,0.5,0.2
		l-6.4,9.7H39l4.7-7.2h13l4.7,7.2h3.8L58.9,31.7z M48,1.3h4.4c1.1,0,1.7,0.4,1.7,1.2c0,0.8-0.6,1.2-1.7,1.2H48
		c-1.1,0-1.7-0.4-1.7-1.2C46.3,1.7,46.9,1.3,48,1.3L48,1.3z M39.8,12.4V9.7c0-1,0.3-1.9,1-2.5c0.7-0.7,1.5-1,2.4-1h12.5
		c0.9,0,1.8,0.3,2.4,1c0.7,0.7,1,1.5,1,2.5v2.7c0,0.9-0.3,1.8-1,2.4c-0.7,0.7-1.5,1-2.4,1H43.2c-0.9,0-1.8-0.3-2.4-1
		C40.1,14.2,39.8,13.4,39.8,12.4L39.8,12.4z M44.8,27.7c-0.5,0.5-1.1,0.8-1.8,0.8s-1.3-0.3-1.8-0.8c-0.5-0.5-0.7-1.1-0.7-1.8
		c0-0.6,0.2-1.2,0.7-1.7c0.5-0.5,1.1-0.7,1.8-0.7s1.3,0.2,1.8,0.7c0.5,0.4,0.7,1,0.7,1.8C45.5,26.7,45.2,27.2,44.8,27.7L44.8,27.7z
		 M55.5,27.7c-0.5-0.5-0.7-1.1-0.7-1.8c0-0.7,0.3-1.3,0.8-1.7c0.5-0.4,1.1-0.7,1.8-0.7c0.7,0,1.3,0.2,1.8,0.7c0.5,0.5,0.7,1,0.7,1.7
		c0,0.7-0.2,1.3-0.7,1.8c-0.5,0.5-1.1,0.8-1.8,0.8C56.6,28.5,56,28.3,55.5,27.7L55.5,27.7z M55.5,27.7"/>
</g>
</svg>
