<?xml version="1.0" encoding="utf-8"?>
<!-- Generator: Adobe Illustrator 19.1.0, SVG Export Plug-In . SVG Version: 6.00 Build 0)  -->
<svg version="1.1" id="Layer_1" xmlns="http://www.w3.org/2000/svg" xmlns:xlink="http://www.w3.org/1999/xlink" x="0px" y="0px"
	 viewBox="0 0 65.2 41.3" style="enable-background:new 0 0 65.2 41.3;" xml:space="preserve">
<style type="text/css">
	.st0{fill:#E3E3E3;}
</style>
<g>
	<path class="st0" d="M42.7,25.3c-0.6,1-1.3,2.1-2.1,3.2c6.2,0.9,9.4,2.9,9.4,3.9c0,1.3-5.6,4.4-16.6,4.4c-10.9,0-16.6-3.1-16.6-4.4
		c0-1,3.2-3,9.4-3.9c-0.7-1.1-1.4-2.1-2.1-3.2c-6.1,1.2-10.8,3.5-10.8,7.1c0,5.2,10.1,7.9,20,7.9c10,0,20-2.7,20-7.9
		C53.6,28.9,48.9,26.5,42.7,25.3L42.7,25.3z M42.7,25.3"/>
	<path class="st0" d="M33.5,32.1c0.9,0,1.7-0.4,2.3-1.2c3.4-4.7,9.4-13.5,9.4-18.2C45.2,6.3,40,1,33.5,1C27,1,21.8,6.3,21.8,12.7
		c0,4.6,6,13.5,9.4,18.2C31.8,31.6,32.6,32.1,33.5,32.1L33.5,32.1z M28.6,12.5c0-2.7,2.2-4.9,4.9-4.9c2.7,0,4.9,2.2,4.9,4.9
		c0,2.7-2.2,4.9-4.9,4.9C30.8,17.4,28.6,15.2,28.6,12.5L28.6,12.5z M28.6,12.5"/>
</g>
</svg>
