<?xml version="1.0" encoding="utf-8"?>
<!-- Generator: Adobe Illustrator 19.1.0, SVG Export Plug-In . SVG Version: 6.00 Build 0)  -->
<svg version="1.1" id="Layer_1" xmlns="http://www.w3.org/2000/svg" xmlns:xlink="http://www.w3.org/1999/xlink" x="0px" y="0px"
	 viewBox="0 0 53.5 45.4" style="enable-background:new 0 0 53.5 45.4;" xml:space="preserve">
<style type="text/css">
	.st0{fill:#E3E3E3;}
</style>
<g>
	<path class="st0" d="M4.1,11.9c-1.2,1.2-1.8,2.6-1.8,4.2v22.3c0,1.6,0.6,3.1,1.8,4.2c1.2,1.2,2.6,1.8,4.2,1.8h0.9V10.1H8.4
		C6.7,10.1,5.3,10.7,4.1,11.9L4.1,11.9z M4.1,11.9"/>
	<path class="st0" d="M36.7,5.8c0-0.7-0.3-1.3-0.8-1.8c-0.5-0.5-1.1-0.8-1.8-0.8H18.7c-0.7,0-1.3,0.3-1.8,0.8
		c-0.5,0.5-0.8,1.1-0.8,1.8v4.3h-4.3v34.4H41V10.1h-4.3V5.8z M19.5,6.7h13.8v3.4H19.5V6.7z M36.7,29.9c0,0.3-0.1,0.5-0.2,0.6
		c-0.2,0.2-0.4,0.2-0.6,0.2h-6v6c0,0.2-0.1,0.5-0.2,0.6c-0.2,0.2-0.4,0.2-0.6,0.2h-5.2c-0.3,0-0.5-0.1-0.6-0.2
		C23.1,37.2,23,37,23,36.8v-6h-6c-0.3,0-0.5-0.1-0.6-0.2c-0.2-0.2-0.2-0.4-0.2-0.6v-5.2c0-0.3,0.1-0.5,0.2-0.6
		c0.2-0.2,0.4-0.2,0.6-0.2h6v-6c0-0.3,0.1-0.5,0.2-0.6c0.2-0.2,0.4-0.2,0.6-0.2H29c0.3,0,0.5,0.1,0.6,0.2c0.2,0.2,0.2,0.4,0.2,0.6v6
		h6c0.3,0,0.5,0.1,0.6,0.2c0.2,0.2,0.2,0.4,0.2,0.6L36.7,29.9L36.7,29.9z M36.7,29.9"/>
	<path class="st0" d="M48.7,11.9c-1.2-1.2-2.6-1.8-4.2-1.8h-0.9v34.4h0.9c1.6,0,3.1-0.6,4.2-1.8c1.2-1.2,1.8-2.6,1.8-4.2V16.1
		C50.5,14.5,49.9,13.1,48.7,11.9L48.7,11.9z M48.7,11.9"/>
</g>
</svg>
